<svg width="45" height="45" fill="none" xmlns="http://www.w3.org/2000/svg"><path fill-rule="evenodd" clip-rule="evenodd" d="M22.5 12.456c-6.213 0-11.25 5.037-11.25 11.25s5.037 11.25 11.25 11.25 11.25-5.037 11.25-11.25-5.037-11.25-11.25-11.25zm0 5.122a5.625 5.625 0 1 0 0 11.25 5.625 5.625 0 0 0 0-11.25z" fill="#3664AD"/><path d="M21 8.538a1.5 1.5 0 0 0 3 0h-3zm3-6.429a1.5 1.5 0 0 0-3 0h3zm-9.873 8.406a1.5 1.5 0 0 0 2.683-1.342l-2.683 1.342zm-.13-6.967a1.5 1.5 0 0 0-2.682 1.342l2.683-1.342zM28.19 9.173a1.5 1.5 0 0 0 2.683 1.342L28.19 9.173zm5.495-4.283a1.5 1.5 0 0 0-2.683-1.342l2.683 1.342zm1.817 6.706a1.5 1.5 0 0 0 2.121 2.12l-2.121-2.12zm5.637-1.395a1.5 1.5 0 1 0-2.122-2.121l2.122 2.121zM7.377 13.717a1.5 1.5 0 1 0 2.121-2.121l-2.121 2.12zM5.983 8.08a1.5 1.5 0 0 0-2.122 2.121L5.983 8.08zM2.714 23.555l-1.37-.61 1.37.61zm.067 2.917l-1.31.73 1.31-.73zm39.505-2.917l-1.37.612 1.37-.612zm-.067 2.917l1.31.73-1.31-.73zM2.109 41.391a1.5 1.5 0 0 0 0 3v-3zm40.782 3a1.5 1.5 0 1 0 0-3v3zM24 8.538V2.109h-3v6.429h3zm-7.19.635l-2.812-5.625-2.683 1.342 2.812 5.625 2.683-1.342zm14.063 1.342l2.812-5.625-2.683-1.342-2.812 5.625 2.683 1.342zm6.75 3.202L41.14 10.2l-2.123-2.12-3.515 3.516 2.121 2.12zM9.498 11.596L5.983 8.08 3.86 10.201l3.516 3.516 2.121-2.121zM4.084 24.167c1.156-2.59 2.849-5.106 5.639-6.99 2.79-1.881 6.81-3.222 12.777-3.222v-3c-6.426 0-11.066 1.45-14.455 3.736-3.388 2.287-5.391 5.32-6.7 8.253l2.739 1.223zM1.47 27.203c3.253 5.834 11.158 9.252 21.029 9.252v-3c-9.382 0-15.924-3.257-18.409-7.713l-2.62 1.46zm42.185-4.259c-1.31-2.933-3.313-5.966-6.7-8.253-3.39-2.287-8.03-3.736-14.456-3.736v3c5.968 0 9.988 1.34 12.777 3.223 2.79 1.883 4.483 4.4 5.64 6.989l2.739-1.223zm-2.747 2.798c-2.485 4.456-9.027 7.713-18.409 7.713v3c9.871 0 17.776-3.418 21.03-9.252l-2.621-1.461zm.007-1.575c.256.572.23 1.15-.007 1.575l2.62 1.46c.763-1.368.708-2.954.127-4.258l-2.74 1.223zM1.344 22.944c-.581 1.304-.637 2.89.127 4.259l2.62-1.461c-.237-.425-.263-1.003-.007-1.575l-2.74-1.223zm.765 21.447h40.782v-3H2.109v3zM22.5 27.328a4.125 4.125 0 0 1-4.125-4.125h-3a7.125 7.125 0 0 0 7.125 7.125v-3zm4.125-4.125a4.125 4.125 0 0 1-4.125 4.125v3a7.125 7.125 0 0 0 7.125-7.125h-3zM22.5 19.078a4.125 4.125 0 0 1 4.125 4.125h3a7.125 7.125 0 0 0-7.125-7.125v3zm0-3a7.125 7.125 0 0 0-7.125 7.125h3a4.125 4.125 0 0 1 4.125-4.125v-3z" fill="#1E202F"/></svg>