<svg width="44" height="53" fill="none" xmlns="http://www.w3.org/2000/svg"><rect x="2.5" y="15.5" width="39" height="15" rx="3.5" stroke="#1E202F" stroke-width="3"/><path d="M7.5 30.5h29V50a1.5 1.5 0 0 1-1.5 1.5H9A1.5 1.5 0 0 1 7.5 50V30.5z" stroke="#1E202F" stroke-width="3"/><mask id="a" fill="#fff"><path d="M14 22.5a4.5 4.5 0 0 1 4.5-4.5H23v14a3 3 0 0 1-3 3h-3a3 3 0 0 1-3-3v-9.5z"/></mask><path d="M14 22.5a4.5 4.5 0 0 1 4.5-4.5H23v14a3 3 0 0 1-3 3h-3a3 3 0 0 1-3-3v-9.5z" stroke="#3664AD" stroke-width="7" mask="url(#a)"/><mask id="b" fill="#fff"><path d="M20 17h4.5a4.5 4.5 0 0 1 4.5 4.5V42a3 3 0 0 1-3 3h-3a3 3 0 0 1-3-3V17z"/></mask><path d="M20 17h4.5a4.5 4.5 0 0 1 4.5 4.5V42a3 3 0 0 1-3 3h-3a3 3 0 0 1-3-3V17z" stroke="#3664AD" stroke-width="7" mask="url(#b)"/><path d="M22.26 14.458a1.25 1.25 0 0 1 0 2.084l-11.82 7.835a1.25 1.25 0 0 1-1.94-1.041V7.665a1.25 1.25 0 0 1 1.94-1.042l11.82 7.835z" stroke="#3664AD" stroke-width="3.5"/><path d="M21.74 16.542a1.25 1.25 0 0 1 0-2.084l11.82-7.835a1.25 1.25 0 0 1 1.94 1.042v15.67a1.25 1.25 0 0 1-1.94 1.042l-11.82-7.835z" stroke="#3664AD" stroke-width="3.5"/></svg>