<svg width="18" height="18" viewBox="0 0 18 18" fill="none" xmlns="http://www.w3.org/2000/svg">
<path d="M16.3055 4.50688H2.67636C2.51357 4.53839 2.34584 4.5335 2.18516 4.49258C2.02449 4.45166 1.87485 4.37571 1.74697 4.27018C1.61908 4.16465 1.51612 4.03215 1.44544 3.88216C1.37477 3.73217 1.33814 3.56841 1.33818 3.40261V3.38124L15.7433 2.8201V1.48193C15.7668 1.28227 15.7446 1.07988 15.6784 0.890057C15.6122 0.70023 15.5037 0.527925 15.3612 0.386151C15.2187 0.244378 15.0458 0.136844 14.8556 0.0716687C14.6654 0.00649378 14.4629 -0.0146177 14.2634 0.00992844L1.47312 2.08917C1.04145 2.24852 0.66891 2.53619 0.405563 2.91352C0.142216 3.29085 0.000687802 3.73975 0 4.19989L0 16.3132C0 16.7606 0.177714 17.1896 0.494046 17.506C0.810379 17.8223 1.23942 18 1.68678 18H16.3055C16.7529 18 17.1819 17.8223 17.4983 17.506C17.8146 17.1896 17.9923 16.7606 17.9923 16.3132V6.18129L17.9934 6.13519C17.9934 5.70274 17.8217 5.288 17.5159 4.98221C17.2101 4.67643 16.7953 4.50463 16.3629 4.50463L16.3033 4.50576L16.3055 4.50688ZM14.6188 12.3785C14.1712 12.3784 13.7421 12.2005 13.4258 11.8839C13.1095 11.5674 12.9318 11.1381 12.932 10.6906C12.9321 10.2431 13.11 9.81398 13.4266 9.49765C13.7431 9.18132 14.1724 9.00369 14.6199 9.00384C14.8415 9.00391 15.0609 9.04763 15.2656 9.1325C15.4703 9.21736 15.6562 9.34171 15.8129 9.49845C15.9695 9.65518 16.0937 9.84124 16.1784 10.046C16.2632 10.2507 16.3067 10.4702 16.3067 10.6917C16.3066 10.9133 16.2629 11.1327 16.178 11.3374C16.0931 11.5421 15.9688 11.7281 15.8121 11.8847C15.6553 12.0413 15.4693 12.1656 15.2645 12.2503C15.0598 12.335 14.8403 12.3786 14.6188 12.3785Z" fill="#1E202F"/>
</svg>
