<svg width="34" height="45" fill="none" xmlns="http://www.w3.org/2000/svg"><path fill="#E5E5E5" d="M0 0h34v45H0z"/><g clip-path="url(#clip0)"><path fill="#fff" d="M-540-3393H900v4789H-540z"/><path d="M4.857 14.143c0-.79.64-1.429 1.429-1.429h21.428a1.429 1.429 0 1 1 0 2.857H6.286c-.79 0-1.429-.64-1.429-1.428zm0 5.714c0-.789.64-1.428 1.429-1.428h21.428a1.429 1.429 0 1 1 0 2.857H6.286c-.79 0-1.429-.64-1.429-1.429zm0 5.714c0-.789.64-1.428 1.429-1.428h21.428a1.429 1.429 0 1 1 0 2.857H6.286c-.79 0-1.429-.64-1.429-1.429zm0 5.715c0-.79.64-1.429 1.429-1.429h21.428a1.429 1.429 0 1 1 0 2.857H6.286c-.79 0-1.429-.64-1.429-1.428z" fill="#3664AD"/><path d="M7.476 2v2.551c0 1.747-1.4 3.163-3.13 3.163H2M7.476 2h21.395C30.599 2 32 3.416 32 5.163v35.102c0 1.747-1.401 3.164-3.13 3.164H5.13C3.4 43.429 2 42.012 2 40.265V7.715M7.476 2L2 7.714" stroke="#1E202F" stroke-width="3" stroke-linecap="round" stroke-linejoin="round"/></g><defs><clipPath id="clip0"><path fill="#fff" d="M-540-3393H900v4789H-540z"/></clipPath></defs></svg>