<svg width="45" height="45" viewBox="0 0 45 45" fill="none" xmlns="http://www.w3.org/2000/svg">
<path fill-rule="evenodd" clip-rule="evenodd" d="M22.5 12.4557C16.2868 12.4557 11.25 17.4925 11.25 23.7057C11.25 29.919 16.2868 34.9557 22.5 34.9557C28.7132 34.9557 33.75 29.919 33.75 23.7057C33.75 17.4925 28.7132 12.4557 22.5 12.4557ZM22.5 17.5781C19.3934 17.5781 16.875 20.0965 16.875 23.2031C16.875 26.3097 19.3934 28.8281 22.5 28.8281C25.6066 28.8281 28.125 26.3097 28.125 23.2031C28.125 20.0965 25.6066 17.5781 22.5 17.5781Z" fill="#3664AD"/>
<path d="M21 8.53795C21 9.36637 21.6716 10.0379 22.5 10.0379C23.3284 10.0379 24 9.36637 24 8.53795H21ZM24 2.10938C24 1.28095 23.3284 0.609375 22.5 0.609375C21.6716 0.609375 21 1.28095 21 2.10938H24ZM14.1271 10.5146C14.4976 11.2555 15.3986 11.5559 16.1396 11.1854C16.8805 10.8149 17.1809 9.9139 16.8104 9.17293L14.1271 10.5146ZM13.9979 3.54793C13.6274 2.80696 12.7264 2.50663 11.9854 2.87711C11.2445 3.24759 10.9441 4.1486 11.3146 4.88957L13.9979 3.54793ZM28.1896 9.17293C27.8191 9.9139 28.1195 10.8149 28.8604 11.1854C29.6014 11.5559 30.5024 11.2555 30.8729 10.5146L28.1896 9.17293ZM33.6854 4.88957C34.0559 4.1486 33.7555 3.24759 33.0146 2.87711C32.2736 2.50663 31.3726 2.80696 31.0021 3.54793L33.6854 4.88957ZM35.5018 11.5956C34.9161 12.1814 34.9161 13.1311 35.5018 13.7169C36.0876 14.3027 37.0374 14.3027 37.6232 13.7169L35.5018 11.5956ZM41.1388 10.2013C41.7246 9.6155 41.7246 8.66575 41.1388 8.07996C40.553 7.49418 39.6033 7.49418 39.0175 8.07996L41.1388 10.2013ZM7.37684 13.7169C7.96263 14.3027 8.91237 14.3027 9.49816 13.7169C10.0839 13.1311 10.0839 12.1814 9.49816 11.5956L7.37684 13.7169ZM5.98254 8.07996C5.39675 7.49418 4.447 7.49418 3.86121 8.07996C3.27543 8.66575 3.27543 9.6155 3.86121 10.2013L5.98254 8.07996ZM2.71418 23.5555L1.34445 22.9441H1.34445L2.71418 23.5555ZM2.78105 26.4724L1.47093 27.2029H1.47093L2.78105 26.4724ZM42.2858 23.5555L40.9161 24.167V24.167L42.2858 23.5555ZM42.2189 26.4724L43.5291 27.2029L42.2189 26.4724ZM2.10938 41.3906C1.28095 41.3906 0.609375 42.0622 0.609375 42.8906C0.609375 43.7191 1.28095 44.3906 2.10938 44.3906V41.3906ZM42.8906 44.3906C43.7191 44.3906 44.3906 43.7191 44.3906 42.8906C44.3906 42.0622 43.7191 41.3906 42.8906 41.3906V44.3906ZM24 8.53795V2.10938H21V8.53795H24ZM16.8104 9.17293L13.9979 3.54793L11.3146 4.88957L14.1271 10.5146L16.8104 9.17293ZM30.8729 10.5146L33.6854 4.88957L31.0021 3.54793L28.1896 9.17293L30.8729 10.5146ZM37.6232 13.7169L41.1388 10.2013L39.0175 8.07996L35.5018 11.5956L37.6232 13.7169ZM9.49816 11.5956L5.98254 8.07996L3.86121 10.2013L7.37684 13.7169L9.49816 11.5956ZM4.08391 24.167C5.23995 21.5772 6.93276 19.0609 9.72294 17.1779C12.5121 15.2955 16.5325 13.9554 22.5 13.9554V10.9554C16.0737 10.9554 11.4337 12.4041 8.04475 14.6912C4.65678 16.9776 2.65359 20.0114 1.34445 22.9441L4.08391 24.167ZM1.47093 27.2029C4.72392 33.0372 12.6287 36.4554 22.5 36.4554V33.4554C13.1176 33.4554 6.57584 30.1983 4.09117 25.7419L1.47093 27.2029ZM43.6556 22.9441C42.3464 20.0114 40.3432 16.9776 36.9552 14.6912C33.5663 12.4041 28.9263 10.9554 22.5 10.9554V13.9554C28.4675 13.9554 32.4879 15.2955 35.2771 17.1779C38.0672 19.0609 39.76 21.5772 40.9161 24.167L43.6556 22.9441ZM40.9088 25.7419C38.4242 30.1983 31.8824 33.4554 22.5 33.4554V36.4554C32.3713 36.4554 40.2761 33.0372 43.5291 27.2029L40.9088 25.7419ZM40.9161 24.167C41.1715 24.7391 41.1457 25.3171 40.9088 25.7419L43.5291 27.2029C44.2925 25.8336 44.2375 24.2477 43.6556 22.9441L40.9161 24.167ZM1.34445 22.9441C0.762545 24.2477 0.707487 25.8336 1.47093 27.2029L4.09117 25.7419C3.85428 25.3171 3.8285 24.7391 4.08391 24.167L1.34445 22.9441ZM2.10938 44.3906H42.8906V41.3906H2.10938V44.3906ZM22.5 27.3281C20.2218 27.3281 18.375 25.4813 18.375 23.2031H15.375C15.375 27.1382 18.565 30.3281 22.5 30.3281V27.3281ZM26.625 23.2031C26.625 25.4813 24.7782 27.3281 22.5 27.3281V30.3281C26.435 30.3281 29.625 27.1382 29.625 23.2031H26.625ZM22.5 19.0781C24.7782 19.0781 26.625 20.9249 26.625 23.2031H29.625C29.625 19.2681 26.435 16.0781 22.5 16.0781V19.0781ZM22.5 16.0781C18.565 16.0781 15.375 19.2681 15.375 23.2031H18.375C18.375 20.9249 20.2218 19.0781 22.5 19.0781V16.0781Z" fill="#1E202F"/>
</svg>
