<svg width="55" height="51" fill="none" xmlns="http://www.w3.org/2000/svg"><path d="M8.628 29.484h-2.58V27.6h7.524v1.884h-2.568V36H8.628v-6.516z" fill="#1E202F"/><path d="M22.778 27.6l-3.6 8.4h-2.34l-3.588-8.4h2.568l2.28 5.472 2.328-5.472h2.352z" fill="#1E202F"/><path d="M35.75 11.875H4.5c-1.38 0-2.5 1.122-2.5 2.507v23.94a2.503 2.503 0 0 0 2.5 2.506h7.39c.848 0 1.638.432 2.099 1.145l4.037 6.257a2.496 2.496 0 0 0 4.198 0l4.037-6.256a2.498 2.498 0 0 1 2.1-1.145h7.389c1.38 0 2.5-1.123 2.5-2.507v-23.94a2.503 2.503 0 0 0-2.5-2.507z" stroke="#1E202F" stroke-width="3"/><path d="M34.918 4.868C19.835-5.788 9.59 15.582 32.087 30.772c2.424 1.637 5.402 1.637 7.826 0 22.497-15.19 12.252-36.56-2.831-25.904a1.842 1.842 0 0 1-2.164 0z" stroke="#3664AD" stroke-width="3.5"/></svg>