<svg width="503" height="300" fill="none" xmlns="http://www.w3.org/2000/svg"><path d="M495.294 118.624c-9.46 20.043-27.384 37.668-26.934 59.819.285 14.286 8.393 27.126 12.353 40.843 7.469 25.87-.024 52.641-10.906 77.966-.238.568-.498 1.137-.735 1.706-10.693.165-24.279.308-40.212.426-45.238.379-109.491.592-180.786.592-95.431 0-178.273-.402-219.765-1.018-1.114-.024-2.228-.024-3.271-.048a97.517 97.517 0 0 1-1.067-1.658c-4.553-7.226-7.848-15.257-9.556-23.62-4.29-21.132 1.637-44.088 15.625-60.506 18.944-22.269 50.715-32.148 65.77-57.189 10.03-16.702 10.741-37.123 13.657-56.408 2.917-19.26 9.721-40.084 26.626-49.774 14.772-8.457 33.407-6.04 49.554-.616 16.146 5.45 31.486 13.67 48.32 16.37 33.905 5.497 66.908-12.034 96.379-29.684C359.77 18.2 391.304-.895 425.588 1.142c26.792 1.587 52.375 17.176 66.055 40.25 13.704 23.075 15.103 52.973 3.651 77.232z" fill="#BBCDEB"/><path opacity=".5" d="M231.477 75.08h-47.704v67.851h47.704v-67.85z" fill="#86A4D4"/><path opacity=".5" d="M228.419 78.137h-41.587v61.738h41.587V78.137z" fill="#fff"/><path d="M221.282 85.268h-27.313v47.476h27.313V85.268z" fill="#BBCDEB"/><path opacity=".5" d="M387.463 53.498h-35.47v34.234h35.47V53.499z" fill="#86A4D4"/><path opacity=".5" d="M384.404 56.555h-29.352v28.12h29.352v-28.12z" fill="#fff"/><path d="M377.268 63.685h-15.08v13.86h15.08v-13.86z" fill="#BBCDEB"/><path opacity=".5" d="M426.963 92.967h-35.47V127.2h35.47V92.967z" fill="#86A4D4"/><path opacity=".5" d="M423.905 96.023h-29.353v28.121h29.353v-28.12z" fill="#fff"/><path d="M416.768 103.154h-15.08v13.859h15.08v-13.859z" fill="#BBCDEB"/><path opacity=".5" d="M292.932 101.993h-47.703v40.938h47.703v-40.938z" fill="#86A4D4"/><path opacity=".5" d="M289.874 105.049h-41.587v34.826h41.587v-34.826z" fill="#fff"/><path d="M282.737 112.18h-27.313v20.564h27.313V112.18z" fill="#BBCDEB"/><path d="M496.124 298.105c0 .308-9.768.616-27.076.853-10.693.166-24.279.308-40.212.426-45.238.379-109.491.592-180.786.592-95.431 0-178.273-.402-219.764-1.018-1.115-.024-2.23-.024-3.272-.048C8.986 298.65 0 298.365 0 298.081c0-.284 8.583-.568 23.947-.805 1.138-.024 2.323-.048 3.533-.048 41.207-.616 124.523-1.018 220.57-1.018 71.864 0 136.615.236 181.924.616 15.815.142 29.282.284 39.833.45 16.833.237 26.317.521 26.317.829z" fill="#B5CBEF"/><path d="M11.333 182.399c2.158 9.192 8.56 16.797 15.34 23.383 6.781 6.586 14.226 12.675 19.466 20.54 4.054 6.089 7.563 13.883 7.208 21.132 5.832-22.245 20.532-41.269 37.911-56.668 4.458-3.956 9.318-7.676 12.4-12.769 4.244-7.06 4.363-16.394.332-23.549-4.054-7.154-12.115-11.893-20.343-11.893-3.034 0-6.235.545-9.01-.663-4.765-2.061-6.116-8.41-4.954-13.48 1.161-5.07 4.101-9.571 5.453-14.593 2.632-9.69-1.447-20.825-9.697-26.534-8.251-5.733-20.106-5.638-28.286.213-10.243 7.32-13.325 21.488-11.713 33.973 1.613 12.485 7.018 24.093 10.527 36.175.783 2.725 1.494 5.568.996 8.34-.498 2.771-2.537 5.472-5.335 5.875-4.29.616-7.658-4.075-11.973-4.525-3.343-.355-6.567 2.061-7.919 5.141-1.351 3.08-1.185 6.633-.403 9.902z" fill="url(#paint0_linear)"/><path d="M75.444 247.099v1.326c-.142 17.105-4.03 34.186-11.357 49.656H37.461a109.793 109.793 0 0 1-4.007-11.04c-4.907-16.038-6.212-33.143-3.65-49.774 15.813-1.279 31.628 2.393 45.64 9.832z" fill="#A1BAE1"/><mask id="a" maskUnits="userSpaceOnUse" x="39" y="90" width="18" height="144"><path d="M49.269 90.361c-.048-.023-.356.38-.901 1.208a43.3 43.3 0 0 0-2.087 3.72 50.637 50.637 0 0 0-2.608 6.231c-.118.307-.213.639-.332.947a15.98 15.98 0 0 0-.308.995c-.119.332-.213.687-.308 1.019-.095.355-.19.711-.308 1.066a83.613 83.613 0 0 0-1.091 4.62 78.766 78.766 0 0 0-1.328 10.779c-.213 3.909-.166 8.078.166 12.461.048.545.095 1.09.142 1.659.048.544.095 1.113.166 1.658.024.284.072.568.095.829.024.284.071.569.095.853l.214 1.706c.023.284.07.568.118.852.047.285.095.569.119.853.095.569.166 1.161.26 1.73.095.568.19 1.161.285 1.729.095.592.19 1.161.308 1.753.854 4.691 1.92 9.5 3.13 14.404 1.209 4.904 2.442 9.666 3.604 14.262 1.161 4.596 2.252 9.05 3.153 13.291.901 4.24 1.66 8.315 2.181 12.129.546 3.814.901 7.415 1.067 10.685.071 1.634.143 3.198.143 4.69.023 1.469-.024 2.867-.048 4.17 0 .332-.024.64-.047.971a12.06 12.06 0 0 0-.048.924c-.023.308-.023.592-.047.9-.024.285-.024.569-.071.853-.048.545-.095 1.09-.142 1.588a81.7 81.7 0 0 1-.072.734c0 .118-.023.237-.023.355-.024.119-.024.237-.048.356-.118.9-.213 1.729-.308 2.416 0 .095-.024.166-.024.261-.023.095-.023.166-.047.237l-.071.473c-.048.285-.095.569-.119.806-.142.971-.19 1.469-.142 1.492.047.024.213-.473.45-1.421.072-.237.119-.497.19-.782.047-.142.071-.308.119-.45.023-.071.047-.166.07-.237.024-.095.024-.166.048-.26.143-.711.285-1.517.45-2.417l.072-.355c.023-.119.023-.237.047-.356.024-.236.071-.497.095-.734.071-.521.142-1.042.214-1.611.047-.284.07-.569.094-.853.024-.284.048-.592.095-.9.024-.308.048-.616.095-.924.024-.308.071-.64.071-.971.071-1.327.166-2.725.19-4.217.047-1.493 0-3.08-.024-4.738-.095-3.317-.403-6.942-.877-10.803a170.025 170.025 0 0 0-2.063-12.272c-.877-4.288-1.944-8.766-3.082-13.362-1.138-4.619-2.395-9.381-3.58-14.261-1.186-4.881-2.276-9.666-3.13-14.31-.118-.568-.213-1.16-.308-1.729-.095-.569-.19-1.161-.309-1.729-.094-.569-.165-1.138-.26-1.706l-.143-.853a10.536 10.536 0 0 1-.118-.853c-.071-.568-.142-1.113-.214-1.682-.047-.284-.07-.545-.118-.829-.024-.284-.071-.545-.095-.829-.071-.545-.118-1.09-.166-1.635l-.142-1.635a98.865 98.865 0 0 1-.308-12.295 77.996 77.996 0 0 1 1.114-10.637c.285-1.611.617-3.127.949-4.572.094-.356.19-.711.26-1.067.095-.355.19-.687.285-1.018l.284-.995c.095-.332.19-.64.285-.948.758-2.487 1.612-4.572 2.323-6.254 1.494-3.34 2.537-5.094 2.419-5.165z" fill="url(#paint1_linear)"/></mask><g mask="url(#a)"><path d="M49.269 90.361c-.048-.023-.356.38-.901 1.208a43.3 43.3 0 0 0-2.087 3.72 50.637 50.637 0 0 0-2.608 6.231c-.118.307-.213.639-.332.947a15.98 15.98 0 0 0-.308.995c-.119.332-.213.687-.308 1.019-.095.355-.19.711-.308 1.066a83.613 83.613 0 0 0-1.091 4.62 78.766 78.766 0 0 0-1.328 10.779c-.213 3.909-.166 8.078.166 12.461.048.545.095 1.09.142 1.659.048.544.095 1.113.166 1.658.024.284.072.568.095.829.024.284.071.569.095.853l.214 1.706c.023.284.07.568.118.852.047.285.095.569.119.853.095.569.166 1.161.26 1.73.095.568.19 1.161.285 1.729.095.592.19 1.161.308 1.753.854 4.691 1.92 9.5 3.13 14.404 1.209 4.904 2.442 9.666 3.604 14.262 1.161 4.596 2.252 9.05 3.153 13.291.901 4.24 1.66 8.315 2.181 12.129.546 3.814.901 7.415 1.067 10.685.071 1.634.143 3.198.143 4.69.023 1.469-.024 2.867-.048 4.17 0 .332-.024.64-.047.971a12.06 12.06 0 0 0-.048.924c-.023.308-.023.592-.047.9-.024.285-.024.569-.071.853-.048.545-.095 1.09-.142 1.588a81.7 81.7 0 0 1-.072.734c0 .118-.023.237-.023.355-.024.119-.024.237-.048.356-.118.9-.213 1.729-.308 2.416 0 .095-.024.166-.024.261-.023.095-.023.166-.047.237l-.071.473c-.048.285-.095.569-.119.806-.142.971-.19 1.469-.142 1.492.047.024.213-.473.45-1.421.072-.237.119-.497.19-.782.047-.142.071-.308.119-.45.023-.071.047-.166.07-.237.024-.095.024-.166.048-.26.143-.711.285-1.517.45-2.417l.072-.355c.023-.119.023-.237.047-.356.024-.236.071-.497.095-.734.071-.521.142-1.042.214-1.611.047-.284.07-.569.094-.853.024-.284.048-.592.095-.9.024-.308.048-.616.095-.924.024-.308.071-.64.071-.971.071-1.327.166-2.725.19-4.217.047-1.493 0-3.08-.024-4.738-.095-3.317-.403-6.942-.877-10.803a170.025 170.025 0 0 0-2.063-12.272c-.877-4.288-1.944-8.766-3.082-13.362-1.138-4.619-2.395-9.381-3.58-14.261-1.186-4.881-2.276-9.666-3.13-14.31-.118-.568-.213-1.16-.308-1.729-.095-.569-.19-1.161-.309-1.729-.094-.569-.165-1.138-.26-1.706l-.143-.853a10.536 10.536 0 0 1-.118-.853c-.071-.568-.142-1.113-.214-1.682-.047-.284-.07-.545-.118-.829-.024-.284-.071-.545-.095-.829-.071-.545-.118-1.09-.166-1.635l-.142-1.635a98.865 98.865 0 0 1-.308-12.295 77.996 77.996 0 0 1 1.114-10.637c.285-1.611.617-3.127.949-4.572.094-.356.19-.711.26-1.067.095-.355.19-.687.285-1.018l.284-.995c.095-.332.19-.64.285-.948.758-2.487 1.612-4.572 2.323-6.254 1.494-3.34 2.537-5.094 2.419-5.165z" fill="#D0DBED"/></g><mask id="b" maskUnits="userSpaceOnUse" x="19" y="174" width="35" height="58"><path d="M19.039 174.795c-.047 0-.047.26 0 .711.024.236.047.497.118.829.072.331.143.71.238 1.137.095.426.237.876.379 1.398.071.26.166.521.26.781.096.261.19.569.285.853.427 1.161.996 2.44 1.707 3.838.712 1.374 1.589 2.843 2.585 4.359a67.306 67.306 0 0 0 3.461 4.667c2.585 3.175 5.69 6.42 8.892 9.832 1.588 1.706 3.13 3.364 4.575 5.022 1.423 1.659 2.75 3.293 3.913 4.928 2.347 3.246 4.078 6.42 5.192 9.216.545 1.397.972 2.7 1.304 3.861.047.142.071.285.118.427.024.142.072.284.095.426.072.261.143.521.19.782.095.497.19.971.26 1.374.072.426.12.782.167 1.113.047.332.07.593.118.83.072.45.119.687.19.687.047 0 .095-.237.142-.687a8.27 8.27 0 0 0 .048-.853c0-.332-.024-.711-.024-1.161-.024-.427-.071-.924-.119-1.445a11.625 11.625 0 0 0-.118-.829l-.071-.427c-.024-.142-.048-.308-.071-.45a28.631 28.631 0 0 0-1.115-4.051c-1.02-2.938-2.703-6.278-5.05-9.666a65.416 65.416 0 0 0-3.936-5.093c-1.446-1.706-2.987-3.388-4.6-5.118-3.224-3.411-6.33-6.586-8.914-9.665-2.608-3.056-4.695-6.018-6.212-8.647a45.01 45.01 0 0 1-1.873-3.625c-.119-.261-.237-.545-.356-.806-.118-.26-.213-.497-.308-.734-.19-.474-.356-.924-.498-1.327-.142-.402-.26-.758-.38-1.066-.118-.308-.189-.568-.26-.782-.166-.426-.285-.639-.332-.639z" fill="url(#paint2_linear)"/></mask><g mask="url(#b)"><path d="M19.039 174.795c-.047 0-.047.26 0 .711.024.236.047.497.118.829.072.331.143.71.238 1.137.095.426.237.876.379 1.398.071.26.166.521.26.781.096.261.19.569.285.853.427 1.161.996 2.44 1.707 3.838.712 1.374 1.589 2.843 2.585 4.359a67.306 67.306 0 0 0 3.461 4.667c2.585 3.175 5.69 6.42 8.892 9.832 1.588 1.706 3.13 3.364 4.575 5.022 1.423 1.659 2.75 3.293 3.913 4.928 2.347 3.246 4.078 6.42 5.192 9.216.545 1.397.972 2.7 1.304 3.861.047.142.071.285.118.427.024.142.072.284.095.426.072.261.143.521.19.782.095.497.19.971.26 1.374.072.426.12.782.167 1.113.047.332.07.593.118.83.072.45.119.687.19.687.047 0 .095-.237.142-.687a8.27 8.27 0 0 0 .048-.853c0-.332-.024-.711-.024-1.161-.024-.427-.071-.924-.119-1.445a11.625 11.625 0 0 0-.118-.829l-.071-.427c-.024-.142-.048-.308-.071-.45a28.631 28.631 0 0 0-1.115-4.051c-1.02-2.938-2.703-6.278-5.05-9.666a65.416 65.416 0 0 0-3.936-5.093c-1.446-1.706-2.987-3.388-4.6-5.118-3.224-3.411-6.33-6.586-8.914-9.665-2.608-3.056-4.695-6.018-6.212-8.647a45.01 45.01 0 0 1-1.873-3.625c-.119-.261-.237-.545-.356-.806-.118-.26-.213-.497-.308-.734-.19-.474-.356-.924-.498-1.327-.142-.402-.26-.758-.38-1.066-.118-.308-.189-.568-.26-.782-.166-.426-.285-.639-.332-.639z" fill="#D0DBED"/></g><mask id="c" maskUnits="userSpaceOnUse" x="58" y="156" width="37" height="67"><path d="M94.507 156.458c-.072-.071-.925.569-2.395 1.848-.356.308-.783.663-1.21 1.066l-1.398 1.327c-.972.971-2.134 2.037-3.296 3.34-.593.64-1.209 1.303-1.85 2.014-.331.332-.64.711-.948 1.09-.308.379-.64.758-.972 1.161-.332.402-.663.781-.996 1.184-.165.213-.355.403-.521.616l-.498.64c-.664.853-1.351 1.753-2.039 2.677A120.318 120.318 0 0 0 70.299 186a121.615 121.615 0 0 0-6.307 13.575c-.403 1.09-.782 2.132-1.161 3.151-.095.261-.19.521-.285.758a9.464 9.464 0 0 0-.237.758c-.166.498-.308.995-.474 1.493-.143.497-.309.971-.45 1.445-.143.474-.309.924-.428 1.398-.237.924-.474 1.8-.71 2.629-.475 1.682-.76 3.222-1.044 4.573-.142.687-.285 1.303-.38 1.871-.094.592-.165 1.114-.237 1.588-.284 1.918-.379 2.985-.284 3.008.118.024.427-1.018.877-2.89.119-.474.237-.995.38-1.564.142-.568.332-1.184.497-1.848.38-1.326.735-2.842 1.28-4.477.262-.829.522-1.682.783-2.582.119-.45.308-.901.45-1.351.167-.45.333-.924.499-1.397.166-.474.332-.972.498-1.446.094-.236.165-.497.26-.734s.19-.497.285-.758c.38-.995.782-2.037 1.209-3.104 1.73-4.193 3.817-8.741 6.33-13.337 2.537-4.573 5.264-8.79 7.872-12.485.664-.924 1.328-1.801 1.968-2.677.166-.214.308-.427.474-.64.166-.213.332-.403.498-.616.332-.403.64-.806.948-1.208.309-.403.617-.782.925-1.161.308-.379.593-.758.901-1.114.617-.71 1.186-1.397 1.755-2.061 1.09-1.326 2.18-2.44 3.082-3.459.474-.497.877-.995 1.28-1.421.403-.426.783-.805 1.115-1.161 1.398-1.398 2.11-2.227 2.038-2.298z" fill="url(#paint3_linear)"/></mask><g mask="url(#c)"><path d="M94.507 156.458c-.072-.071-.925.569-2.395 1.848-.356.308-.783.663-1.21 1.066l-1.398 1.327c-.972.971-2.134 2.037-3.296 3.34-.593.64-1.209 1.303-1.85 2.014-.331.332-.64.711-.948 1.09-.308.379-.64.758-.972 1.161-.332.402-.663.781-.996 1.184-.165.213-.355.403-.521.616l-.498.64c-.664.853-1.351 1.753-2.039 2.677A120.318 120.318 0 0 0 70.299 186a121.615 121.615 0 0 0-6.307 13.575c-.403 1.09-.782 2.132-1.161 3.151-.095.261-.19.521-.285.758a9.464 9.464 0 0 0-.237.758c-.166.498-.308.995-.474 1.493-.143.497-.309.971-.45 1.445-.143.474-.309.924-.428 1.398-.237.924-.474 1.8-.71 2.629-.475 1.682-.76 3.222-1.044 4.573-.142.687-.285 1.303-.38 1.871-.094.592-.165 1.114-.237 1.588-.284 1.918-.379 2.985-.284 3.008.118.024.427-1.018.877-2.89.119-.474.237-.995.38-1.564.142-.568.332-1.184.497-1.848.38-1.326.735-2.842 1.28-4.477.262-.829.522-1.682.783-2.582.119-.45.308-.901.45-1.351.167-.45.333-.924.499-1.397.166-.474.332-.972.498-1.446.094-.236.165-.497.26-.734s.19-.497.285-.758c.38-.995.782-2.037 1.209-3.104 1.73-4.193 3.817-8.741 6.33-13.337 2.537-4.573 5.264-8.79 7.872-12.485.664-.924 1.328-1.801 1.968-2.677.166-.214.308-.427.474-.64.166-.213.332-.403.498-.616.332-.403.64-.806.948-1.208.309-.403.617-.782.925-1.161.308-.379.593-.758.901-1.114.617-.71 1.186-1.397 1.755-2.061 1.09-1.326 2.18-2.44 3.082-3.459.474-.497.877-.995 1.28-1.421.403-.426.783-.805 1.115-1.161 1.398-1.398 2.11-2.227 2.038-2.298z" fill="#D0DBED"/></g><path d="M75.444 248.449c-.142 17.105-4.03 34.186-11.357 49.656H37.461a109.769 109.769 0 0 1-4.007-11.04c9.603-1.042 18.873-4.999 26.2-11.301 8.108-6.988 13.751-16.796 15.79-27.315z" fill="url(#paint4_linear)"/><path d="M335.42 245.417c-.118 3.127 0 6.23.475 9.31.118.806.284 1.587.45 2.393-13.846 10.827-32.743 12.153-50.312 12.864-6.212.261-13.657.379-21.908.403h-4.623c-42.654-.095-104.038-2.796-134.837-6.634-1.161-6.159-2.323-12.39-3.082-18.621-.901-7.273-1.28-14.593-.498-21.866 1.423-13.527 7.374-27.221 18.636-34.873 7.065-4.809 15.625-6.87 24.018-8.434 26.555-4.998 100.932-6.135 127.795-3.34 3.177.332 6.354.711 9.507 1.256 3.699.616 7.374 1.445 10.931 2.606a54.02 54.02 0 0 1 4.623 1.729c7.895 3.388 15.079 9.05 18.778 16.773 1.683 3.483 2.561 7.226 2.964 11.064.592 5.875 0 11.987-.83 17.862-.854 5.757-1.873 11.656-2.087 17.508z" fill="#86A4D4"/><path d="M337.483 218.836c-1.043 8.813-2.371 17.768-2.063 26.581.095 2.985.38 5.946.949 8.884-.143.142-.309.284-.451.426-13.799 12.722-32.482 14.309-49.838 15.162-6.212.308-13.656.45-21.907.498h-4.624c-42.653-.095-104.038-3.388-134.836-8.032-1.162-7.486-2.324-15.019-3.083-22.577.83-3.624 2.158-7.036 4.007-10.116a824.944 824.944 0 0 0 104.157 7.629c17.616.166 35.54-.261 52.351-6.728 6.923-2.677 13.656-6.397 19.228-12.035 5.572-5.639 9.934-13.314 11.31-21.938.853-5.378.521-10.85-.688-16.133a54.231 54.231 0 0 1 4.623 1.729c7.896 3.388 15.08 9.05 18.778 16.773 1.684 3.483 2.561 7.226 2.964 11.064a270.092 270.092 0 0 1-.877 8.813z" fill="#5778AC"/><path d="M119.141 247.691c73.737-11.679 148.327-11.679 222.064 0v36.863H119.141v-36.863z" fill="#698CC2"/><path d="M232.947 286.449c61.505 0 111.364-.849 111.364-1.895 0-1.047-49.859-1.896-111.364-1.896s-111.364.849-111.364 1.896c0 1.046 49.859 1.895 111.364 1.895z" fill="#86A4D4"/><path d="M337.459 298.152c-2.063-24.97-4.149-43.141-6.212-68.111-.521-6.372-1.019-13.006 1.257-18.976 2.086-5.52 6.662-10.139 12.305-11.869 5.643-1.729 12.234-.379 16.431 3.791 5.951 5.899 6.022 15.304 5.714 23.69-.972 26.131-1.968 45.463-2.94 71.594-9.27.142-17.284-.308-26.555-.119z" fill="#5C76A2"/><path d="M133.675 225.493c-.024.379-.024.758-.047 1.137-.973 26.131-1.968 45.462-2.94 71.593-9.271.19-17.285-.26-26.555-.095-2.063-24.97-4.15-43.14-6.212-68.134-.522-6.373-1.02-13.006 1.256-18.976a19.782 19.782 0 0 1 2.632-4.809c2.419-3.293 5.785-5.852 9.674-7.06 5.643-1.73 12.234-.379 16.431 3.79 5.69 5.639 5.998 14.499 5.761 22.554z" fill="#86A4D4"/><path d="M350.666 199.101c0 .143-.404.237-1.115.332-.711.142-1.731.284-3.011.687-1.257.379-2.75 1.019-4.339 2.014a19.336 19.336 0 0 0-2.371 1.777 18.356 18.356 0 0 0-2.276 2.392c-1.446 1.801-2.703 4.051-3.627 6.634-.925 2.582-1.518 5.52-1.755 8.623-.237 3.127-.119 6.468.19 9.95.142 1.753.355 3.53.569 5.354.213 1.825.427 3.672.64 5.544 1.707 14.996 3.035 28.618 3.793 38.474.783 9.879.996 16.014.475 16.062-.522.047-1.684-5.97-3.13-15.754-1.446-9.785-3.201-23.359-4.908-38.356-.213-1.871-.427-3.743-.616-5.567a210.79 210.79 0 0 1-.522-5.472c-.261-3.601-.332-7.155.024-10.567.355-3.387 1.114-6.609 2.3-9.452 1.161-2.843 2.726-5.33 4.528-7.249a20.855 20.855 0 0 1 2.798-2.512c.948-.71 1.92-1.279 2.845-1.753 1.873-.924 3.628-1.398 5.05-1.587 1.446-.19 2.584-.118 3.319 0 .759.166 1.139.308 1.139.426z" fill="#4E678D"/><path d="M113.095 199.409c-.047-.118.308-.355 1.043-.639.19-.071.403-.119.617-.19.237-.071.498-.142.758-.213.285-.047.593-.095.925-.166.071-.024.166-.024.261-.047.095 0 .166-.024.261-.024.166-.024.355-.024.545-.047 1.494-.095 3.367.023 5.453.639 1.043.332 2.134.711 3.225 1.327.142.071.284.142.403.213.142.071.261.166.403.237.261.166.545.332.83.521.26.19.521.403.806.593l.213.142c.071.047.119.118.19.166.118.118.261.237.379.331.142.119.261.237.403.356.119.118.237.26.38.379.118.118.237.26.379.379l.19.189c.071.071.118.142.166.213.237.285.474.569.711.877l.64.924c.83 1.279 1.494 2.724 2.015 4.264.522 1.54.901 3.151 1.138 4.833.238 1.682.356 3.388.38 5.117.047 1.753 0 3.507-.048 5.283-.071 1.777-.118 3.578-.189 5.426-.143 3.695-.285 7.509-.451 11.395-.664 15.612-1.493 29.755-2.252 39.99-.783 10.234-1.518 16.536-2.039 16.512-.522-.024-.735-6.373-.64-16.631.094-10.258.474-24.401 1.161-40.037a1245.325 1245.325 0 0 1 .807-16.82c.094-1.754.166-3.459.166-5.118 0-1.634-.048-3.222-.214-4.738-.166-1.516-.427-2.961-.806-4.288a17.8 17.8 0 0 0-1.517-3.696c-.166-.284-.332-.544-.475-.805a15.338 15.338 0 0 1-.521-.758c-.048-.071-.095-.119-.142-.19l-.143-.165c-.095-.119-.189-.237-.284-.332a4.081 4.081 0 0 0-.285-.332l-.308-.308-.308-.308-.142-.142-.166-.142-.641-.569a15.06 15.06 0 0 1-.663-.497c-.119-.071-.214-.166-.332-.237a3.998 3.998 0 0 1-.332-.213c-.901-.593-1.826-1.019-2.703-1.398a17.643 17.643 0 0 0-4.79-1.161c-.166-.024-.332-.024-.497-.047-.072 0-.166-.024-.238-.024h-.237c-.308 0-.592-.024-.853-.024-.546.024-.996.024-1.352.024-.83.142-1.233.095-1.28-.024z" fill="#5E7FB3"/><path d="M133.675 225.493a8.415 8.415 0 0 1-.427-.948c-.735-1.895-1.019-3.932-1.66-5.851-2.086-6.278-8.274-10.969-14.889-11.277-3.059-.142-6.094.568-9.152.474-2.015-.048-4.126-.569-5.762-1.682 2.419-3.293 5.786-5.852 9.674-7.06 5.643-1.73 12.234-.379 16.431 3.79 5.714 5.639 6.022 14.499 5.785 22.554z" fill="#698CC2"/><path d="M154.943 149.185c-1.684 2.132-2.49 5.188-1.257 7.605.711 1.35 1.992 2.44 2.3 3.933.474 2.345-1.612 4.335-2.845 6.396-1.779 3.009-1.755 6.918-.237 10.069 1.517 3.15 4.41 5.519 7.681 6.751 3.272 1.209 6.9 1.327 10.338.664 2.561-.498 5.074-1.422 7.042-3.151 1.968-1.706 3.272-4.264 3.058-6.87-.355-4.383-4.742-7.629-5.05-12.012-.19-2.724 1.233-5.283 1.589-7.96.545-3.98-1.518-8.197-5.003-10.234-5.525-3.246-13.847.047-17.616 4.809z" fill="#1E202F"/><path d="M170.188 174.629c5.666 1.943 10.669 5.757 14.036 10.684 3.367 4.928 5.121 10.969 4.86 16.939-5.145-3.174-10.219-6.799-14.202-11.371-3.959-4.525-5.832-10.306-4.694-16.252z" fill="#F17785"/><path d="M220.215 191.497c-1.731.355-3.414 1.161-5.05 2.084-.261.048-.498.119-.782.19-.261.071-.546.142-.83.237-1.138.308-2.371.711-3.675 1.161-.64.237-1.328.497-2.016.758-.687.284-1.398.568-2.11.9-1.422.663-2.916 1.374-4.41 2.227l-1.138.64c-.379.213-.758.45-1.138.687l-1.138.71c-.379.261-.759.498-1.138.759-.356.236-.711.497-1.043.734-.356.261-.688.497-1.02.758-.332.237-.664.521-.996.782-.331.26-.64.521-.972.782-.047.047-.118.094-.166.142-.284-.521-.569-1.019-.829-1.516-.451-.806-.854-1.54-1.257-2.227-.403-.687-.806-1.327-1.162-1.896a11.587 11.587 0 0 0-.569-.805c-.189-.261-.355-.498-.545-.711a9.449 9.449 0 0 0-1.043-1.09c-.332-.284-.664-.497-.972-.616-.309-.118-.617-.142-.878-.071s-.521.261-.711.522c-.19.26-.356.616-.474 1.066a6.17 6.17 0 0 0-.19 1.587c0 .308 0 .616.024.971.024.332.047.687.118 1.066.095.758.285 1.564.522 2.417.237.853.545 1.777.925 2.724.758 1.895 1.825 3.933 3.2 5.994a3.453 3.453 0 0 0 5.24.805l.166-.142c.522-.45 1.043-.924 1.565-1.397.261-.237.545-.474.806-.711.285-.237.546-.498.83-.735l.854-.71c.284-.237.569-.498.877-.735.308-.237.593-.474.901-.734.308-.261.616-.498.925-.735.331-.26.64-.521.972-.758.332-.26.663-.497.972-.734.332-.237.64-.498.972-.734.332-.237.64-.474.972-.711 1.28-.924 2.537-1.777 3.746-2.606.616-.403 1.209-.782 1.778-1.161.593-.379 1.162-.734 1.707-1.09a165.787 165.787 0 0 1 3.13-1.895c.19-.118.379-.237.569-.332.237.095.451.142.664.19 1.304.237 2.632-.19 3.936-.664a37.47 37.47 0 0 0 7.445-3.814c-2.277-1.516-4.956-2.085-7.564-1.563z" fill="#F68895"/><path d="M150.438 173.302c6.069-.758 12.352.214 17.924 2.725-.948 3.008-1.683 6.017-2.632 9.026-3.603-.284-7.255-.047-10.811.592-.356-4.548-2.134-8.434-4.481-12.343z" fill="#3664AD"/><path d="M299.5 239.873a11.668 11.668 0 0 1 5.856 1.114c.783.379 1.542.852 2.371 1.113.83.284 1.802.332 2.561-.095.735-.426 1.162-1.232 1.541-1.99a31.905 31.905 0 0 0 2.774-9.784c.071-.545.119-1.09 0-1.635-.118-.545-.45-1.042-.948-1.279-.735-.332-1.636.071-2.158.687-.521.616-.806 1.398-1.138 2.132a9.624 9.624 0 0 1-4.671 4.525 9.58 9.58 0 0 1-6.496.45c.071 1.445.213 3.293.308 4.762z" fill="url(#paint5_linear)"/><path d="M164.735 177.519a40.843 40.843 0 0 1-.119 5.639c1.707 1.303 3.604 2.108 5.762 2.061 2.157-.048 4.291-.806 5.951-2.18a41.75 41.75 0 0 1-3.652-7.368 46.321 46.321 0 0 1-1.351-4.24l-.142-.498a44.637 44.637 0 0 1-.664-3.103c-2.466-1.943-5.477-2.962-8.488-3.838a47.13 47.13 0 0 1 1.517 5.022c.664 2.772 1.043 5.615 1.186 8.482v.023z" fill="#F68895"/><path d="M162.055 163.968a46.99 46.99 0 0 1 1.518 5.023c.664 2.771 1.043 5.614 1.185 8.481v.024a20.176 20.176 0 0 1 1.921-3.009c1.209-1.54 2.75-2.867 4.552-3.577a45.253 45.253 0 0 1-.664-3.104c-2.489-1.919-5.5-2.961-8.512-3.838z" fill="#F17785"/><path d="M161.866 163.731c.261.664.545 1.303.735 1.99.071.261.142.498.189.758.095.095.166.19.261.285 1.47 1.634 3.343 3.008 5.501 3.387 2.157.379 4.623-.45 5.714-2.369.996-1.753.64-4.003-.214-5.851-.853-1.848-2.133-3.435-3.058-5.236-.474-.9-.83-1.919-.972-2.914-.119-.829-.095-1.658.142-2.44-.616.758-1.399 1.422-2.205 1.966-1.399.948-2.94 1.706-4.268 2.772-1.327 1.066-2.442 2.535-2.56 4.241-.095 1.184.308 2.321.735 3.411z" fill="#F68895"/><path d="M190.649 217.154c-.095.142-3.224 5.046-17.853 4.833-1.375-5.899-4.007-11.633-7.801-16.608-1.09-1.421-2.276-2.795-3.39-4.193-1.47-1.824-2.845-3.696-3.817-5.757-1.731-3.648-1.921-8.22.948-11.229 1.257-1.327 3.011-2.203 4.884-2.724.783-.214 1.589-.38 2.419-.474 2.75-.332 5.145.237 7.919.166.758-.024 1.541.023 2.276.118 1.28.166 2.774.971 4.291 2.108 5.88 4.36 9.034 11.49 8.536 18.787-.309 4.193-.119 9.595 1.588 14.973z" fill="url(#paint6_linear)"/><path d="M163.597 181.476c1.778 3.008 4.552 5.448 7.776 6.775.996.427 2.063.734 3.154.711 1.09-.024 2.181-.427 2.892-1.256.973-1.184.925-2.961.285-4.335-.356-.782-.877-1.445-1.446-2.085a14.597 14.597 0 0 0-2.276-.118c-2.775.071-5.169-.498-7.92-.166-.877.094-1.683.26-2.465.474z" fill="#F68895"/><path d="M301.065 234.59c-2.11-.095-5.003-.237-6.71-.332-1.399-.071-2.869-.142-4.41-.237-.759-.023-1.541-.094-2.347-.142-.474-.023-.948-.071-1.423-.094l-.995-.072c-.83-.047-1.66-.118-2.514-.165-.426-.024-.853-.048-1.28-.095-.427-.048-.854-.071-1.304-.119-1.755-.142-3.533-.308-5.358-.45-.925-.071-1.85-.166-2.774-.26-.949-.095-1.897-.19-2.869-.285-.403-.639-.83-1.326-1.304-2.061-.569-.876-1.162-1.824-1.802-2.795-.64-.971-1.304-2.038-2.016-3.127-.237-.356-.45-.687-.687-1.043-.498-.782-.972-1.563-1.494-2.393-.379-.592-.735-1.208-1.138-1.847-.379-.616-.759-1.256-1.162-1.919-.379-.664-.782-1.327-1.161-1.99-.19-.332-.404-.687-.593-1.019-.19-.355-.38-.687-.593-1.042a84.65 84.65 0 0 1-1.209-2.133c-.403-.734-.783-1.468-1.186-2.203-.403-.734-.806-1.516-1.209-2.274-.403-.782-.83-1.54-1.209-2.346-.403-.781-.782-1.587-1.186-2.392-.379-.806-.758-1.635-1.161-2.464a162.553 162.553 0 0 1-4.41-10.448l-1.992-5.212s-.024 0-.047.024l-2.514.663c-8.156 2.322-34.047 10.993-50.809 31.201l-.048.047c-1.636 2.061-6.141 5.923-17.379 6.444 0 0-4.6 8.41 4.244 13.765.024.023 11.167 2.321 25.251 4.288 2.964.402 6.117.829 9.46 1.208 20.77 2.44 48.249 4.169 74.685 1.232a208.89 208.89 0 0 0 15.032-2.227 2.823 2.823 0 0 0 2.3-2.796v-.071a2.815 2.815 0 0 0-2.679-2.819zm-43.815-3.601a246.398 246.398 0 0 0-6.189-.782c-2.086-.308-4.125-.592-6.164-.876-.498-.071-1.02-.142-1.518-.214-.497-.071-.995-.165-1.493-.236-.996-.143-1.992-.285-2.964-.451-.972-.142-1.944-.26-2.916-.402-.949-.142-1.897-.308-2.845-.45-.949-.143-1.873-.285-2.774-.403-.925-.142-1.826-.237-2.727-.403a164.866 164.866 0 0 0-5.24-.758c-.427-.047-.853-.118-1.28-.166-.427-.071-.83-.118-1.257-.189-.83-.119-1.636-.237-2.442-.356a96.014 96.014 0 0 0-2.371-.308c-.782-.094-1.541-.166-2.3-.26-1.493-.19-2.94-.356-4.315-.474-1.375-.119-2.703-.213-3.959-.308.379-.261.758-.521 1.138-.806.521-.355 1.043-.71 1.565-1.089.521-.379 1.043-.782 1.588-1.185.545-.403 1.091-.805 1.66-1.232 1.09-.876 2.276-1.729 3.438-2.677.592-.474 1.209-.924 1.802-1.398.616-.473 1.232-.971 1.873-1.468.64-.474 1.28-.972 1.944-1.493.332-.261.64-.521.972-.782.332-.26.664-.497 1.019-.758 2.68-2.085 5.572-4.193 8.631-6.373.758-.545 1.541-1.066 2.323-1.611.806-.521 1.613-1.066 2.419-1.611.213-.142.403-.284.616-.402 0 0 7.066 15.02 20.651 28.405a52.894 52.894 0 0 0 1.66 1.587 10.878 10.878 0 0 0-.545-.071z" fill="#1E417A"/><path opacity=".5" d="M269.104 232.339c-7.397-.45-11.238-1.255-11.238-1.255-.569-.521-1.114-1.066-1.66-1.587 4.742-.759 6.544-3.483 7.113-6.184.214.356.451.711.688 1.043.711 1.089 1.351 2.155 2.015 3.127.64.971 1.233 1.942 1.802 2.795.427.711.854 1.398 1.28 2.061z" fill="#061F49"/><path d="M169.856 164.418c.901-.26 1.754-.687 2.466-1.303a.277.277 0 0 1 .45.142c.142.498.119 1.019-.166 1.469a2.021 2.021 0 0 1-1.707.972c-.545.023-.901-.403-1.233-.853-.095-.143-.023-.379.19-.427z" fill="#F9DEE4"/><path d="M151.813 172.023c-.071.877-.356 2.156-1.233 2.724l-.759.285-3.319-.024a20.87 20.87 0 0 1-6.426-1.635 30.2 30.2 0 0 1-1.256-.592l1.162-.497 6.235-2.583 5.145 1.232.451.119c.023 0 .047.402 0 .971z" fill="#311649"/><path d="M190.72 284.672a13.9 13.9 0 0 1 .949 6.942c-.119 1.018-.38 2.037-.356 3.079 0 1.043.308 2.133 1.067 2.82.759.663 1.802.852 2.822.971 4.006.45 8.061.237 11.997-.592.64-.143 1.28-.285 1.825-.616.546-.332.996-.901 1.067-1.54.095-.948-.687-1.801-1.588-2.156-.878-.355-1.873-.355-2.822-.474-2.584-.332-5.05-1.611-6.828-3.53-1.778-1.919-2.822-4.477-2.94-7.083-1.589.639-3.604 1.516-5.193 2.179z" fill="url(#paint7_linear)"/><path d="M226.071 283.819c.712 2.251.83 4.691.332 7.013-.213 1.018-.545 2.013-.64 3.032-.095 1.043.119 2.156.806 2.914.688.735 1.731 1.019 2.727 1.208 3.936.806 8.014.972 11.997.498.64-.071 1.304-.166 1.873-.45.569-.285 1.091-.806 1.209-1.422.19-.947-.521-1.848-1.375-2.298-.853-.426-1.825-.521-2.774-.734a11.362 11.362 0 0 1-6.473-4.122 11.142 11.142 0 0 1-2.276-7.321c-1.659.498-3.77 1.161-5.406 1.682z" fill="url(#paint8_linear)"/><path d="M237.191 282.777a5.981 5.981 0 0 1-5.524 5.686 25.88 25.88 0 0 1-6.046-.285c-2.94-.497-5.098-3.079-4.979-6.064.19-5.923.142-11.869-1.067-17.65-1.541-7.297-5.192-14.404-11.357-18.621-4.813-3.293-10.622-4.477-16.525-4.359.711 1.801 1.28 3.648 1.801 5.473 3.604 12.248 5.809 22.056 9.318 34.351a5.041 5.041 0 0 1-3.129 6.136c-3.486 1.279-7.137 1.919-10.836 1.8a5.04 5.04 0 0 1-4.813-4.501c-1.564-14.475-4.836-26.415-11.854-39.113-7.754-.782-15.507-1.587-23.26-2.369-3.272-.332-6.662-.711-9.46-2.464-2.56-1.611-4.362-4.359-4.837-7.344-.331-2.037-.023-4.17.83-6.065a76.34 76.34 0 0 0 8.133.427c11.025 0 21.267-2.298 29.826-6.255 0-.023-.023-.071-.023-.095 12.779 2.796 27.361 6.018 39.903 8.766 5.524 1.208 11.357 2.582 15.316 6.61 3.462 3.53 4.885 8.505 5.928 13.338 2.252 10.613 3.13 21.7 2.655 32.598z" fill="#0063FF"/><path d="M136.496 156.34a18.349 18.349 0 0 1-3.888-6.041c-.569-1.469-.901-3.27.071-4.502.711-.876 1.897-1.208 2.987-1.468 1.66-.403 3.344-.83 5.003-1.232-1.778 1.563-3.058 3.459-3.509 5.804a10.835 10.835 0 0 0 .972 6.894c-.474.189-1.185.332-1.636.545z" fill="#1E202F"/><path d="M173.389 221.537c-8.559 3.956-18.802 6.254-29.827 6.254-3.248 0-6.425-.19-9.508-.592-.308-1.517-1.28-6.373-1.659-8.316a178.383 178.383 0 0 1-1.423-8.742c-.782-5.638-1.304-11.727-1.043-17.246 0-.095 0-.214.024-.308l-.38.142-5.216 1.99c-.83-.427-1.588-.901-2.252-1.445-.143-.119-.285-.214-.403-.332-.071-.047-.119-.119-.19-.166a1.226 1.226 0 0 0-.19-.166c-.569-.521-1.043-1.09-1.493-1.682-.048-.071-.095-.118-.143-.189a9.01 9.01 0 0 1-.403-.593c-.047-.071-.095-.142-.118-.189-.048-.071-.071-.142-.119-.19-.166-.26-.308-.545-.45-.805-.048-.071-.071-.142-.095-.213a6.245 6.245 0 0 1-.19-.403c-.024-.071-.071-.142-.095-.213-.071-.142-.118-.285-.166-.403-.047-.142-.118-.261-.166-.403-.094-.26-.189-.545-.284-.805a1.916 1.916 0 0 0-.071-.19 12.347 12.347 0 0 1-.308-1.184c-.024-.071-.024-.119-.048-.19-.071-.332-.142-.64-.19-.947-.023-.095-.023-.19-.047-.285 0-.047-.024-.071-.024-.118-.023-.071-.023-.166-.023-.237v-.024c-.024-.118-.024-.213-.048-.331a15.225 15.225 0 0 1-.095-.901v-.071c0-.071 0-.166-.023-.237v-.284c10.74-6.752 19.845-6.752 22.524-6.562.308.023.521.047.64.071.047-.024.095-.024.119-.048.047-.023.118-.047.165-.071.119-.047.214-.071.332-.118.024 0 .048-.024.048-.024.118-.024.213-.071.332-.095.189-.071.379-.118.569-.189.118-.048.237-.071.379-.119.237-.071.498-.142.735-.213.237-.071.498-.118.759-.189.379-.095.759-.166 1.138-.261.284-.047.545-.095.83-.166.237-.047.474-.071.711-.118.356-.048.735-.095 1.091-.142.095 0 .189-.024.284-.024 1.66-.19 3.296-.237 4.908-.166 0 0 1.067.142 3.035 2.582 3.462 4.288 9.768 15.684 18.067 45.866z" fill="#3664AD"/><path d="M151.813 172.023c-.071.877-.356 2.156-1.233 2.725l-.759.284-3.319-.024a20.836 20.836 0 0 1-6.425-1.635l-.072-1.066a269.84 269.84 0 0 0-.521-6.135c-.237-2.678-.498-5.331-.759-8.008 3.248.711 6.331 1.777 9.508 3.151.45 1.729.948 3.459 1.517 5.164a82.52 82.52 0 0 0 1.541 4.265 1.8 1.8 0 0 0 .071.189c.166.379.309.735.451 1.09z" fill="#F68895"/><path d="M151.315 170.744a45.873 45.873 0 0 0-11.808-4.572c-.237-2.678-.497-5.331-.758-8.008 3.248.711 6.33 1.777 9.507 3.151a80.512 80.512 0 0 0 1.518 5.164 64.898 64.898 0 0 0 1.541 4.265z" fill="#F17785"/><path d="M149.11 147.029c1.375 2.014 1.589 4.762.522 6.942-1.447-1.327-2.608-3.056-3.343-4.881-.19-.497-.356-1.066-.095-1.516.261-.45.806-.616 1.304-.663.498-.024 1.138.355 1.612.118z" fill="#311649"/><path d="M147.379 146.887c.119 2.654 1.873 4.928 3.438 7.084 1.565 2.156 3.106 4.667 2.727 7.296-.403 2.749-3.012 4.857-5.762 5.118-2.75.26-5.524-1.114-7.326-3.199-1.826-2.084-2.774-4.809-3.201-7.557-.403-2.748-.284-5.52-.166-8.292 2.845-2.44 6.947-2.155 10.29-.45z" fill="#F68895"/><path d="M138.109 156.269c-.403-.261-.854-.521-1.328-.64-.474-.118-.996-.095-1.423.142-.545.332-.829.972-.877 1.611-.095 1.208.617 2.44 1.707 2.985 1.091.545 2.513.332 3.414-.474-.663-1.16-1.09-2.345-1.493-3.624z" fill="#F68895"/><path d="M135.738 145.537c2.063.071 4.007-1.635 4.22-3.696.142-1.398-.45-2.819-.095-4.169.522-2.014 3.011-2.985 5.027-2.512 2.015.474 3.627 1.99 4.979 3.554 1.47 1.706 2.845 3.814 2.513 6.041-.403 2.653-3.225 4.383-5.904 4.501-2.679.119-5.24-.995-7.705-2.084 1.398 1.326 1.849 3.529 1.73 5.425-.094 1.919-1.09 3.767-2.608 4.927-2.465-3.198-2.75-8.007-2.157-11.987z" fill="#1E202F"/><path d="M163.193 229.118c0-.143.641-.285 1.779-.403 1.161-.119 2.821-.213 4.907-.19.261 0 .522 0 .807.024.26 0 .545.024.829.047.285.024.569.024.878.048l.901.071c.616.047 1.256.142 1.896.213.332.047.664.118.996.166.332.071.688.118 1.02.189.332.071.687.166 1.043.237.356.095.688.19 1.043.308.166.048.356.095.546.166.165.071.355.119.521.19.19.071.356.118.545.189.19.071.356.119.546.213.355.166.711.308 1.067.474.355.166.711.379 1.067.545.355.19.687.403 1.043.616.166.118.356.213.521.332.166.094.332.237.498.379.332.26.664.497.972.758.309.284.617.545.901.829.285.284.546.592.83.877.071.071.143.142.19.213l.19.237c.118.142.237.308.379.45a22.535 22.535 0 0 1 2.395 3.743c.166.308.308.64.45.924.071.166.142.308.214.45.071.142.118.308.189.45.119.308.261.616.38.9.118.308.213.593.331.877.119.284.214.569.285.853.095.284.19.568.261.829.166.545.308 1.066.45 1.587.522 2.014.806 3.672.972 4.809.166 1.138.166 1.801.024 1.825-.142.023-.427-.545-.83-1.635-.403-1.09-.924-2.653-1.612-4.572-.166-.474-.356-.972-.545-1.493-.095-.26-.214-.521-.309-.782a11.38 11.38 0 0 0-.331-.805 27.142 27.142 0 0 1-.356-.829c-.142-.285-.261-.545-.403-.829a56.66 56.66 0 0 0-.214-.427l-.213-.426a14.295 14.295 0 0 0-.45-.853 22.99 22.99 0 0 0-2.3-3.364c-.119-.142-.237-.261-.332-.403l-.166-.213c-.048-.071-.119-.119-.19-.19-.237-.26-.498-.521-.735-.758-.261-.237-.545-.474-.806-.711-.284-.236-.569-.45-.854-.663-.142-.118-.284-.237-.45-.332-.142-.094-.308-.189-.45-.308-.309-.189-.593-.402-.925-.568-.308-.166-.617-.356-.949-.521-.331-.142-.64-.308-.972-.45-.166-.072-.332-.143-.474-.214-.166-.071-.332-.118-.498-.189-.166-.071-.332-.119-.474-.19a4.038 4.038 0 0 1-.498-.166c-.332-.094-.64-.213-.972-.308-.332-.094-.64-.165-.972-.26-.308-.095-.64-.166-.948-.237l-.925-.213c-.617-.119-1.209-.237-1.802-.308l-.854-.142c-.284-.048-.569-.071-.829-.119-.285-.024-.546-.071-.807-.095l-.782-.071c-2.015-.213-3.675-.355-4.813-.473-1.209-.024-1.826-.166-1.826-.308z" fill="#4D91FD"/><path d="M136.046 208.507c-.237.284-.64.45-1.186.45a4.38 4.38 0 0 1-.924-.095 5.969 5.969 0 0 1-.546-.118 21.923 21.923 0 0 0-.592-.143 13.254 13.254 0 0 1-1.328-.402 27.444 27.444 0 0 1-1.517-.498c-.546-.189-1.115-.355-1.708-.568-.592-.19-1.256-.379-1.92-.593-1.351-.379-2.821-.781-4.41-1.066-1.589-.331-3.296-.521-5.074-.639l-1.351-.071h-1.375c-.475 0-.925.047-1.399.047-.475 0-.949.071-1.423.095l-.711.071c-.237.023-.474.071-.711.095-.238.023-.475.071-.712.094l-.355.048-.356.071-.711.142-.356.071-.19.047h-.166c-.166.024-.355.024-.521.048a1.98 1.98 0 0 1-.522 0c-.19 0-.356-.024-.545-.048a8.751 8.751 0 0 1-1.091-.213c-.355-.095-.711-.26-1.067-.426-.355-.166-.664-.379-.972-.593a6.697 6.697 0 0 1-2.49-3.53 7.003 7.003 0 0 1-.284-2.226 9.31 9.31 0 0 1 .142-1.138c.095-.379.19-.758.332-1.113.143-.355.309-.687.498-.995.095-.142.19-.308.285-.45l.166-.213.118-.143.308-.402c.214-.261.427-.545.641-.806.213-.26.426-.545.64-.782l1.328-1.468c.45-.474.924-.924 1.375-1.351.118-.118.237-.213.355-.331l.356-.308c.237-.214.474-.403.711-.616.237-.214.474-.403.712-.616l.711-.569c.237-.189.474-.355.711-.545.237-.189.474-.355.711-.521.475-.332.972-.663 1.423-.971 1.92-1.209 3.817-2.275 5.643-3.033.024-.023.071-.023.095-.047l.071.758c0 .095.024.213.047.332v.023c0 .071.024.143.024.237 0 .048 0 .071.024.119.023.095.023.189.047.284.048.308.119.64.19.948.023.071.023.118.047.189.095.379.19.782.308 1.185l.072.213c.071.261.166.545.284.805.047.143.095.285.166.403.047.142.119.284.166.403.024.071.071.142.095.213.071.142.118.284.19.403.023.071.071.142.094.213.143.284.285.545.451.806.047.071.071.142.118.189.048.071.072.142.119.213.118.19.261.403.403.593.047.071.095.142.142.189.427.592.925 1.137 1.494 1.682.071.071.119.119.19.166.071.047.142.118.189.166.143.118.261.237.403.331.214.166.427.308.641.474-.261.119-.498.237-.759.356l-1.067.497c-.356.19-.711.356-1.091.521-.189.095-.379.166-.569.261-.189.095-.355.189-.545.284-.285.142-.593.308-.877.45.142.024.26.071.403.095.261.071.545.119.806.19l.782.213c.261.071.522.142.759.213.261.071.498.142.759.237.498.166.972.332 1.446.497.119.048.237.072.356.119l.355.142c.237.095.451.19.688.261.901.355 1.754.758 2.584 1.137.403.189.783.403 1.186.616.379.213.758.403 1.114.592.356.213.688.427 1.02.64.165.094.331.213.497.308.166.094.309.213.475.308.308.213.592.426.877.639.284.214.545.403.806.616.498.427.948.829 1.351 1.209.404.402.735.781 1.02 1.137.142.189.284.355.403.521.119.166.213.355.308.497.19.332.308.616.403.901.048.663.024 1.089-.213 1.374z" fill="#F7929E"/><path d="M129.81 201.85c3.462 1.042 6.497 3.411 8.322 6.515.925 1.563 1.542 3.601.617 5.188-.664 1.137-1.968 1.729-3.201 2.227-1.138.474-2.489.924-3.509.26-1.233-.781-1.138-2.558-1.138-4.027 0-2.511-.688-5.023-1.968-7.155.356-1.161.545-1.871.877-3.008z" fill="#F7929E"/><path d="M138.82 172.805c-.664.853-1.826 1.516-2.774 2.061 1.043 2.203 3.106 3.814 5.358 4.738 2.253.924 4.718 1.208 7.137 1.374.071-1.99.474-4.051 1.256-5.899-3.769.237-7.61-.545-10.977-2.274zm16.004-.829l-2.988-.924s.261 3.648-2.039 4.003c0 0 3.818 1.469 4.647 4.833.024 0 2.466-3.506.38-7.912z" fill="#1C427E"/><path d="M151.173 158.164c.118 0 .261.332.19.9a2.316 2.316 0 0 1-.38.924 2.626 2.626 0 0 1-.925.829 2.594 2.594 0 0 1-1.232.285 2.35 2.35 0 0 1-.973-.214c-.521-.26-.711-.568-.64-.663.071-.095.38 0 .806.071.427.071 1.067.048 1.613-.237.545-.284.924-.781 1.114-1.184.237-.403.308-.711.427-.711z" fill="#ED5D71"/><path d="M435.807 145.561H310.335v83.272h125.472v-83.272z" fill="#323658"/><path d="M442.991 228.833v-83.272H317.52v83.272h59.7v8.647h-11.949a5.463 5.463 0 0 0-5.477 5.473h40.899a5.463 5.463 0 0 0-5.477-5.473h-11.95v-8.647h59.725z" fill="#1E202F"/><path d="M454.016 242.953H299.453v55.152h154.563v-55.152z" fill="#A1BAE1"/><path d="M461.2 242.953H306.637v55.152H461.2v-55.152z" fill="#86A4D4"/><mask id="d" maskUnits="userSpaceOnUse" x="402" y="213" width="95" height="76"><path d="M463.571 288.486a118.25 118.25 0 0 1-18.541-1.445c-6.331-.995-14.273-2.866-19.395-8.481-4.955-5.425-6.022-13.006-6.046-18.408 0-3.838.427-7.675.854-11.371.284-2.511.593-5.117.735-7.676.45-7.557-.664-13.409-3.391-17.839-2.916-4.738-9.009-8.671-15.008-7.036l-.545-1.967c6.971-1.895 13.965 2.559 17.284 7.937 2.964 4.809 4.173 11.016 3.699 19.023-.166 2.606-.451 5.236-.759 7.795-.427 3.648-.853 7.439-.853 11.134.023 5.046.972 12.083 5.5 17.034 4.695 5.164 12.211 6.894 18.209 7.841 16.644 2.606 34.024 1.588 50.241-2.961l.545 1.966c-10.527 2.962-21.528 4.454-32.529 4.454z" fill="url(#paint9_linear)"/></mask><g mask="url(#d)"><path d="M463.571 288.486a118.25 118.25 0 0 1-18.541-1.445c-6.331-.995-14.273-2.866-19.395-8.481-4.955-5.425-6.022-13.006-6.046-18.408 0-3.838.427-7.675.854-11.371.284-2.511.593-5.117.735-7.676.45-7.557-.664-13.409-3.391-17.839-2.916-4.738-9.009-8.671-15.008-7.036l-.545-1.967c6.971-1.895 13.965 2.559 17.284 7.937 2.964 4.809 4.173 11.016 3.699 19.023-.166 2.606-.451 5.236-.759 7.795-.427 3.648-.853 7.439-.853 11.134.023 5.046.972 12.083 5.5 17.034 4.695 5.164 12.211 6.894 18.209 7.841 16.644 2.606 34.024 1.588 50.241-2.961l.545 1.966c-10.527 2.962-21.528 4.454-32.529 4.454z" fill="url(#paint10_linear)"/></g><defs><linearGradient id="paint0_linear" x1="57.496" y1="259.249" x2="60.366" y2="70.252" gradientUnits="userSpaceOnUse"><stop stop-color="#86A4D4"/><stop offset="1" stop-color="#A1BAE1"/></linearGradient><linearGradient id="paint1_linear" x1="51.45" y1="229.218" x2="43.414" y2="87.326" gradientUnits="userSpaceOnUse"><stop/><stop offset=".03" stop-color="#181818"/><stop offset=".097" stop-color="#484848"/><stop offset=".169" stop-color="#747474"/><stop offset=".246" stop-color="#999"/><stop offset=".327" stop-color="#B9B9B9"/><stop offset=".415" stop-color="#D3D3D3"/><stop offset=".512" stop-color="#E6E6E6"/><stop offset=".624" stop-color="#F4F4F4"/><stop offset=".76" stop-color="#FDFDFD"/><stop offset="1" stop-color="#fff"/></linearGradient><linearGradient id="paint2_linear" x1="55.871" y1="231.775" x2="16.533" y2="170.854" gradientUnits="userSpaceOnUse"><stop/><stop offset=".119" stop-color="#393939"/><stop offset=".244" stop-color="#6D6D6D"/><stop offset=".371" stop-color="#9A9A9A"/><stop offset=".498" stop-color="#BEBEBE"/><stop offset=".624" stop-color="#DBDBDB"/><stop offset=".75" stop-color="#EFEFEF"/><stop offset=".876" stop-color="#FBFBFB"/><stop offset="1" stop-color="#fff"/></linearGradient><linearGradient id="paint3_linear" x1="55.771" y1="223.321" x2="90.509" y2="155.225" gradientUnits="userSpaceOnUse"><stop/><stop offset=".119" stop-color="#393939"/><stop offset=".244" stop-color="#6D6D6D"/><stop offset=".371" stop-color="#9A9A9A"/><stop offset=".498" stop-color="#BEBEBE"/><stop offset=".624" stop-color="#DBDBDB"/><stop offset=".75" stop-color="#EFEFEF"/><stop offset=".876" stop-color="#FBFBFB"/><stop offset="1" stop-color="#fff"/></linearGradient><linearGradient id="paint4_linear" x1="38.119" y1="302.983" x2="94.358" y2="247.923" gradientUnits="userSpaceOnUse"><stop stop-color="#86A4D5"/></linearGradient><linearGradient id="paint5_linear" x1="304.412" y1="241.405" x2="309.261" y2="225.934" gradientUnits="userSpaceOnUse"><stop stop-color="#F17785"/><stop offset=".101" stop-color="#F27B89"/><stop offset=".5" stop-color="#F58592"/><stop offset="1" stop-color="#F68895"/></linearGradient><linearGradient id="paint6_linear" x1="197.756" y1="225.534" x2="156.623" y2="180.385" gradientUnits="userSpaceOnUse"><stop stop-color="#C5205C"/><stop offset=".063" stop-color="#D0275F"/><stop offset=".212" stop-color="#E33465"/><stop offset=".385" stop-color="#F13D69"/><stop offset=".601" stop-color="#F9426B"/><stop offset="1" stop-color="#FB446C"/></linearGradient><linearGradient id="paint7_linear" x1="190.842" y1="290.74" x2="209.991" y2="290.347" gradientUnits="userSpaceOnUse"><stop stop-color="#F17785"/><stop offset=".101" stop-color="#F27B89"/><stop offset=".5" stop-color="#F58592"/><stop offset="1" stop-color="#F68895"/></linearGradient><linearGradient id="paint8_linear" x1="225.647" y1="289.874" x2="244.753" y2="291.215" gradientUnits="userSpaceOnUse"><stop stop-color="#F17785"/><stop offset=".101" stop-color="#F27B89"/><stop offset=".5" stop-color="#F58592"/><stop offset="1" stop-color="#F68895"/></linearGradient><linearGradient id="paint9_linear" x1="402.258" y1="251.157" x2="496.123" y2="251.157" gradientUnits="userSpaceOnUse"><stop stop-color="#fff"/><stop offset=".319" stop-color="#FDFDFD"/><stop offset=".434" stop-color="#F6F6F6"/><stop offset=".516" stop-color="#EBEBEB"/><stop offset=".583" stop-color="#DADADA"/><stop offset=".639" stop-color="#C4C4C4"/><stop offset=".69" stop-color="#A8A8A8"/><stop offset=".735" stop-color="#888"/><stop offset=".777" stop-color="#626262"/><stop offset=".816" stop-color="#373737"/><stop offset=".851" stop-color="#090909"/><stop offset=".857"/></linearGradient><linearGradient id="paint10_linear" x1="402.258" y1="251.157" x2="496.123" y2="251.157" gradientUnits="userSpaceOnUse"><stop stop-color="#323658"/><stop offset=".917" stop-color="#D0DBED"/></linearGradient></defs></svg>