<svg width="92" height="74" fill="none" xmlns="http://www.w3.org/2000/svg"><rect x="27" y="13.471" width="38" height="39" rx="6" fill="#3664AD"/><path d="M52.638 30.646l1.023-1.72-1.023 1.72zm-10.277-6.112l-1.022 1.72 1.022-1.72zm0 16.932l1.022 1.719-1.022-1.72zm10.277-6.111l-1.022-1.72 1.022 1.72zm1.023-6.428l-10.278-6.112-2.044 3.438 10.277 6.112 2.044-3.439zM43.383 43.184l10.277-6.111-2.044-3.438-10.277 6.11 2.044 3.439zm8.233-10.82c.512.304.512.966 0 1.27l2.044 3.439a4.716 4.716 0 0 0 0-8.147l-2.044 3.438zM40 26.889c0-.267.137-.503.416-.654a.919.919 0 0 1 .923.018l2.044-3.438C40.246 20.95 36 23.057 36 26.89h4zM36 39.11c0 3.833 4.246 5.939 7.383 4.074l-2.044-3.438a.919.919 0 0 1-.923.018c-.28-.15-.416-.387-.416-.654h-4zm4 0V26.89h-4v12.22h4z" fill="#D0DBED"/><path d="M15.655 69.706a2 2 0 1 0 0 4v-4zm60.69 4a2 2 0 1 0 0-4v4zm-60.69 0h60.69v-4h-60.69v4zM8.07 4.588h75.862v-4H8.069v4zM88 8.872v50.267h4V8.871h-4zm-4.069 54.55H8.069v4h75.862v-4zM4 59.139V8.871H0v50.267h4zm4.069 4.283C5.887 63.422 4 61.57 4 59.139H0c0 4.508 3.548 8.283 8.069 8.283v-4zM88 59.139c0 2.431-1.887 4.283-4.069 4.283v4c4.521 0 8.069-3.775 8.069-8.283h-4zm-4.069-54.55C86.113 4.588 88 6.44 88 8.871h4c0-4.51-3.548-8.284-8.069-8.284v4zm-75.862-4C3.548.588 0 4.362 0 8.871h4C4 6.44 5.887 4.588 8.069 4.588v-4z" fill="#1E202F"/></svg>