<svg width="402" height="520" fill="none" xmlns="http://www.w3.org/2000/svg"><g clip-path="url(#clip0)" fill="#3664AD"><path d="M178.4 229.6c-45 0-81.6 36.6-81.6 81.6 0 45 36.6 81.6 81.6 81.6 45 0 81.6-36.6 81.6-81.6 0-45-36.6-81.6-81.6-81.6zm0 160.1c-43.3 0-78.5-35.2-78.5-78.5s35.2-78.5 78.5-78.5 78.5 35.2 78.5 78.5-35.2 78.5-78.5 78.5zM17.9 490c-.7-.4-1.7-.2-2.1.6L.2 517.5c-.4.7-.2 1.7.6 2.1.2.1.5.2.8.2.5 0 1.1-.3 1.3-.8l15.5-26.9c.5-.7.2-1.7-.5-2.1z"/><path d="M104.7 339.5c-.7-.4-1.7-.2-2.1.6L28.8 467.9c-.4.7-.2 1.7.6 2.1.2.1.5.2.8.2.5 0 1.1-.3 1.3-.8l73.8-127.8c.4-.7.2-1.7-.6-2.1zm-19.1 89c-.7-.4-1.7-.2-2.1.6L77 440.3c-.4.7-.2 1.7.6 2.1.2.1.5.2.8.2.5 0 1.1-.3 1.3-.8l6.5-11.2c.4-.8.1-1.7-.6-2.1zm36.2-62.8c-.7-.4-1.7-.2-2.1.6l-30.8 53.3c-.4.7-.2 1.7.6 2.1.2.1.5.2.8.2.5 0 1.1-.3 1.3-.8l30.8-53.3c.4-.7.1-1.6-.6-2.1zM400.3.2c-.7-.4-1.7-.2-2.1.6l-23.3 40.4c-.4.7-.2 1.7.6 2.1.2.1.5.2.8.2.5 0 1.1-.3 1.3-.8l23.3-40.4c.4-.7.1-1.7-.6-2.1zm-43 74.5c-.7-.4-1.7-.2-2.1.6L244.4 267.1c-.4.7-.2 1.7.6 2.1.2.1.5.2.8.2.5 0 1.1-.3 1.3-.8L357.8 76.8c.5-.7.2-1.7-.5-2.1z"/><path fill-rule="evenodd" clip-rule="evenodd" d="M179.158 359.206c13.315 0 24.965-5.684 33.842-14.211l-8.322-8.527c-6.657 6.821-14.979 10.801-24.966 10.801-19.417 0-34.952-16.486-34.952-36.382 0-19.896 16.089-35.812 34.952-35.812 9.987 0 18.863 3.979 24.966 10.8l8.322-8.527C204.123 267.685 192.473 262 179.158 262 153.082 262 132 283.601 132 310.319c0 27.286 21.082 48.887 47.158 48.887z"/><path fill-rule="evenodd" clip-rule="evenodd" d="M179.713 298.381c3.328 0 6.102 1.137 8.321 3.41l-8.321 8.527 8.321 8.527c-2.219 2.274-4.993 3.411-8.321 3.411-6.658 0-12.206-5.685-12.206-12.506 0-6.253 5.548-11.369 12.206-11.369z"/></g><defs><clipPath id="clip0"><path fill="#fff" d="M0 0h401.1v519.8H0z"/></clipPath></defs></svg>