<svg width="104" height="170" fill="none" xmlns="http://www.w3.org/2000/svg"><path d="M87.31 0c-8.748 0-16.038 7.29-16.038 16.038 0 8.747 7.29 16.037 16.038 16.037 8.748 0 16.038-7.29 16.038-16.037C103.348 7.29 96.058 0 87.31 0zm0 29.743a13.69 13.69 0 0 1-13.705-13.705A13.69 13.69 0 0 1 87.31 2.333a13.69 13.69 0 0 1 13.706 13.705A13.69 13.69 0 0 1 87.31 29.743zM13.826 146.964c-.583-.292-1.166 0-1.458.292L.121 168.25c-.292.584 0 1.167.291 1.458.292 0 .292.292.584.292.291 0 .874-.292.874-.583l12.248-20.995c.583-.583.291-1.166-.292-1.458z" fill="#3664AD"/><path d="M82.061 28.868c-.583-.291-1.166 0-1.458.292L22.574 129.468c-.291.584 0 1.167.292 1.458.291 0 .291.292.583.292s.875-.292.875-.583L82.353 30.326c.583-.583.291-1.166-.292-1.458zM37.154 88.645c-.583-.292-1.166 0-1.458.291L28.99 100.6c-.291.584 0 1.167.292 1.458.292 0 .292.292.583.292.292 0 .875-.292.875-.583l6.707-11.664c.292-.583.292-1.166-.292-1.458zm37.909-65.901c-.583-.291-1.166 0-1.458.292L41.237 79.022c-.292.583 0 1.166.292 1.458.291 0 .291.292.583.292.291 0 .875-.292.875-.584l32.368-55.986c.583-.291.291-1.166-.292-1.458z" fill="#3664AD"/></svg>