<svg width="91" height="91" fill="none" xmlns="http://www.w3.org/2000/svg"><path d="M56.875 11.997h5.688v18.04h-5.688v-18.04z" fill="#3664AD"/><path d="M23.328 9.953a2 2 0 1 0-4 0h4zm-4 18.796a2 2 0 0 0 4 0h-4zM17.641 9.953a2 2 0 1 0-4 0h4zm-4 10.38a2 2 0 0 0 4 0h-4zm4 6.683a2 2 0 0 0-4 0h4zm-4 3.021a2 2 0 0 0 4 0h-4zM9.953 7.326h-2 2zm57.589 8.531l2 .03v-.03h-2zM19.328 9.953V28.75h4V9.953h-4zm-5.687 0v10.38h4V9.952h-4zm0 17.063v3.021h4v-3.021h-4zm-3.688 5.021h61.319v-4H9.953v4zm64.473 3.154v46.39h4V35.19h-4zm-3.154 49.543H9.42v4h61.852v-4zM6.266 81.58V35.191h-4v46.39h4zm3.154 3.154a3.154 3.154 0 0 1-3.154-3.154h-4a7.154 7.154 0 0 0 7.154 7.154v-4zm65.006-3.154a3.154 3.154 0 0 1-3.154 3.154v4a7.154 7.154 0 0 0 7.154-7.154h-4zm-3.154-49.543a3.154 3.154 0 0 1 3.154 3.154h4a7.154 7.154 0 0 0-7.154-7.154v4zm-61.319-4c-1.945 0-3.827.779-5.228 2.005-1.406 1.23-2.46 3.035-2.46 5.15h4c0-.733.368-1.505 1.094-2.14.73-.64 1.693-1.015 2.594-1.015v-4zm3.06-21.771h25.48v-4h-25.48v4zm-1.06 23.771V7.326h-4v22.711h4zm27.6-22.711v22.711h4V7.326h-4zm-26.54-5.06a5.06 5.06 0 0 0-5.06 5.06h4c0-.586.475-1.06 1.06-1.06v-4zm25.48 4c.586 0 1.06.474 1.06 1.06h4a5.06 5.06 0 0 0-5.06-5.06v4zm25.988 4.53h-22.63v4h22.63v-4zm4.844 19.272l.217-14.18-4-.061-.216 14.18 3.999.06zm-4.844-15.271c.586 0 1.06.475 1.06 1.06h4a5.06 5.06 0 0 0-5.06-5.06v4z" fill="#1E202F"/><path d="M35.28 8.531c.933 0 1.689.756 1.689 1.689v7.334c0 .933-.756 1.689-1.689 1.689h-4.274a1.688 1.688 0 0 1-1.688-1.689V10.22c0-.933.756-1.689 1.688-1.689h4.274z" fill="#3664AD"/><path fill-rule="evenodd" clip-rule="evenodd" d="M68.25 48.344a5.688 5.688 0 0 0-5.688 5.687v5.688a5.687 5.687 0 0 0 5.688 5.687h14.219a5.687 5.687 0 0 0 5.687-5.687V54.03a5.688 5.688 0 0 0-5.687-5.687H68.25zm2.844 5.687a2.844 2.844 0 1 0 0 5.688 2.844 2.844 0 0 0 0-5.688z" fill="#3664AD"/></svg>