<svg width="42" height="60" viewBox="0 0 42 60" fill="none" xmlns="http://www.w3.org/2000/svg">
<path d="M28.4375 36.25C28.4375 36.8516 28.2233 37.3665 27.7949 37.7949C27.3665 38.2233 26.8516 38.4375 26.25 38.4375C25.6484 38.4375 25.1335 38.2233 24.7051 37.7949C24.2767 37.3665 24.0625 36.8516 24.0625 36.25C24.0625 35.6484 24.2767 35.1335 24.7051 34.7051C25.1335 34.2767 25.6484 34.0625 26.25 34.0625C26.8516 34.0625 27.3665 34.2767 27.7949 34.7051C28.2233 35.1335 28.4375 35.6484 28.4375 36.25ZM35.4375 36.25C35.4375 36.8516 35.2233 37.3665 34.7949 37.7949C34.3665 38.2233 33.8516 38.4375 33.25 38.4375C32.6484 38.4375 32.1335 38.2233 31.7051 37.7949C31.2767 37.3665 31.0625 36.8516 31.0625 36.25C31.0625 35.6484 31.2767 35.1335 31.7051 34.7051C32.1335 34.2767 32.6484 34.0625 33.25 34.0625C33.8516 34.0625 34.3665 34.2767 34.7949 34.7051C35.2233 35.1335 35.4375 35.6484 35.4375 36.25ZM38.5 40.625V31.875C38.5 31.638 38.4134 31.4329 38.2402 31.2598C38.0671 31.0866 37.862 31 37.625 31H4.375C4.13802 31 3.93294 31.0866 3.75977 31.2598C3.58659 31.4329 3.5 31.638 3.5 31.875V40.625C3.5 40.862 3.58659 41.0671 3.75977 41.2402C3.93294 41.4134 4.13802 41.5 4.375 41.5H37.625C37.862 41.5 38.0671 41.4134 38.2402 41.2402C38.4134 41.0671 38.5 40.862 38.5 40.625ZM4.86719 27.5H37.1328L32.8398 14.3203C32.7669 14.0833 32.6211 13.8874 32.4023 13.7324C32.1836 13.5775 31.9466 13.5 31.6914 13.5H10.3086C10.0534 13.5 9.81641 13.5775 9.59766 13.7324C9.37891 13.8874 9.23307 14.0833 9.16016 14.3203L4.86719 27.5ZM42 31.875V40.625C42 41.8281 41.5716 42.8581 40.7148 43.7148C39.8581 44.5716 38.8281 45 37.625 45H4.375C3.17188 45 2.14193 44.5716 1.28516 43.7148C0.428385 42.8581 0 41.8281 0 40.625V31.875C0 31.4193 0.145833 30.7357 0.4375 29.8242L5.82422 13.2539C6.13411 12.2878 6.70833 11.5039 7.54688 10.9023C8.38542 10.3008 9.30599 10 10.3086 10H31.6914C32.694 10 33.6146 10.3008 34.4531 10.9023C35.2917 11.5039 35.8659 12.2878 36.1758 13.2539L41.5625 29.8242C41.8542 30.7357 42 31.4193 42 31.875Z" fill="#1E202F"/>
<rect x="33.6194" width="3.53889" height="67.2389" rx="1.76944" transform="rotate(30 33.6194 0)" fill="#3664AD"/>
</svg>
