<svg width="68" height="103" viewBox="0 0 68 103" fill="none" xmlns="http://www.w3.org/2000/svg">
<path d="M12.4067 78.1875C5.44683 78.1875 0 83.9368 0 90.5938C0 97.5534 5.74943 103 12.4067 103C19.0639 103 24.8133 97.2508 24.8133 90.5938C25.1159 83.9368 19.3665 78.1875 12.4067 78.1875ZM12.4067 100.882C6.95984 100.882 2.42086 96.343 2.42086 90.8964C2.42086 85.4497 6.95984 80.9108 12.4067 80.9108C17.8535 80.9108 22.3924 85.4497 22.3924 90.8964C22.3924 96.343 17.8535 100.882 12.4067 100.882Z" fill="#3664AD"/>
<path d="M43.5743 40.0611C42.9691 39.7585 42.0613 40.0611 41.7587 40.6663L18.1558 81.5162C17.8532 82.1214 18.1559 83.0291 18.7611 83.3317C19.0637 83.3317 19.0636 83.6343 19.3662 83.6343C19.6688 83.6343 20.2741 83.3317 20.5767 83.0291L44.1795 42.1792C44.4821 41.2715 44.1795 40.6663 43.5743 40.0611Z" fill="#3664AD"/>
<path d="M66.8745 0.11871C66.2693 -0.183882 65.3615 0.118701 65.0589 0.723885L52.3497 22.5105C52.0471 23.1157 52.3496 24.0235 52.9548 24.3261C53.2574 24.3261 53.2575 24.6287 53.5601 24.6287C53.8627 24.6287 54.4678 24.3261 54.7704 24.0235L67.4797 2.23685C67.4797 1.32907 67.4797 0.421302 66.8745 0.11871Z" fill="#3664AD"/>
</svg>
