<svg width="34" height="45" viewBox="0 0 34 45" fill="none" xmlns="http://www.w3.org/2000/svg">
<rect width="34" height="45" fill="#E5E5E5"/>
<g clip-path="url(#clip0)">
<rect x="-540" y="-3393" width="1440" height="4789" fill="white"/>
<path d="M4.85718 14.1428C4.85718 13.3538 5.49677 12.7142 6.28575 12.7142H27.7143C28.5033 12.7142 29.1429 13.3538 29.1429 14.1428C29.1429 14.9318 28.5033 15.5714 27.7143 15.5714H6.28575C5.49677 15.5714 4.85718 14.9318 4.85718 14.1428Z" fill="#3664AD"/>
<path d="M4.85718 19.8571C4.85718 19.0681 5.49677 18.4285 6.28575 18.4285H27.7143C28.5033 18.4285 29.1429 19.0681 29.1429 19.8571C29.1429 20.6461 28.5033 21.2857 27.7143 21.2857H6.28575C5.49677 21.2857 4.85718 20.6461 4.85718 19.8571Z" fill="#3664AD"/>
<path d="M4.85718 25.5714C4.85718 24.7824 5.49677 24.1428 6.28575 24.1428H27.7143C28.5033 24.1428 29.1429 24.7824 29.1429 25.5714C29.1429 26.3604 28.5033 27 27.7143 27H6.28575C5.49677 27 4.85718 26.3604 4.85718 25.5714Z" fill="#3664AD"/>
<path d="M4.85718 31.2857C4.85718 30.4967 5.49677 29.8571 6.28575 29.8571H27.7143C28.5033 29.8571 29.1429 30.4967 29.1429 31.2857C29.1429 32.0747 28.5033 32.7142 27.7143 32.7142H6.28575C5.49677 32.7142 4.85718 32.0747 4.85718 31.2857Z" fill="#3664AD"/>
<path d="M7.47619 2V4.55102C7.47619 6.29805 6.07518 7.71429 4.34694 7.71429H2M7.47619 2H28.8707C30.599 2 32 3.41624 32 5.16327V40.2653C32 42.0123 30.599 43.4286 28.8707 43.4286H5.12925C3.40101 43.4286 2 42.0123 2 40.2653V7.71429M7.47619 2L2 7.71429" stroke="#1E202F" stroke-width="3" stroke-linecap="round" stroke-linejoin="round"/>
</g>
<defs>
<clipPath id="clip0">
<rect x="-540" y="-3393" width="1440" height="4789" fill="white"/>
</clipPath>
</defs>
</svg>
