<svg width="42" height="60" fill="none" xmlns="http://www.w3.org/2000/svg"><path d="M28.438 36.25c0 .602-.215 1.117-.643 1.545a2.106 2.106 0 0 1-1.545.642 2.106 2.106 0 0 1-1.545-.642 2.106 2.106 0 0 1-.642-1.545c0-.602.214-1.117.642-1.545a2.106 2.106 0 0 1 1.545-.642c.602 0 1.116.214 1.545.642.428.428.642.943.642 1.545zm7 0c0 .602-.215 1.117-.643 1.545a2.106 2.106 0 0 1-1.545.642 2.106 2.106 0 0 1-1.545-.642 2.106 2.106 0 0 1-.642-1.545c0-.602.214-1.117.642-1.545a2.106 2.106 0 0 1 1.545-.642c.602 0 1.117.214 1.545.642.428.428.642.943.642 1.545zm3.062 4.375v-8.75a.84.84 0 0 0-.26-.615.84.84 0 0 0-.615-.26H4.375a.84.84 0 0 0-.615.26.84.84 0 0 0-.26.615v8.75a.84.84 0 0 0 .26.615.84.84 0 0 0 .615.26h33.25a.84.84 0 0 0 .615-.26.84.84 0 0 0 .26-.615zM4.867 27.5h32.266L32.84 14.32a1.109 1.109 0 0 0-.438-.588 1.205 1.205 0 0 0-.71-.232H10.308c-.256 0-.493.078-.711.232a1.11 1.11 0 0 0-.438.588L4.867 27.5zM42 31.875v8.75c0 1.203-.428 2.233-1.285 3.09-.857.857-1.887 1.285-3.09 1.285H4.375c-1.203 0-2.233-.428-3.09-1.285C.428 42.858 0 41.828 0 40.625v-8.75c0-.456.146-1.14.438-2.05l5.386-16.571c.31-.966.884-1.75 1.723-2.352A4.635 4.635 0 0 1 10.309 10H31.69c1.003 0 1.924.3 2.762.902a4.533 4.533 0 0 1 1.723 2.352l5.386 16.57c.292.912.438 1.595.438 2.051z" fill="#1E202F"/><rect x="33.619" width="3.539" height="67.239" rx="1.769" transform="rotate(30 33.62 0)" fill="#3664AD"/></svg>