<svg width="139" height="119" viewBox="0 0 139 119" fill="none" xmlns="http://www.w3.org/2000/svg">
<path d="M5 14.2727C5 9.15154 8.98312 5 13.8966 5H125.103C130.017 5 134 9.15154 134 14.2727V88.4537C134 93.5749 130.017 97.7264 125.103 97.7264H13.8965C8.98312 97.7264 5 93.5749 5 88.4537V14.2727Z" fill="white"/>
<path d="M25.0172 109C22.2558 109 20.0172 111.239 20.0172 114C20.0172 116.761 22.2558 119 25.0172 119V109ZM113.983 119C116.744 119 118.983 116.761 118.983 114C118.983 111.239 116.744 109 113.983 109V119ZM25.0172 119H113.983V109H25.0172V119ZM13.8966 10H125.103V0H13.8966V10ZM129 14.2727V88.4537H139V14.2727H129ZM125.103 92.7264H13.8965V102.726H125.103V92.7264ZM10 88.4537V14.2727H0V88.4537H10ZM13.8965 92.7264C11.9377 92.7264 10 91.0106 10 88.4537H0C0 96.1391 6.02856 102.726 13.8965 102.726V92.7264ZM129 88.4537C129 91.0106 127.062 92.7264 125.103 92.7264V102.726C132.971 102.726 139 96.1391 139 88.4537H129ZM125.103 10C127.062 10 129 11.7158 129 14.2727H139C139 6.58729 132.971 0 125.103 0V10ZM13.8966 0C6.02856 0 0 6.5873 0 14.2727H10C10 11.7158 11.9377 10 13.8966 10V0Z" fill="#1E202F"/>
<path d="M81.465 43.1939C75.4234 43.1939 70.5007 48.1166 70.5007 54.1582L70.5007 63.1086C70.5007 66.9125 67.3681 70.0452 63.5641 70.0452C59.7602 70.0452 56.6275 66.9125 56.6275 63.1086L56.6275 53.0394L50.3622 53.0394V63.1086C50.3622 70.4927 56.2919 76.4224 63.5641 76.3105C70.9482 76.3105 76.8779 70.3808 76.766 63.1086L76.766 54.1582C76.8779 51.5849 78.8917 49.5711 81.465 49.4592C84.0382 49.5711 86.0521 51.5849 86.164 54.1582L86.164 92.5L92.4293 92.5L92.4293 54.1582C92.4293 48.1166 87.5065 43.1939 81.465 43.1939Z" fill="#3664AD"/>
<path d="M53.4949 57.2908C47.2296 57.2908 42.195 52.2562 42.3068 46.1027V30.887C42.3068 24.6217 47.3415 19.5871 53.4949 19.699C59.7602 19.699 64.7948 24.7336 64.6829 30.887L64.6829 46.1027C64.6829 52.368 59.7602 57.2908 53.4949 57.2908Z" fill="#3664AD"/>
<path d="M57.9701 35.1384C60.4417 32.6668 60.4417 28.6596 57.9701 26.188C55.4985 23.7164 51.4912 23.7164 49.0196 26.188C46.5481 28.6596 46.5481 32.6668 49.0196 35.1384C51.4912 37.61 55.4985 37.61 57.9701 35.1384Z" fill="white"/>
</svg>
