<svg width="139" height="119" viewBox="0 0 139 119" fill="none" xmlns="http://www.w3.org/2000/svg">
<path d="M5 14.2727C5 9.15154 8.98312 5 13.8966 5H125.103C130.017 5 134 9.15154 134 14.2727V88.4537C134 93.5749 130.017 97.7264 125.103 97.7264H13.8965C8.98312 97.7264 5 93.5749 5 88.4537V14.2727Z" fill="white"/>
<path d="M25.0172 109C22.2558 109 20.0172 111.239 20.0172 114C20.0172 116.761 22.2558 119 25.0172 119V109ZM113.983 119C116.744 119 118.983 116.761 118.983 114C118.983 111.239 116.744 109 113.983 109V119ZM25.0172 119H113.983V109H25.0172V119ZM13.8966 10H125.103V0H13.8966V10ZM129 14.2727V88.4537H139V14.2727H129ZM125.103 92.7264H13.8965V102.726H125.103V92.7264ZM10 88.4537V14.2727H0V88.4537H10ZM13.8965 92.7264C11.9377 92.7264 10 91.0106 10 88.4537H0C0 96.1391 6.02856 102.726 13.8965 102.726V92.7264ZM129 88.4537C129 91.0106 127.062 92.7264 125.103 92.7264V102.726C132.971 102.726 139 96.1391 139 88.4537H129ZM125.103 10C127.062 10 129 11.7158 129 14.2727H139C139 6.58729 132.971 0 125.103 0V10ZM13.8966 0C6.02856 0 0 6.5873 0 14.2727H10C10 11.7158 11.9377 10 13.8966 10V0Z" fill="#1E202F"/>
<path d="M98.2033 44H40.7967C39.2594 44 37.7849 44.5996 36.6978 45.6668C35.6107 46.734 35 48.1815 35 49.6908V76.3092C35 77.8185 35.6107 79.266 36.6978 80.3332C37.7849 81.4004 39.2594 82 40.7967 82H98.2033C101.391 82 104 79.4391 104 76.3092V49.6908C104 46.5609 101.391 44 98.2033 44ZM64.4278 71.5362C63.2395 71.5362 62.2541 70.5688 62.2541 69.4022V65.8454H56.4573V69.4022C56.4573 70.5688 55.4719 71.5362 54.2835 71.5362C53.0952 71.5362 52.1098 70.5688 52.1098 69.4022V56.5978C52.1098 55.4312 53.0952 54.4638 54.2835 54.4638C55.4719 54.4638 56.4573 55.4312 56.4573 56.5978V61.5773H62.2541V56.5978C62.2541 55.4312 63.2395 54.4638 64.4278 54.4638C65.6162 54.4638 66.6016 55.4312 66.6016 56.5978V69.4022C66.6016 70.5688 65.6162 71.5362 64.4278 71.5362ZM73.8476 54.4638H83.9919C85.586 54.4638 86.8902 55.7442 86.8902 57.3092V68.6908C86.8902 70.2558 85.586 71.5362 83.9919 71.5362H73.8476C73.036 71.5362 72.3984 70.9102 72.3984 70.1135V55.8865C72.3984 55.0898 73.036 54.4638 73.8476 54.4638ZM76.7459 67.2681H82.5427V58.7319H76.7459V67.2681Z" fill="#3664AD"/>
</svg>
