<svg width="139" height="119" viewBox="0 0 139 119" fill="none" xmlns="http://www.w3.org/2000/svg">
<path d="M5 14.2727C5 9.15154 8.98312 5 13.8966 5H125.103C130.017 5 134 9.15154 134 14.2727V88.4537C134 93.5749 130.017 97.7264 125.103 97.7264H13.8965C8.98312 97.7264 5 93.5749 5 88.4537V14.2727Z" fill="white"/>
<path d="M25.0172 109C22.2558 109 20.0172 111.239 20.0172 114C20.0172 116.761 22.2558 119 25.0172 119V109ZM113.983 119C116.744 119 118.983 116.761 118.983 114C118.983 111.239 116.744 109 113.983 109V119ZM25.0172 119H113.983V109H25.0172V119ZM13.8966 10H125.103V0H13.8966V10ZM129 14.2727V88.4537H139V14.2727H129ZM125.103 92.7264H13.8965V102.726H125.103V92.7264ZM10 88.4537V14.2727H0V88.4537H10ZM13.8965 92.7264C11.9377 92.7264 10 91.0106 10 88.4537H0C0 96.1391 6.02856 102.726 13.8965 102.726V92.7264ZM129 88.4537C129 91.0106 127.062 92.7264 125.103 92.7264V102.726C132.971 102.726 139 96.1391 139 88.4537H129ZM125.103 10C127.062 10 129 11.7158 129 14.2727H139C139 6.58729 132.971 0 125.103 0V10ZM13.8966 0C6.02856 0 0 6.5873 0 14.2727H10C10 11.7158 11.9377 10 13.8966 10V0Z" fill="#1E202F"/>
<path d="M88.5 30.8105H77.1317L84.415 23.484C84.7103 23.1857 84.9445 22.8315 85.1043 22.4418C85.264 22.052 85.3463 21.6343 85.3463 21.2124C85.3463 20.7906 85.264 20.3728 85.1043 19.9831C84.9445 19.5933 84.7103 19.2392 84.415 18.9409C84.1197 18.6426 83.7692 18.406 83.3835 18.2445C82.9977 18.0831 82.5842 18 82.1667 18C81.3234 18 80.5146 18.3385 79.9183 18.9409L69.5 29.3388L65.795 22.9401C65.5871 22.5746 65.3099 22.254 64.9794 21.9967C64.6488 21.7394 64.2713 21.5504 63.8685 21.4404C63.4656 21.3305 63.0453 21.3018 62.6315 21.356C62.2177 21.4102 61.8185 21.5463 61.4567 21.7563C61.0949 21.9664 60.7776 22.2464 60.5229 22.5804C60.2682 22.9143 60.0811 23.2957 59.9723 23.7027C59.8635 24.1097 59.8351 24.5344 59.8888 24.9525C59.9424 25.3706 60.0771 25.7739 60.285 26.1394L63.1667 30.8105H50.5C47.9804 30.8105 45.5641 31.8217 43.7825 33.6217C42.0009 35.4217 41 37.863 41 40.4085V66.0033C41 68.5488 42.0009 70.9901 43.7825 72.7901C45.5641 74.5901 47.9804 75.6013 50.5 75.6013V78.8007C50.5 79.6492 50.8336 80.4629 51.4275 81.0629C52.0214 81.6629 52.8268 82 53.6667 82C54.5065 82 55.312 81.6629 55.9058 81.0629C56.4997 80.4629 56.8333 79.6492 56.8333 78.8007V75.6013H82.1667V78.8007C82.1667 79.6492 82.5003 80.4629 83.0942 81.0629C83.688 81.6629 84.4935 82 85.3333 82C86.1732 82 86.9786 81.6629 87.5725 81.0629C88.1664 80.4629 88.5 79.6492 88.5 78.8007V75.6013C91.0196 75.6013 93.4359 74.5901 95.2175 72.7901C96.9991 70.9901 98 68.5488 98 66.0033V40.4085C98 37.863 96.9991 35.4217 95.2175 33.6217C93.4359 31.8217 91.0196 30.8105 88.5 30.8105Z" fill="#3664AD"/>
<rect x="55.5" y="45.5" width="28" height="16" rx="2.5" stroke="white" stroke-width="5"/>
</svg>
