<svg width="493" height="556" viewBox="0 0 493 556" fill="none" xmlns="http://www.w3.org/2000/svg">
<path d="M309.157 145.52C309.157 145.52 398.203 128.714 413.729 98.1016C413.729 98.1016 419.602 87.418 413.524 82.6925C413.524 82.6925 422.272 87.1714 434.635 129.824C434.635 129.824 438.496 144.863 437.716 147.041C437.716 147.041 406.993 179.913 338.935 160.19C332.774 158.423 309.157 145.52 309.157 145.52Z" fill="url(#paint0_linear)"/>
<path d="M309.362 143.589C309.362 143.589 398.203 69.6256 413.524 82.7336C428.844 95.8416 395.985 119.017 370.602 128.427C345.219 137.836 310.718 146.342 310.718 146.342L309.362 143.589Z" fill="url(#paint1_linear)"/>
<path d="M124.328 61.8183C124.328 61.8183 105.229 75.5015 110.856 96.6222C116.483 117.743 137.759 130.687 169.632 141.288C201.504 151.889 227.339 162.203 227.339 162.203L212.964 163.477C212.964 163.477 204.092 157.396 164.457 157.149C124.821 156.861 85.7194 155.957 73.7672 123.29C61.8149 90.6641 84.8569 76.5288 84.8569 76.5288L124.328 61.8183Z" fill="#FFF0D2"/>
<path d="M238.84 160.642C238.84 160.642 167.701 46.3682 124.287 61.8183C124.287 61.8183 110.24 69.1736 108.515 85.2401C108.515 85.2401 121.042 82.6514 127.203 89.6368C133.323 96.6223 158.706 143.384 182.487 147.534C206.269 151.684 223.684 162.943 223.684 162.943L238.84 160.642Z" fill="#F4DCBD"/>
<g opacity="0.56">
<path opacity="0.56" d="M69.6188 86.1852L122.85 74.31L123.876 106.361L64.074 113.1L69.6188 86.1852Z" fill="white"/>
</g>
<path d="M0 555.977H162.321L166.551 144.945L29.9833 154.519L16.3882 232.715H40.0873L0 555.977Z" fill="#FCC23F"/>
<path d="M493 555.977L450.859 233.208L482.69 233.249L457.965 147.575L166.551 144.945L162.321 555.977H493Z" fill="url(#paint2_linear)"/>
<path d="M250.916 144.247C250.916 144.247 277.983 139.973 295.562 125.098C313.141 110.223 322.054 95.1841 326.695 76.6932C331.337 58.2024 327.558 43.6562 327.558 43.6562C327.558 43.6562 349.491 21.9192 375.86 43.1631C397.423 60.5445 380.665 102.457 366.988 117.044C353.311 131.591 335.403 149.876 264.839 145.931C261.102 145.726 250.916 144.247 250.916 144.247Z" fill="url(#paint3_linear)"/>
<path d="M40.0874 232.715L450.859 233.208L455.788 271.176L39.0605 241.878L40.0874 232.715Z" fill="#FF881D"/>
<path d="M255.146 144.904C255.146 144.904 267.509 145.849 283.527 122.756C299.546 99.663 314.661 54.7508 333.144 44.93C351.627 35.1093 369.37 36.2188 375.901 43.2042C375.901 43.2042 352.9 23.2752 316.386 12.0574C316.386 12.0574 298.067 7.16758 286.115 22.6588C274.163 38.1501 269.522 62.3526 266.605 88.4452C263.73 114.538 259.377 139.809 255.146 144.904Z" fill="#FFF0D2"/>
<path d="M257.282 123.208C257.282 123.208 278.927 125.879 279.954 139.685C280.077 141.37 280.077 146.219 280.077 146.219L252.394 145.561L257.282 123.208Z" fill="#DDC0A2"/>
<path d="M263.237 145.644C263.237 145.644 295.11 86.8427 270.22 44.437C269.521 43.2454 268.536 41.725 267.303 39.7115C256.707 22.4534 233.336 19.4538 218.098 32.2741C213.169 36.4243 207.912 42.0126 203.558 49.5322C203.558 49.5322 218.057 63.6675 231.775 83.5965C243.399 100.444 251.367 119.798 255.844 140.055L256.83 145.274L263.237 145.644Z" fill="#F4DCBD"/>
<path d="M263.237 145.644C263.237 145.644 264.141 120.948 233.377 108.128C202.614 95.3074 194.686 94.0335 186.759 91.4448C186.759 91.4448 185.486 115.771 188.567 130.07C190.251 137.754 194.974 144.411 200.149 145.685L263.237 145.644Z" fill="url(#paint4_linear)"/>
<path d="M200.19 145.726C200.19 145.726 189.388 146.137 167.743 108.128C146.138 70.1598 144.577 65.0645 144.577 65.0645C144.577 65.0645 135.295 27.713 153.244 11.2355C171.234 -5.28297 191.072 -1.58479 218.714 9.46864C257.323 24.8777 263.032 34.2875 263.032 34.2875C263.032 34.2875 243.728 16.8239 224.711 29.4799C207.337 41.0264 196.904 56.7642 191.072 76.4467C185.281 95.8005 183.145 138.206 200.19 145.726Z" fill="#FFF0D2"/>
<path d="M278.722 146.178L316.139 146.342C316.139 146.342 315.03 136.727 300.285 139.275C285.54 141.822 278.722 146.178 278.722 146.178Z" fill="#DDC0A2"/>
<path d="M243.276 145.89L273.464 146.013C273.464 146.013 251.778 135.166 243.276 145.89Z" fill="#DDC0A2"/>
<g opacity="0.47">
<path opacity="0.47" d="M273.464 146.013C273.464 146.013 250.997 137.138 242.454 147.082C233.87 157.026 241.715 186.324 242.824 226.716C243.933 267.108 237.977 275.614 237.977 275.614L211.156 257.164C211.156 257.164 199.985 268.012 177.271 272.984C177.271 272.984 193.29 224.702 185.445 181.352C177.6 138.001 189.182 139.768 202.572 138.042C221.096 135.576 257.076 135.741 273.464 146.013Z" fill="#FFF0D2"/>
<path opacity="0.47" d="M182.693 143.425L247.095 148.479L243.358 169.271L177.353 175.517L182.693 143.425Z" fill="white"/>
</g>
<g opacity="0.47">
<path opacity="0.47" d="M313.921 150.492L367.234 141L371.013 166.025L309.732 182.584L313.921 150.492Z" fill="white"/>
</g>
<g opacity="0.41">
<path opacity="0.41" d="M156.817 0.387573L224.793 33.9177L194.769 76.3234L136.281 30.2606L156.817 0.387573Z" fill="white"/>
</g>
<g opacity="0.57">
<path opacity="0.57" d="M290.387 10.7425L352.037 43.081L311.457 82.6514L272.479 37.4104L290.387 10.7425Z" fill="white"/>
</g>
<path d="M165.237 232.181L161.541 184.228L166.551 144.945L165.771 233.249" fill="#FFD37B"/>
<path d="M357.418 555.977L360.129 146.753L272.109 145.849L302.175 555.977H357.418Z" fill="#F4DCBD"/>
<path d="M278.722 146.178C278.722 146.178 299.546 136.152 310.102 139.932C320.657 143.712 317.289 167.381 316.098 172.517C314.907 177.653 302.215 252.398 333.349 264.437L347.724 242.782C347.724 242.782 362.798 251.247 384.156 254.37C384.156 254.37 367.398 236.947 365.468 217.347C363.538 197.747 370.479 157.108 362.1 144.616C356.761 136.645 333.801 131.837 312.032 134.426C299.669 135.905 284.965 139.932 278.722 146.178Z" fill="#FFF0D2"/>
<path d="M99.3148 555.977L124.903 147.739L79.2711 150.985L76.5603 555.977H99.3148Z" fill="#FFF0D2"/>
<path d="M162.279 555.977L164.456 249.932L157.597 419.637L161.869 555.977H162.279Z" fill="#FFD37B"/>
<circle cx="423" cy="492" r="35.5" stroke="#FFF0D2" stroke-width="5"/>
<path fill-rule="evenodd" clip-rule="evenodd" d="M423.212 511.602C428.637 511.602 433.384 509.287 437 505.813L433.61 502.339C430.897 505.118 427.507 506.739 423.438 506.739C415.527 506.739 409.199 500.023 409.199 491.917C409.199 483.811 415.753 477.327 423.438 477.327C427.507 477.327 431.123 478.948 433.61 481.727L437 478.253C433.384 474.316 428.637 472 423.212 472C412.589 472 404 480.801 404 491.685C404 502.802 412.589 511.602 423.212 511.602Z" fill="#FFF0D2"/>
<path fill-rule="evenodd" clip-rule="evenodd" d="M423.438 486.822C424.795 486.822 425.925 487.285 426.829 488.211L423.438 491.685L426.829 495.159C425.925 496.085 424.795 496.549 423.438 496.549C420.726 496.549 418.466 494.233 418.466 491.454C418.466 488.906 420.726 486.822 423.438 486.822Z" fill="#FFF0D2"/>
<defs>
<linearGradient id="paint0_linear" x1="309.349" y1="125.474" x2="438.019" y2="126.688" gradientUnits="userSpaceOnUse">
<stop stop-color="#DDC0A2"/>
<stop offset="0.8541" stop-color="#FFF0D2"/>
</linearGradient>
<linearGradient id="paint1_linear" x1="309.644" y1="114.236" x2="417.229" y2="115.251" gradientUnits="userSpaceOnUse">
<stop stop-color="#DDC0A2"/>
<stop offset="1" stop-color="#F4DCBD"/>
</linearGradient>
<linearGradient id="paint2_linear" x1="156.206" y1="526.569" x2="524.468" y2="153.192" gradientUnits="userSpaceOnUse">
<stop stop-color="#FF881D"/>
<stop offset="0.1224" stop-color="#FE9324"/>
<stop offset="0.4575" stop-color="#FDAD33"/>
<stop offset="0.7602" stop-color="#FCBD3C"/>
<stop offset="1" stop-color="#FCC23F"/>
</linearGradient>
<linearGradient id="paint3_linear" x1="403.916" y1="-26.5418" x2="319.25" y2="114.507" gradientUnits="userSpaceOnUse">
<stop stop-color="#DDC0A2"/>
<stop offset="1" stop-color="#F4DCBD"/>
</linearGradient>
<linearGradient id="paint4_linear" x1="298.079" y1="161.073" x2="203.283" y2="121.371" gradientUnits="userSpaceOnUse">
<stop stop-color="#DDC0A2"/>
<stop offset="1" stop-color="#F4DCBD"/>
</linearGradient>
</defs>
</svg>
