<svg width="43" height="44" viewBox="0 0 43 44" fill="none" xmlns="http://www.w3.org/2000/svg">
<path d="M38.9688 23.8393C41.9373 23.8393 43 21.4333 43 18.4653C43 15.4973 41.9373 13.0913 38.9688 13.0913V23.8393Z" fill="#3664AD"/>
<path d="M20.2828 26.538C21.0296 26.538 21.635 25.9315 21.635 25.1833V11.7478C21.635 10.9996 21.0296 10.3931 20.2828 10.3931H7.36916C5.13053 10.3931 3.01327 11.4762 1.61481 13.3367C-0.538271 16.2013 -0.538271 20.7298 1.61481 23.5944C3.01327 25.455 5.13053 26.538 7.36916 26.538H8.9167C9.41326 26.538 9.86988 26.8107 10.1061 27.2484L18.0319 42.4826C18.5207 43.4191 19.4481 43.9999 20.4546 43.9999C22.4602 43.9999 23.8017 41.8027 22.9872 39.8521L17.9804 28.4618C17.5657 27.564 18.2202 26.538 19.2076 26.538H20.2828Z" fill="#3664AD"/>
<path d="M38.4531 33.9819V3.01541C38.4531 1.90206 37.1871 1.26399 36.2949 1.92766L23.5461 10.6605C23.2026 10.9161 23 11.3195 23 11.7482V25.1833C23 25.612 23.2026 26.0155 23.5461 26.271L36.2949 35.0696C37.1871 35.7333 38.4531 35.0952 38.4531 33.9819Z" stroke="#1E202F" stroke-width="3"/>
</svg>
