<svg width="195" height="48" viewBox="0 0 195 48" fill="none" xmlns="http://www.w3.org/2000/svg">
<path fill-rule="evenodd" clip-rule="evenodd" d="M0 27.986H4.63497L19.6986 5.59726V27.986H23.3404V0.848145H18.7054L3.64177 23.2368V0.848145H0V27.986Z" fill="#1E202F"/>
<path fill-rule="evenodd" clip-rule="evenodd" d="M28.4719 27.986H31.9482V16.2828H47.5084V27.986H51.1502V0.848145H47.5084V12.5513H31.9482V0.848145H28.4719V27.986Z" fill="#1E202F"/>
<path d="M70.8488 1.86572H67.207V26.9682H70.8488V1.86572Z" fill="#1E202F"/>
<path fill-rule="evenodd" clip-rule="evenodd" d="M100.149 29.0035C107.929 29.0035 114.385 22.5583 114.385 14.417C114.219 6.44523 107.929 0 100.149 0C92.3684 0 86.0781 6.44523 86.0781 14.417C86.0781 22.5583 92.3684 29.0035 100.149 29.0035ZM100.149 25.2721C94.3549 25.2721 89.7199 20.3534 89.7199 14.417C89.7199 8.48057 94.5204 3.73145 100.149 3.73145C105.942 3.73145 110.743 8.65018 110.743 14.417C110.743 20.3534 105.942 25.2721 100.149 25.2721Z" fill="#1E202F"/>
<path fill-rule="evenodd" clip-rule="evenodd" d="M118.192 27.986H121.834V16.2828H127.958L136.07 27.986H140.539L131.104 14.417L140.539 0.848145H136.07L127.958 12.5513H121.834V0.848145H118.192V27.986Z" fill="#1E202F"/>
<path fill-rule="evenodd" clip-rule="evenodd" d="M153.616 29.0035C161.396 29.0035 167.852 22.5583 167.852 14.417C167.852 6.44523 161.562 0 153.616 0C145.836 0 139.546 6.44523 139.546 14.417C139.546 22.5583 145.836 29.0035 153.616 29.0035ZM153.616 25.2721C147.823 25.2721 143.188 20.3534 143.188 14.417C143.188 8.48057 147.988 3.73145 153.616 3.73145C159.41 3.73145 164.211 8.65018 164.211 14.417C164.211 20.3534 159.576 25.2721 153.616 25.2721Z" fill="#1E202F"/>
<path fill-rule="evenodd" clip-rule="evenodd" d="M69.028 29.0035C76.8081 29.0035 83.264 22.5583 83.264 14.417C83.264 6.44523 76.9736 0 69.028 0C61.2478 0 54.9575 6.44523 54.9575 14.417C54.9575 22.5583 61.2478 29.0035 69.028 29.0035ZM69.028 25.2721C63.2343 25.2721 58.5993 20.3534 58.5993 14.417C58.5993 8.48057 63.3998 3.73145 69.028 3.73145C74.8217 3.73145 79.6222 8.65018 79.6222 14.417C79.6222 20.3534 74.8217 25.2721 69.028 25.2721Z" fill="#1E202F"/>
<path fill-rule="evenodd" clip-rule="evenodd" d="M184.902 29.0035C188.875 29.0035 192.352 27.3074 195 24.7633L192.517 22.2191C190.531 24.2544 188.048 25.4417 185.068 25.4417C179.274 25.4417 174.639 20.523 174.639 14.5866C174.639 8.65018 179.44 3.90106 185.068 3.90106C188.048 3.90106 190.696 5.08834 192.517 7.12367L195 4.57951C192.352 1.69611 188.875 0 184.902 0C177.122 0 170.832 6.44523 170.832 14.417C170.832 22.5583 177.122 29.0035 184.902 29.0035Z" fill="#1E202F"/>
<path fill-rule="evenodd" clip-rule="evenodd" d="M185.068 10.8552C186.061 10.8552 186.889 11.1944 187.551 11.8729L185.068 14.4171L187.551 16.9612C186.889 17.6397 186.061 17.9789 185.068 17.9789C183.082 17.9789 181.426 16.2828 181.426 14.2475C181.426 12.3817 183.082 10.8552 185.068 10.8552Z" fill="#3664AD"/>
<path fill-rule="evenodd" clip-rule="evenodd" d="M6.62139 45.6255L1.82088 41.046L6.45586 36.8057H5.29711L0.993209 40.8764V36.8057H0V45.6255H0.827674V41.2156L5.46265 45.6255H6.62139ZM15.0637 36.8057V38.8411C14.4015 37.4842 13.0772 36.6361 11.4219 36.6361C8.93888 36.6361 6.95246 38.6715 6.95246 41.2156C6.95246 43.7598 8.93888 45.7951 11.4219 45.7951C13.0772 45.7951 14.4015 44.9471 15.0637 43.5902V45.6255H15.8913V36.8057H15.0637ZM11.4219 45.1167C9.43548 45.1167 7.78014 43.4206 7.78014 41.3852C7.78014 39.3499 9.43548 37.6538 11.4219 37.6538C13.4083 37.6538 15.0637 39.3499 15.0637 41.3852C15.0637 43.4206 13.5739 45.1167 11.4219 45.1167ZM22.5127 45.9647C24.9958 45.9647 26.6511 44.2686 26.6511 41.8941C26.6511 39.5195 24.9958 37.8234 22.6783 37.8234C21.5195 37.8234 20.0297 38.3322 19.202 39.6891C19.5331 38.1626 20.1952 37.3146 21.8506 36.4665C23.6715 35.6185 25.4924 35.2792 25.6579 33.5831L24.9958 33.2439C24.8302 34.7704 23.1749 34.94 21.354 35.9577C18.5399 37.3146 18.0433 38.8411 18.0433 41.5549C18.0433 44.099 20.0297 45.9647 22.5127 45.9647ZM22.5127 44.9471C20.5263 44.9471 19.0365 43.5902 19.0365 41.3852C19.202 39.5195 20.8574 38.3322 22.5127 38.3322C24.4992 38.3322 25.8234 39.6891 25.8234 41.5549C25.8234 43.5902 24.3336 44.9471 22.5127 44.9471ZM32.4448 36.6361C29.7963 36.6361 27.9754 38.6715 27.9754 41.2156C27.9754 43.9294 29.7963 45.7951 32.6104 45.7951C34.2657 45.7951 35.7555 44.9471 36.4177 43.7598L35.59 43.251C35.0934 44.2686 33.9346 44.9471 32.6104 44.9471C30.6239 44.9471 29.1341 43.5902 28.9686 41.5549H36.7487C36.7487 41.3852 36.7487 41.2156 36.7487 41.046C36.7487 38.8411 35.0934 36.6361 32.4448 36.6361ZM32.4448 37.4842C34.1002 37.4842 35.59 38.6715 35.7555 40.8764H28.8031C28.9686 38.8411 30.4584 37.4842 32.4448 37.4842ZM45.5221 36.8057H39.3973V41.8941C39.3973 44.099 38.7351 44.9471 37.4109 44.7775V45.6255C39.0662 45.7951 40.3905 44.9471 40.3905 41.8941V37.6538H44.6944V45.6255H45.5221V36.8057ZM51.4813 40.198H48.9983V36.8057H48.1706V45.6255H51.6469C53.1367 45.6255 54.461 44.6079 54.461 42.9117C54.461 41.3852 53.1367 40.198 51.4813 40.198ZM51.4813 44.7775H48.9983V41.046H51.4813C52.6401 41.046 53.4677 41.7245 53.4677 42.9117C53.4677 44.099 52.6401 44.7775 51.4813 44.7775ZM62.5722 36.8057V40.8764H57.1095V36.8057H56.2818V45.6255H57.1095V41.5549H62.5722V45.6255H63.3998V36.8057H62.5722ZM70.0212 45.9647C72.5042 45.9647 74.4907 43.9294 74.4907 41.3852C74.4907 38.8411 72.5042 36.8057 70.0212 36.8057C67.5382 36.8057 65.3862 38.8411 65.3862 41.3852C65.5518 43.9294 67.5382 45.9647 70.0212 45.9647ZM70.0212 45.1167C68.0348 45.1167 66.3795 43.4206 66.3795 41.3852C66.3795 39.3499 68.0348 37.6538 70.0212 37.6538C72.0076 37.6538 73.663 39.3499 73.663 41.3852C73.663 43.4206 72.1732 45.1167 70.0212 45.1167ZM80.6155 36.6361C77.9669 36.6361 76.146 38.6715 76.146 41.2156C76.146 43.9294 77.9669 45.7951 80.781 45.7951C82.4363 45.7951 83.9261 44.9471 84.5883 43.7598L83.7606 43.251C83.264 44.2686 82.1053 44.9471 80.781 44.9471C78.7946 44.9471 77.3047 43.5902 77.1392 41.5549H84.9194C84.9194 41.3852 84.9194 41.2156 84.9194 41.046C84.9194 38.8411 83.264 36.6361 80.6155 36.6361ZM80.6155 37.4842C82.2708 37.4842 83.7606 38.6715 83.9261 40.8764H76.9737C77.1392 38.8411 78.629 37.4842 80.6155 37.4842ZM97.6655 36.8057H90.5475V37.6538H93.6927V45.6255H94.5204V37.6538H97.6655V36.8057ZM102.632 36.6361C99.983 36.6361 98.1621 38.6715 98.1621 41.2156C98.1621 43.9294 99.983 45.7951 102.797 45.7951C104.452 45.7951 105.942 44.9471 106.604 43.7598L105.777 43.251C105.28 44.2686 104.121 44.9471 102.797 44.9471C100.811 44.9471 99.3209 43.5902 99.1553 41.5549H106.935C106.935 41.3852 106.935 41.2156 106.935 41.046C106.935 38.8411 105.28 36.6361 102.632 36.6361ZM102.632 37.4842C104.287 37.4842 105.777 38.6715 105.942 40.8764H98.9898C99.3209 38.8411 100.811 37.4842 102.632 37.4842ZM115.709 36.8057H109.584V41.8941C109.584 44.099 108.922 44.9471 107.598 44.7775V45.6255C109.253 45.7951 110.577 44.9471 110.577 41.8941V37.6538H114.881V45.6255H115.709V36.8057ZM122.33 36.6361C119.682 36.6361 117.861 38.6715 117.861 41.2156C117.861 43.9294 119.682 45.7951 122.496 45.7951C124.151 45.7951 125.641 44.9471 126.303 43.7598L125.475 43.251C124.979 44.2686 123.82 44.9471 122.496 44.9471C120.509 44.9471 119.02 43.5902 118.854 41.5549H126.634C126.634 41.3852 126.634 41.2156 126.634 41.046C126.469 38.8411 124.813 36.6361 122.33 36.6361ZM122.33 37.4842C123.986 37.4842 125.475 38.6715 125.641 40.8764H118.688C118.854 38.8411 120.344 37.4842 122.33 37.4842ZM133.918 41.046C134.58 40.7068 135.076 40.0283 135.076 39.0107C135.076 37.6538 134.249 36.6361 132.428 36.6361H128.621V45.4559H132.759C134.58 45.4559 135.407 44.4382 135.407 43.0814C135.407 42.2333 134.911 41.3852 133.918 41.046ZM132.428 37.6538C133.587 37.6538 134.083 38.1626 134.083 39.1803C134.083 40.198 133.421 40.7068 132.428 40.7068H129.448V37.6538H132.428ZM132.759 44.7775H129.448V41.5549H132.759C133.918 41.5549 134.58 42.2333 134.58 43.0814C134.58 44.2686 133.918 44.7775 132.759 44.7775ZM143.684 36.8057L138.222 44.099V36.8057H137.394V45.6255H138.222L143.684 38.3322V45.6255H144.512V36.8057H143.684ZM154.278 44.7775V36.8057H148.154V41.2156C148.154 42.9117 147.823 43.9294 147.16 44.7775H146.167V48.0001H146.995V45.6255H154.444V48.0001H155.272V44.7775H154.278ZM148.319 44.7775C148.816 43.9294 148.981 42.7421 148.981 41.2156V37.6538H153.285V44.7775H148.319ZM160.9 36.6361C158.251 36.6361 156.43 38.6715 156.43 41.2156C156.43 43.9294 158.251 45.7951 161.065 45.7951C162.721 45.7951 164.211 44.9471 164.873 43.7598L164.045 43.251C163.548 44.2686 162.39 44.9471 161.065 44.9471C159.079 44.9471 157.589 43.5902 157.424 41.5549H165.204C165.204 41.3852 165.204 41.2156 165.204 41.046C165.204 38.8411 163.548 36.6361 160.9 36.6361ZM160.9 37.4842C162.555 37.4842 164.045 38.6715 164.211 40.8764H157.258C157.589 38.8411 158.913 37.4842 160.9 37.4842ZM173.48 36.8057V40.8764H168.018V36.8057H167.19V45.6255H168.018V41.5549H173.48V45.6255H174.308V36.8057H173.48ZM183.413 36.8057L177.95 44.099V36.8057H177.122V45.6255H177.95L183.413 38.3322V45.6255H184.24V36.8057H183.413ZM190.696 36.6361C188.048 36.6361 186.227 38.6715 186.227 41.2156C186.227 43.9294 188.048 45.7951 190.862 45.7951C192.517 45.7951 194.007 44.9471 194.669 43.7598L193.841 43.251C193.345 44.2686 192.186 44.9471 190.862 44.9471C188.875 44.9471 187.385 43.5902 187.22 41.5549H195C195 41.3852 195 41.2156 195 41.046C195 38.8411 193.345 36.6361 190.696 36.6361ZM190.696 37.4842C192.351 37.4842 193.841 38.6715 194.007 40.8764H187.054C187.385 38.8411 188.875 37.4842 190.696 37.4842Z" fill="#1E202F"/>
</svg>
