<svg width="503" height="300" viewBox="0 0 503 300" fill="none" xmlns="http://www.w3.org/2000/svg">
<path d="M495.294 118.624C485.834 138.667 467.91 156.292 468.36 178.443C468.645 192.729 476.753 205.569 480.713 219.286C488.182 245.156 480.689 271.927 469.807 297.252C469.569 297.82 469.309 298.389 469.072 298.958C458.379 299.123 444.793 299.266 428.86 299.384C383.622 299.763 319.369 299.976 248.074 299.976C152.643 299.976 69.8013 299.574 28.3094 298.958C27.195 298.934 26.0807 298.934 25.0375 298.91C24.6818 298.365 24.3262 297.82 23.9705 297.252C19.4183 290.026 16.1226 281.995 14.4155 273.632C10.1241 252.5 16.0515 229.544 30.0402 213.126C48.9842 190.857 80.7551 180.978 95.8107 155.937C105.84 139.235 106.551 118.814 109.467 99.5295C112.384 80.269 119.188 59.4449 136.093 49.7554C150.865 41.2978 169.5 43.7143 185.647 49.1394C201.793 54.5883 217.133 62.809 233.967 65.5097C267.872 71.0059 300.875 53.4748 330.346 35.8253C359.77 18.1994 391.304 -0.895252 425.588 1.14215C452.38 2.72942 477.963 18.3179 491.643 41.3926C505.347 64.4673 506.746 94.3649 495.294 118.624Z" fill="#BBCDEB"/>
<path opacity="0.5" d="M231.477 75.0808H183.773V142.931H231.477V75.0808Z" fill="#86A4D4"/>
<path opacity="0.5" d="M228.419 78.1368H186.832V139.875H228.419V78.1368Z" fill="white"/>
<path d="M221.282 85.2677H193.969V132.744H221.282V85.2677Z" fill="#BBCDEB"/>
<path opacity="0.5" d="M387.463 53.4985H351.993V87.7316H387.463V53.4985Z" fill="#86A4D4"/>
<path opacity="0.5" d="M384.404 56.5547H355.052V84.6755H384.404V56.5547Z" fill="white"/>
<path d="M377.268 63.6855H362.188V77.5446H377.268V63.6855Z" fill="#BBCDEB"/>
<path opacity="0.5" d="M426.963 92.9672H391.493V127.2H426.963V92.9672Z" fill="#86A4D4"/>
<path opacity="0.5" d="M423.905 96.0233H394.552V124.144H423.905V96.0233Z" fill="white"/>
<path d="M416.768 103.154H401.688V117.013H416.768V103.154Z" fill="#BBCDEB"/>
<path opacity="0.5" d="M292.932 101.993H245.229V142.931H292.932V101.993Z" fill="#86A4D4"/>
<path opacity="0.5" d="M289.874 105.049H248.287V139.875H289.874V105.049Z" fill="white"/>
<path d="M282.737 112.18H255.424V132.744H282.737V112.18Z" fill="#BBCDEB"/>
<path d="M496.124 298.105C496.124 298.413 486.356 298.721 469.048 298.958C458.355 299.124 444.769 299.266 428.836 299.384C383.598 299.763 319.345 299.976 248.05 299.976C152.619 299.976 69.7775 299.574 28.2856 298.958C27.1712 298.934 26.0569 298.934 25.0137 298.91C8.98595 298.65 0 298.365 0 298.081C0 297.797 8.58289 297.513 23.9467 297.276C25.0848 297.252 26.2703 297.228 27.4795 297.228C68.6868 296.612 152.003 296.21 248.05 296.21C319.914 296.21 384.665 296.446 429.974 296.826C445.789 296.968 459.256 297.11 469.807 297.276C486.64 297.513 496.124 297.797 496.124 298.105Z" fill="#B5CBEF"/>
<path d="M11.3331 182.399C13.4907 191.591 19.8923 199.196 26.6732 205.782C33.4542 212.368 40.899 218.457 46.1388 226.322C50.1932 232.411 53.7022 240.205 53.3466 247.454C59.1791 225.209 73.8791 206.185 91.2583 190.786C95.7157 186.83 100.576 183.11 103.658 178.017C107.902 170.957 108.021 161.623 103.99 154.468C99.936 147.314 91.8747 142.575 83.6475 142.575C80.6127 142.575 77.4118 143.12 74.6378 141.912C69.8722 139.851 68.5207 133.502 69.6825 128.432C70.8443 123.362 73.7843 118.861 75.1357 113.839C77.7675 104.149 73.6894 93.0145 65.4385 87.3051C57.1875 81.5719 45.3327 81.6667 37.1529 87.5183C26.9103 94.8387 23.8281 109.006 25.4403 121.491C27.0526 133.976 32.4584 145.584 35.9674 157.666C36.7498 160.391 37.4611 163.234 36.9632 166.006C36.4653 168.777 34.4263 171.478 31.6285 171.881C27.3371 172.497 23.9703 167.806 19.6552 167.356C16.3121 167.001 13.0876 169.417 11.7362 172.497C10.3847 175.577 10.5507 179.13 11.3331 182.399Z" fill="url(#paint0_linear)"/>
<path d="M75.4442 247.099C75.4442 247.549 75.4442 247.999 75.4442 248.425C75.3019 265.53 71.4135 282.611 64.0872 298.081H37.4613C35.9202 294.456 34.5925 290.784 33.4544 287.041C28.5465 271.003 27.2425 253.898 29.8031 237.267C45.6174 235.988 61.4318 239.66 75.4442 247.099Z" fill="#A1BAE1"/>
<mask id="mask0" mask-type="alpha" maskUnits="userSpaceOnUse" x="39" y="90" width="18" height="144">
<path d="M49.2687 90.3612C49.2213 90.3375 48.9131 90.7403 48.3678 91.5694C47.8462 92.3986 47.1112 93.6305 46.2813 95.2889C45.4515 96.9472 44.5268 99.032 43.6733 101.52C43.5547 101.827 43.4599 102.159 43.3413 102.467C43.2228 102.799 43.1279 103.13 43.0331 103.462C42.9145 103.794 42.8197 104.149 42.7249 104.481C42.63 104.836 42.5352 105.192 42.4166 105.547C42.0373 106.992 41.6579 108.532 41.326 110.167C40.6858 113.436 40.2116 117.061 39.9983 120.946C39.7849 124.855 39.8323 129.024 40.1642 133.407C40.2116 133.952 40.2591 134.497 40.3065 135.066C40.3539 135.61 40.4013 136.179 40.4725 136.724C40.4962 137.008 40.5436 137.292 40.5673 137.553C40.591 137.837 40.6384 138.122 40.6621 138.406C40.7333 138.974 40.8044 139.543 40.8755 140.112C40.8992 140.396 40.9466 140.68 40.9941 140.964C41.0415 141.249 41.0889 141.533 41.1126 141.817C41.2075 142.386 41.2786 142.978 41.3734 143.547C41.4683 144.115 41.5631 144.708 41.6579 145.276C41.7528 145.868 41.8476 146.437 41.9662 147.029C42.8197 151.72 43.8866 156.529 45.0958 161.433C46.305 166.337 47.5379 171.099 48.6997 175.695C49.8615 180.291 50.9521 184.745 51.8531 188.986C52.754 193.226 53.5128 197.301 54.0344 201.115C54.5797 204.929 54.9353 208.53 55.1013 211.8C55.1724 213.434 55.2436 214.998 55.2436 216.49C55.2673 217.959 55.2199 219.357 55.1961 220.66C55.1961 220.992 55.1724 221.3 55.1487 221.631C55.125 221.939 55.1013 222.247 55.1013 222.555C55.0776 222.863 55.0776 223.147 55.0539 223.455C55.0302 223.74 55.0302 224.024 54.9828 224.308C54.9353 224.853 54.8879 225.398 54.8405 225.896C54.8168 226.156 54.7931 226.393 54.7694 226.63C54.7694 226.748 54.7457 226.867 54.7457 226.985C54.7219 227.104 54.722 227.222 54.6982 227.341C54.5797 228.241 54.4849 229.07 54.39 229.757C54.39 229.852 54.3663 229.923 54.3663 230.018C54.3426 230.113 54.3426 230.184 54.3189 230.255C54.2952 230.42 54.2715 230.563 54.2478 230.728C54.2003 231.013 54.1529 231.297 54.1292 231.534C53.987 232.505 53.9395 233.003 53.987 233.026C54.0344 233.05 54.2003 232.553 54.4374 231.605C54.5086 231.368 54.556 231.108 54.6271 230.823C54.6745 230.681 54.6982 230.515 54.7457 230.373C54.7694 230.302 54.7931 230.207 54.8168 230.136C54.8405 230.041 54.8405 229.97 54.8642 229.876C55.0065 229.165 55.1487 228.359 55.3147 227.459C55.3384 227.341 55.3621 227.222 55.3858 227.104C55.4095 226.985 55.4095 226.867 55.4332 226.748C55.457 226.512 55.5044 226.251 55.5281 226.014C55.5992 225.493 55.6703 224.972 55.7415 224.403C55.7889 224.119 55.8126 223.834 55.8363 223.55C55.86 223.266 55.8837 222.958 55.9311 222.65C55.9549 222.342 55.9786 222.034 56.026 221.726C56.0497 221.418 56.0971 221.086 56.0971 220.755C56.1682 219.428 56.2631 218.03 56.2868 216.538C56.3342 215.045 56.2868 213.458 56.2631 211.8C56.1682 208.483 55.86 204.858 55.3858 200.997C54.8879 197.135 54.2003 193.013 53.3231 188.725C52.4458 184.437 51.3789 179.959 50.2408 175.363C49.1028 170.744 47.8462 165.982 46.6607 161.102C45.4752 156.221 44.3845 151.436 43.531 146.792C43.4125 146.224 43.3176 145.632 43.2228 145.063C43.1279 144.494 43.0331 143.902 42.9145 143.334C42.8197 142.765 42.7486 142.196 42.6537 141.628C42.6063 141.344 42.5589 141.059 42.5115 140.775C42.4641 140.491 42.4166 140.206 42.3929 139.922C42.3218 139.354 42.2507 138.809 42.1795 138.24C42.1321 137.956 42.1084 137.695 42.061 137.411C42.0373 137.127 41.9899 136.866 41.9662 136.582C41.895 136.037 41.8476 135.492 41.8002 134.947C41.7528 134.402 41.7054 133.857 41.6579 133.312C41.2786 129.001 41.2075 124.879 41.3497 121.017C41.492 117.179 41.895 113.602 42.4641 110.38C42.7486 108.769 43.0805 107.253 43.4125 105.808C43.5073 105.452 43.6021 105.097 43.6733 104.741C43.7681 104.386 43.8629 104.054 43.9578 103.723C44.0526 103.391 44.1474 103.059 44.2423 102.728C44.3371 102.396 44.432 102.088 44.5268 101.78C45.2855 99.2926 46.1391 97.2078 46.8503 95.5258C48.3441 92.1854 49.3873 90.4323 49.2687 90.3612Z" fill="url(#paint1_linear)"/>
</mask>
<g mask="url(#mask0)">
<path d="M49.2687 90.3612C49.2213 90.3375 48.9131 90.7403 48.3678 91.5694C47.8462 92.3986 47.1112 93.6305 46.2813 95.2889C45.4515 96.9472 44.5268 99.032 43.6733 101.52C43.5547 101.827 43.4599 102.159 43.3413 102.467C43.2228 102.799 43.1279 103.13 43.0331 103.462C42.9145 103.794 42.8197 104.149 42.7249 104.481C42.63 104.836 42.5352 105.192 42.4166 105.547C42.0373 106.992 41.6579 108.532 41.326 110.167C40.6858 113.436 40.2116 117.061 39.9983 120.946C39.7849 124.855 39.8323 129.024 40.1642 133.407C40.2116 133.952 40.2591 134.497 40.3065 135.066C40.3539 135.61 40.4013 136.179 40.4725 136.724C40.4962 137.008 40.5436 137.292 40.5673 137.553C40.591 137.837 40.6384 138.122 40.6621 138.406C40.7333 138.974 40.8044 139.543 40.8755 140.112C40.8992 140.396 40.9466 140.68 40.9941 140.964C41.0415 141.249 41.0889 141.533 41.1126 141.817C41.2075 142.386 41.2786 142.978 41.3734 143.547C41.4683 144.115 41.5631 144.708 41.6579 145.276C41.7528 145.868 41.8476 146.437 41.9662 147.029C42.8197 151.72 43.8866 156.529 45.0958 161.433C46.305 166.337 47.5379 171.099 48.6997 175.695C49.8615 180.291 50.9521 184.745 51.8531 188.986C52.754 193.226 53.5128 197.301 54.0344 201.115C54.5797 204.929 54.9353 208.53 55.1013 211.8C55.1724 213.434 55.2436 214.998 55.2436 216.49C55.2673 217.959 55.2199 219.357 55.1961 220.66C55.1961 220.992 55.1724 221.3 55.1487 221.631C55.125 221.939 55.1013 222.247 55.1013 222.555C55.0776 222.863 55.0776 223.147 55.0539 223.455C55.0302 223.74 55.0302 224.024 54.9828 224.308C54.9353 224.853 54.8879 225.398 54.8405 225.896C54.8168 226.156 54.7931 226.393 54.7694 226.63C54.7694 226.748 54.7457 226.867 54.7457 226.985C54.7219 227.104 54.722 227.222 54.6982 227.341C54.5797 228.241 54.4849 229.07 54.39 229.757C54.39 229.852 54.3663 229.923 54.3663 230.018C54.3426 230.113 54.3426 230.184 54.3189 230.255C54.2952 230.42 54.2715 230.563 54.2478 230.728C54.2003 231.013 54.1529 231.297 54.1292 231.534C53.987 232.505 53.9395 233.003 53.987 233.026C54.0344 233.05 54.2003 232.553 54.4374 231.605C54.5086 231.368 54.556 231.108 54.6271 230.823C54.6745 230.681 54.6982 230.515 54.7457 230.373C54.7694 230.302 54.7931 230.207 54.8168 230.136C54.8405 230.041 54.8405 229.97 54.8642 229.876C55.0065 229.165 55.1487 228.359 55.3147 227.459C55.3384 227.341 55.3621 227.222 55.3858 227.104C55.4095 226.985 55.4095 226.867 55.4332 226.748C55.457 226.512 55.5044 226.251 55.5281 226.014C55.5992 225.493 55.6703 224.972 55.7415 224.403C55.7889 224.119 55.8126 223.834 55.8363 223.55C55.86 223.266 55.8837 222.958 55.9311 222.65C55.9549 222.342 55.9786 222.034 56.026 221.726C56.0497 221.418 56.0971 221.086 56.0971 220.755C56.1682 219.428 56.2631 218.03 56.2868 216.538C56.3342 215.045 56.2868 213.458 56.2631 211.8C56.1682 208.483 55.86 204.858 55.3858 200.997C54.8879 197.135 54.2003 193.013 53.3231 188.725C52.4458 184.437 51.3789 179.959 50.2408 175.363C49.1028 170.744 47.8462 165.982 46.6607 161.102C45.4752 156.221 44.3845 151.436 43.531 146.792C43.4125 146.224 43.3176 145.632 43.2228 145.063C43.1279 144.494 43.0331 143.902 42.9145 143.334C42.8197 142.765 42.7486 142.196 42.6537 141.628C42.6063 141.344 42.5589 141.059 42.5115 140.775C42.4641 140.491 42.4166 140.206 42.3929 139.922C42.3218 139.354 42.2507 138.809 42.1795 138.24C42.1321 137.956 42.1084 137.695 42.061 137.411C42.0373 137.127 41.9899 136.866 41.9662 136.582C41.895 136.037 41.8476 135.492 41.8002 134.947C41.7528 134.402 41.7054 133.857 41.6579 133.312C41.2786 129.001 41.2075 124.879 41.3497 121.017C41.492 117.179 41.895 113.602 42.4641 110.38C42.7486 108.769 43.0805 107.253 43.4125 105.808C43.5073 105.452 43.6021 105.097 43.6733 104.741C43.7681 104.386 43.8629 104.054 43.9578 103.723C44.0526 103.391 44.1474 103.059 44.2423 102.728C44.3371 102.396 44.432 102.088 44.5268 101.78C45.2855 99.2926 46.1391 97.2078 46.8503 95.5258C48.3441 92.1854 49.3873 90.4323 49.2687 90.3612Z" fill="#D0DBED"/>
</g>
<mask id="mask1" mask-type="alpha" maskUnits="userSpaceOnUse" x="19" y="174" width="35" height="58">
<path d="M19.039 174.795C18.9916 174.795 18.9916 175.055 19.039 175.506C19.0627 175.742 19.0864 176.003 19.1575 176.335C19.2287 176.666 19.2998 177.045 19.3946 177.472C19.4895 177.898 19.6317 178.348 19.774 178.87C19.8451 179.13 19.9399 179.391 20.0348 179.651C20.1296 179.912 20.2245 180.22 20.3193 180.504C20.7461 181.665 21.3151 182.944 22.0264 184.342C22.7377 185.716 23.6149 187.185 24.6107 188.701C25.6303 190.217 26.792 191.781 28.0724 193.368C30.6567 196.543 33.7627 199.788 36.9635 203.2C38.552 204.906 40.0931 206.564 41.5394 208.222C42.962 209.881 44.2898 211.515 45.4515 213.15C47.7988 216.396 49.5296 219.57 50.6439 222.366C51.1893 223.763 51.616 225.066 51.948 226.227C51.9954 226.369 52.0191 226.512 52.0665 226.654C52.0902 226.796 52.1376 226.938 52.1614 227.08C52.2325 227.341 52.3036 227.601 52.351 227.862C52.4459 228.359 52.5407 228.833 52.6118 229.236C52.683 229.662 52.7304 230.018 52.7778 230.349C52.8252 230.681 52.8489 230.942 52.8964 231.179C52.9675 231.629 53.0149 231.866 53.086 231.866C53.1334 231.866 53.1809 231.629 53.2283 231.179C53.252 230.942 53.2757 230.657 53.2757 230.326C53.2757 229.994 53.252 229.615 53.252 229.165C53.2283 228.738 53.1809 228.241 53.1335 227.72C53.1097 227.459 53.0623 227.175 53.0149 226.891C52.9912 226.748 52.9675 226.606 52.9438 226.464C52.9201 226.322 52.8964 226.156 52.8726 226.014C52.6355 224.806 52.2799 223.432 51.7583 221.963C50.7388 219.025 49.0554 215.685 46.7081 212.297C45.5464 210.615 44.2186 208.909 42.7723 207.204C41.326 205.498 39.7849 203.816 38.1727 202.086C34.9482 198.675 31.8422 195.5 29.2578 192.421C26.6498 189.365 24.5633 186.403 23.0459 183.774C22.2872 182.447 21.6708 181.239 21.1729 180.149C21.0543 179.888 20.9358 179.604 20.8172 179.343C20.6987 179.083 20.6038 178.846 20.509 178.609C20.3193 178.135 20.1533 177.685 20.0111 177.282C19.8688 176.88 19.7503 176.524 19.6317 176.216C19.5132 175.908 19.442 175.648 19.3709 175.434C19.2049 175.008 19.0864 174.795 19.039 174.795Z" fill="url(#paint2_linear)"/>
</mask>
<g mask="url(#mask1)">
<path d="M19.039 174.795C18.9916 174.795 18.9916 175.055 19.039 175.506C19.0627 175.742 19.0864 176.003 19.1575 176.335C19.2287 176.666 19.2998 177.045 19.3946 177.472C19.4895 177.898 19.6317 178.348 19.774 178.87C19.8451 179.13 19.9399 179.391 20.0348 179.651C20.1296 179.912 20.2245 180.22 20.3193 180.504C20.7461 181.665 21.3151 182.944 22.0264 184.342C22.7377 185.716 23.6149 187.185 24.6107 188.701C25.6303 190.217 26.792 191.781 28.0724 193.368C30.6567 196.543 33.7627 199.788 36.9635 203.2C38.552 204.906 40.0931 206.564 41.5394 208.222C42.962 209.881 44.2898 211.515 45.4515 213.15C47.7988 216.396 49.5296 219.57 50.6439 222.366C51.1893 223.763 51.616 225.066 51.948 226.227C51.9954 226.369 52.0191 226.512 52.0665 226.654C52.0902 226.796 52.1376 226.938 52.1614 227.08C52.2325 227.341 52.3036 227.601 52.351 227.862C52.4459 228.359 52.5407 228.833 52.6118 229.236C52.683 229.662 52.7304 230.018 52.7778 230.349C52.8252 230.681 52.8489 230.942 52.8964 231.179C52.9675 231.629 53.0149 231.866 53.086 231.866C53.1334 231.866 53.1809 231.629 53.2283 231.179C53.252 230.942 53.2757 230.657 53.2757 230.326C53.2757 229.994 53.252 229.615 53.252 229.165C53.2283 228.738 53.1809 228.241 53.1335 227.72C53.1097 227.459 53.0623 227.175 53.0149 226.891C52.9912 226.748 52.9675 226.606 52.9438 226.464C52.9201 226.322 52.8964 226.156 52.8726 226.014C52.6355 224.806 52.2799 223.432 51.7583 221.963C50.7388 219.025 49.0554 215.685 46.7081 212.297C45.5464 210.615 44.2186 208.909 42.7723 207.204C41.326 205.498 39.7849 203.816 38.1727 202.086C34.9482 198.675 31.8422 195.5 29.2578 192.421C26.6498 189.365 24.5633 186.403 23.0459 183.774C22.2872 182.447 21.6708 181.239 21.1729 180.149C21.0543 179.888 20.9358 179.604 20.8172 179.343C20.6987 179.083 20.6038 178.846 20.509 178.609C20.3193 178.135 20.1533 177.685 20.0111 177.282C19.8688 176.88 19.7503 176.524 19.6317 176.216C19.5132 175.908 19.442 175.648 19.3709 175.434C19.2049 175.008 19.0864 174.795 19.039 174.795Z" fill="#D0DBED"/>
</g>
<mask id="mask2" mask-type="alpha" maskUnits="userSpaceOnUse" x="58" y="156" width="37" height="67">
<path d="M94.5065 156.458C94.4354 156.387 93.5819 157.027 92.1119 158.306C91.7562 158.614 91.3294 158.969 90.9027 159.372C90.4759 159.775 90.0017 160.225 89.5038 160.699C88.5317 161.67 87.3699 162.736 86.2082 164.039C85.6154 164.679 84.999 165.342 84.3588 166.053C84.0269 166.385 83.7187 166.764 83.4104 167.143C83.1022 167.522 82.7703 167.901 82.4383 168.304C82.1064 168.706 81.7745 169.085 81.4425 169.488C81.2766 169.701 81.0869 169.891 80.9209 170.104C80.7549 170.317 80.589 170.53 80.423 170.744C79.7591 171.597 79.0716 172.497 78.384 173.421C75.6574 177.14 72.8833 181.357 70.299 186C67.7621 190.668 65.6756 195.287 63.9922 199.575C63.5892 200.665 63.2098 201.707 62.8305 202.726C62.7356 202.987 62.6408 203.247 62.5459 203.484C62.4511 203.745 62.38 203.982 62.3088 204.242C62.1429 204.74 62.0006 205.237 61.8347 205.735C61.6924 206.232 61.5264 206.706 61.3842 207.18C61.2419 207.654 61.076 208.104 60.9574 208.578C60.7203 209.502 60.4832 210.378 60.2461 211.207C59.7719 212.889 59.4874 214.429 59.2029 215.78C59.0606 216.467 58.9184 217.083 58.8235 217.651C58.7287 218.243 58.6576 218.765 58.5864 219.239C58.3019 221.157 58.2071 222.224 58.3019 222.247C58.4205 222.271 58.7287 221.229 59.1792 219.357C59.2977 218.883 59.4163 218.362 59.5585 217.793C59.7008 217.225 59.8905 216.609 60.0564 215.945C60.4358 214.619 60.7914 213.103 61.3368 211.468C61.5976 210.639 61.8584 209.786 62.1192 208.886C62.2377 208.436 62.4274 207.985 62.5697 207.535C62.7356 207.085 62.9016 206.611 63.0676 206.138C63.2335 205.664 63.3995 205.166 63.5655 204.692C63.6603 204.456 63.7314 204.195 63.8263 203.958C63.9211 203.721 64.0159 203.461 64.1108 203.2C64.4901 202.205 64.8932 201.163 65.32 200.096C67.0508 195.903 69.1372 191.355 71.6505 186.759C74.1874 182.186 76.914 177.969 79.522 174.274C80.1859 173.35 80.8498 172.473 81.49 171.597C81.6559 171.383 81.7982 171.17 81.9641 170.957C82.1301 170.744 82.2961 170.554 82.462 170.341C82.794 169.938 83.1022 169.535 83.4104 169.133C83.7187 168.73 84.0269 168.351 84.3351 167.972C84.6433 167.593 84.9278 167.214 85.2361 166.858C85.8525 166.148 86.4216 165.461 86.9906 164.797C88.0812 163.471 89.1719 162.357 90.0728 161.338C90.547 160.841 90.9501 160.343 91.3532 159.917C91.7562 159.491 92.1356 159.112 92.4675 158.756C93.8664 157.358 94.5777 156.529 94.5065 156.458Z" fill="url(#paint3_linear)"/>
</mask>
<g mask="url(#mask2)">
<path d="M94.5065 156.458C94.4354 156.387 93.5819 157.027 92.1119 158.306C91.7562 158.614 91.3294 158.969 90.9027 159.372C90.4759 159.775 90.0017 160.225 89.5038 160.699C88.5317 161.67 87.3699 162.736 86.2082 164.039C85.6154 164.679 84.999 165.342 84.3588 166.053C84.0269 166.385 83.7187 166.764 83.4104 167.143C83.1022 167.522 82.7703 167.901 82.4383 168.304C82.1064 168.706 81.7745 169.085 81.4425 169.488C81.2766 169.701 81.0869 169.891 80.9209 170.104C80.7549 170.317 80.589 170.53 80.423 170.744C79.7591 171.597 79.0716 172.497 78.384 173.421C75.6574 177.14 72.8833 181.357 70.299 186C67.7621 190.668 65.6756 195.287 63.9922 199.575C63.5892 200.665 63.2098 201.707 62.8305 202.726C62.7356 202.987 62.6408 203.247 62.5459 203.484C62.4511 203.745 62.38 203.982 62.3088 204.242C62.1429 204.74 62.0006 205.237 61.8347 205.735C61.6924 206.232 61.5264 206.706 61.3842 207.18C61.2419 207.654 61.076 208.104 60.9574 208.578C60.7203 209.502 60.4832 210.378 60.2461 211.207C59.7719 212.889 59.4874 214.429 59.2029 215.78C59.0606 216.467 58.9184 217.083 58.8235 217.651C58.7287 218.243 58.6576 218.765 58.5864 219.239C58.3019 221.157 58.2071 222.224 58.3019 222.247C58.4205 222.271 58.7287 221.229 59.1792 219.357C59.2977 218.883 59.4163 218.362 59.5585 217.793C59.7008 217.225 59.8905 216.609 60.0564 215.945C60.4358 214.619 60.7914 213.103 61.3368 211.468C61.5976 210.639 61.8584 209.786 62.1192 208.886C62.2377 208.436 62.4274 207.985 62.5697 207.535C62.7356 207.085 62.9016 206.611 63.0676 206.138C63.2335 205.664 63.3995 205.166 63.5655 204.692C63.6603 204.456 63.7314 204.195 63.8263 203.958C63.9211 203.721 64.0159 203.461 64.1108 203.2C64.4901 202.205 64.8932 201.163 65.32 200.096C67.0508 195.903 69.1372 191.355 71.6505 186.759C74.1874 182.186 76.914 177.969 79.522 174.274C80.1859 173.35 80.8498 172.473 81.49 171.597C81.6559 171.383 81.7982 171.17 81.9641 170.957C82.1301 170.744 82.2961 170.554 82.462 170.341C82.794 169.938 83.1022 169.535 83.4104 169.133C83.7187 168.73 84.0269 168.351 84.3351 167.972C84.6433 167.593 84.9278 167.214 85.2361 166.858C85.8525 166.148 86.4216 165.461 86.9906 164.797C88.0812 163.471 89.1719 162.357 90.0728 161.338C90.547 160.841 90.9501 160.343 91.3532 159.917C91.7562 159.491 92.1356 159.112 92.4675 158.756C93.8664 157.358 94.5777 156.529 94.5065 156.458Z" fill="#D0DBED"/>
</g>
<path d="M75.4441 248.449C75.3018 265.554 71.4135 282.635 64.0872 298.105H37.4613C35.9201 294.48 34.5924 290.808 33.4543 287.065C43.0567 286.023 52.3272 282.066 59.6535 275.764C67.7622 268.776 73.4051 258.968 75.4441 248.449Z" fill="url(#paint4_linear)"/>
<path d="M335.42 245.417C335.302 248.544 335.42 251.647 335.895 254.727C336.013 255.533 336.179 256.314 336.345 257.12C322.499 267.947 303.602 269.273 286.033 269.984C279.821 270.245 272.376 270.363 264.125 270.387C262.608 270.387 261.067 270.387 259.502 270.387C216.848 270.292 155.464 267.591 124.665 263.753C123.504 257.594 122.342 251.363 121.583 245.132C120.682 237.859 120.303 230.539 121.085 223.266C122.508 209.739 128.459 196.045 139.721 188.393C146.786 183.584 155.346 181.523 163.739 179.959C190.294 174.961 264.671 173.824 291.534 176.619C294.711 176.951 297.888 177.33 301.041 177.875C304.74 178.491 308.415 179.32 311.972 180.481C313.536 180.978 315.078 181.57 316.595 182.21C324.49 185.598 331.674 191.26 335.373 198.983C337.056 202.466 337.934 206.209 338.337 210.047C338.929 215.922 338.337 222.034 337.507 227.909C336.653 233.666 335.634 239.565 335.42 245.417Z" fill="#86A4D4"/>
<path d="M337.483 218.836C336.44 227.649 335.112 236.604 335.42 245.417C335.515 248.402 335.8 251.363 336.369 254.301C336.226 254.443 336.06 254.585 335.918 254.727C322.119 267.449 303.436 269.036 286.08 269.889C279.868 270.197 272.424 270.339 264.173 270.387C262.655 270.387 261.114 270.387 259.549 270.387C216.896 270.292 155.511 266.999 124.713 262.355C123.551 254.869 122.389 247.336 121.63 239.778C122.46 236.154 123.788 232.742 125.637 229.662C160.206 234.4 194.988 236.959 229.794 237.291C247.41 237.457 265.334 237.03 282.145 230.563C289.068 227.886 295.801 224.166 301.373 218.528C306.945 212.889 311.307 205.214 312.683 196.59C313.536 191.212 313.204 185.74 311.995 180.457C313.56 180.954 315.101 181.547 316.618 182.186C324.514 185.574 331.698 191.236 335.396 198.959C337.08 202.442 337.957 206.185 338.36 210.023C338.123 212.96 337.815 215.922 337.483 218.836Z" fill="#5778AC"/>
<path d="M119.141 247.691C192.878 236.012 267.468 236.012 341.205 247.691V284.554H119.141V247.691Z" fill="#698CC2"/>
<path d="M232.947 286.449C294.452 286.449 344.311 285.6 344.311 284.554C344.311 283.507 294.452 282.658 232.947 282.658C171.442 282.658 121.583 283.507 121.583 284.554C121.583 285.6 171.442 286.449 232.947 286.449Z" fill="#86A4D4"/>
<path d="M337.459 298.152C335.396 273.182 333.31 255.011 331.247 230.041C330.726 223.669 330.228 217.035 332.504 211.065C334.59 205.545 339.166 200.926 344.809 199.196C350.452 197.467 357.043 198.817 361.24 202.987C367.191 208.886 367.262 218.291 366.954 226.677C365.982 252.808 364.986 272.14 364.014 298.271C354.744 298.413 346.73 297.963 337.459 298.152Z" fill="#5C76A2"/>
<path d="M133.675 225.493C133.651 225.872 133.651 226.251 133.628 226.63C132.655 252.761 131.66 272.092 130.688 298.223C121.417 298.413 113.403 297.963 104.133 298.128C102.07 273.158 99.9836 254.988 97.9208 229.994C97.3992 223.621 96.9013 216.988 99.1774 211.018C99.8176 209.312 100.719 207.677 101.809 206.209C104.228 202.916 107.594 200.357 111.483 199.149C117.126 197.419 123.717 198.77 127.914 202.939C133.604 208.578 133.912 217.438 133.675 225.493Z" fill="#86A4D4"/>
<path d="M350.666 199.101C350.666 199.244 350.262 199.338 349.551 199.433C348.84 199.575 347.82 199.717 346.54 200.12C345.283 200.499 343.79 201.139 342.201 202.134C341.419 202.631 340.613 203.224 339.83 203.911C339.048 204.598 338.265 205.403 337.554 206.303C336.108 208.104 334.851 210.354 333.927 212.937C333.002 215.519 332.409 218.457 332.172 221.56C331.935 224.687 332.053 228.028 332.362 231.51C332.504 233.263 332.717 235.04 332.931 236.864C333.144 238.689 333.358 240.536 333.571 242.408C335.278 257.404 336.606 271.026 337.364 280.882C338.147 290.761 338.36 296.896 337.839 296.944C337.317 296.991 336.155 290.974 334.709 281.19C333.263 271.405 331.508 257.831 329.801 242.834C329.588 240.963 329.374 239.091 329.185 237.267C328.995 235.443 328.805 233.619 328.663 231.795C328.402 228.194 328.331 224.64 328.687 221.228C329.042 217.841 329.801 214.619 330.987 211.776C332.148 208.933 333.713 206.446 335.515 204.527C336.416 203.555 337.364 202.726 338.313 202.015C339.261 201.305 340.233 200.736 341.158 200.262C343.031 199.338 344.786 198.864 346.208 198.675C347.654 198.485 348.792 198.557 349.527 198.675C350.286 198.841 350.666 198.983 350.666 199.101Z" fill="#4E678D"/>
<path d="M113.095 199.409C113.048 199.291 113.403 199.054 114.138 198.77C114.328 198.699 114.541 198.651 114.755 198.58C114.992 198.509 115.253 198.438 115.513 198.367C115.798 198.32 116.106 198.272 116.438 198.201C116.509 198.177 116.604 198.177 116.699 198.154C116.794 198.154 116.865 198.13 116.96 198.13C117.126 198.106 117.315 198.106 117.505 198.083C118.999 197.988 120.872 198.106 122.958 198.722C124.001 199.054 125.092 199.433 126.183 200.049C126.325 200.12 126.467 200.191 126.586 200.262C126.728 200.333 126.847 200.428 126.989 200.499C127.25 200.665 127.534 200.831 127.819 201.02C128.079 201.21 128.34 201.423 128.625 201.613L128.838 201.755C128.909 201.802 128.957 201.873 129.028 201.921C129.146 202.039 129.289 202.158 129.407 202.252C129.549 202.371 129.668 202.489 129.81 202.608C129.929 202.726 130.047 202.868 130.19 202.987C130.308 203.105 130.427 203.247 130.569 203.366L130.759 203.555C130.83 203.626 130.877 203.697 130.925 203.768C131.162 204.053 131.399 204.337 131.636 204.645C131.849 204.953 132.063 205.261 132.276 205.569C133.106 206.848 133.77 208.293 134.291 209.833C134.813 211.373 135.192 212.984 135.429 214.666C135.667 216.348 135.785 218.054 135.809 219.783C135.856 221.536 135.809 223.29 135.761 225.066C135.69 226.843 135.643 228.644 135.572 230.492C135.429 234.187 135.287 238.001 135.121 241.887C134.457 257.499 133.628 271.642 132.869 281.877C132.086 292.111 131.351 298.413 130.83 298.389C130.308 298.365 130.095 292.016 130.19 281.758C130.284 271.5 130.664 257.357 131.351 241.721C131.517 237.812 131.683 233.998 131.873 230.326C131.968 228.478 132.063 226.677 132.158 224.901C132.252 223.147 132.324 221.442 132.324 219.783C132.324 218.149 132.276 216.561 132.11 215.045C131.944 213.529 131.683 212.084 131.304 210.757C130.925 209.431 130.403 208.175 129.787 207.061C129.621 206.777 129.455 206.517 129.312 206.256C129.123 205.995 128.957 205.758 128.791 205.498C128.743 205.427 128.696 205.379 128.649 205.308L128.506 205.143C128.411 205.024 128.317 204.906 128.222 204.811C128.127 204.692 128.032 204.574 127.937 204.479C127.842 204.384 127.724 204.266 127.629 204.171C127.534 204.076 127.416 203.958 127.321 203.863C127.273 203.816 127.226 203.768 127.179 203.721L127.013 203.579C126.799 203.389 126.586 203.2 126.372 203.01C126.135 202.845 125.922 202.679 125.709 202.513C125.59 202.442 125.495 202.347 125.377 202.276C125.258 202.205 125.14 202.134 125.045 202.063C124.144 201.47 123.219 201.044 122.342 200.665C120.564 199.954 118.928 199.646 117.552 199.504C117.386 199.48 117.22 199.48 117.055 199.457C116.983 199.457 116.889 199.433 116.817 199.433C116.746 199.433 116.651 199.433 116.58 199.433C116.272 199.433 115.988 199.409 115.727 199.409C115.181 199.433 114.731 199.433 114.375 199.433C113.545 199.575 113.142 199.528 113.095 199.409Z" fill="#5E7FB3"/>
<path d="M133.675 225.493C133.509 225.185 133.367 224.853 133.248 224.545C132.513 222.65 132.229 220.613 131.588 218.694C129.502 212.416 123.314 207.725 116.699 207.417C113.64 207.275 110.605 207.985 107.547 207.891C105.532 207.843 103.421 207.322 101.785 206.209C104.204 202.916 107.571 200.357 111.459 199.149C117.102 197.419 123.693 198.77 127.89 202.939C133.604 208.578 133.912 217.438 133.675 225.493Z" fill="#698CC2"/>
<path d="M154.943 149.185C153.259 151.317 152.453 154.373 153.686 156.79C154.397 158.14 155.678 159.23 155.986 160.723C156.46 163.068 154.374 165.058 153.141 167.119C151.362 170.128 151.386 174.037 152.904 177.188C154.421 180.338 157.314 182.707 160.585 183.939C163.857 185.148 167.485 185.266 170.923 184.603C173.484 184.105 175.997 183.181 177.965 181.452C179.933 179.746 181.237 177.188 181.023 174.582C180.668 170.199 176.281 166.953 175.973 162.57C175.783 159.846 177.206 157.287 177.562 154.61C178.107 150.63 176.044 146.413 172.559 144.376C167.034 141.13 158.712 144.423 154.943 149.185Z" fill="#1E202F"/>
<path d="M170.188 174.629C175.854 176.572 180.857 180.386 184.224 185.313C187.591 190.241 189.345 196.282 189.084 202.252C183.939 199.078 178.865 195.453 174.882 190.881C170.923 186.356 169.05 180.575 170.188 174.629Z" fill="#F17785"/>
<path d="M220.215 191.497C218.484 191.852 216.801 192.658 215.165 193.581C214.904 193.629 214.667 193.7 214.383 193.771C214.122 193.842 213.837 193.913 213.553 194.008C212.415 194.316 211.182 194.719 209.878 195.169C209.238 195.406 208.55 195.666 207.862 195.927C207.175 196.211 206.464 196.495 205.752 196.827C204.33 197.49 202.836 198.201 201.342 199.054C200.963 199.267 200.584 199.48 200.204 199.694C199.825 199.907 199.446 200.144 199.066 200.381C198.687 200.618 198.307 200.855 197.928 201.091C197.549 201.352 197.169 201.589 196.79 201.85C196.434 202.086 196.079 202.347 195.747 202.584C195.391 202.845 195.059 203.081 194.727 203.342C194.395 203.579 194.063 203.863 193.731 204.124C193.4 204.384 193.091 204.645 192.759 204.906C192.712 204.953 192.641 205 192.593 205.048C192.309 204.527 192.024 204.029 191.764 203.532C191.313 202.726 190.91 201.992 190.507 201.305C190.104 200.618 189.701 199.978 189.345 199.409C189.156 199.125 188.966 198.841 188.776 198.604C188.587 198.343 188.421 198.106 188.231 197.893C187.875 197.467 187.52 197.088 187.188 196.803C186.856 196.519 186.524 196.306 186.216 196.187C185.907 196.069 185.599 196.045 185.338 196.116C185.077 196.187 184.817 196.377 184.627 196.638C184.437 196.898 184.271 197.254 184.153 197.704C184.034 198.154 183.963 198.675 183.963 199.291C183.963 199.599 183.963 199.907 183.987 200.262C184.011 200.594 184.034 200.949 184.105 201.328C184.2 202.086 184.39 202.892 184.627 203.745C184.864 204.598 185.172 205.522 185.552 206.469C186.31 208.364 187.377 210.402 188.752 212.463C189.867 214.311 192.38 214.69 193.992 213.268L194.158 213.126C194.68 212.676 195.201 212.202 195.723 211.729C195.984 211.492 196.268 211.255 196.529 211.018C196.814 210.781 197.075 210.52 197.359 210.283C197.644 210.046 197.928 209.81 198.213 209.573C198.497 209.336 198.782 209.075 199.09 208.838C199.398 208.601 199.683 208.364 199.991 208.104C200.299 207.843 200.607 207.606 200.916 207.369C201.247 207.109 201.556 206.848 201.888 206.611C202.22 206.351 202.551 206.114 202.86 205.877C203.192 205.64 203.5 205.379 203.832 205.143C204.164 204.906 204.472 204.669 204.804 204.432C206.084 203.508 207.341 202.655 208.55 201.826C209.166 201.423 209.759 201.044 210.328 200.665C210.921 200.286 211.49 199.931 212.035 199.575C213.15 198.888 214.193 198.249 215.165 197.68C215.355 197.562 215.544 197.443 215.734 197.348C215.971 197.443 216.185 197.49 216.398 197.538C217.702 197.775 219.03 197.348 220.334 196.874C222.847 195.927 225.431 194.624 227.779 193.06C225.502 191.544 222.823 190.975 220.215 191.497Z" fill="#F68895"/>
<path d="M150.438 173.302C156.507 172.544 162.79 173.516 168.362 176.027C167.414 179.035 166.679 182.044 165.73 185.053C162.127 184.769 158.475 185.006 154.919 185.645C154.563 181.097 152.785 177.211 150.438 173.302Z" fill="#3664AD"/>
<path d="M299.5 239.873C301.492 239.731 303.531 240.11 305.356 240.987C306.139 241.366 306.898 241.839 307.727 242.1C308.557 242.384 309.529 242.432 310.288 242.005C311.023 241.579 311.45 240.773 311.829 240.015C313.275 236.935 314.2 233.619 314.603 230.231C314.674 229.686 314.722 229.141 314.603 228.596C314.485 228.051 314.153 227.554 313.655 227.317C312.92 226.985 312.019 227.388 311.497 228.004C310.976 228.62 310.691 229.402 310.359 230.136C309.387 232.126 307.704 233.761 305.688 234.661C303.673 235.561 301.326 235.727 299.192 235.111C299.263 236.556 299.405 238.404 299.5 239.873Z" fill="url(#paint5_linear)"/>
<path d="M164.735 177.519C164.829 179.391 164.782 181.286 164.616 183.158C166.323 184.461 168.22 185.266 170.378 185.219C172.535 185.171 174.669 184.413 176.329 183.039C174.859 180.694 173.649 178.23 172.677 175.671C172.156 174.274 171.705 172.852 171.326 171.431C171.278 171.265 171.231 171.099 171.184 170.933C170.923 169.914 170.709 168.872 170.52 167.83C168.054 165.887 165.043 164.868 162.032 163.992C162.624 165.626 163.146 167.332 163.549 169.014C164.213 171.786 164.592 174.629 164.735 177.496C164.735 177.496 164.735 177.495 164.735 177.519Z" fill="#F68895"/>
<path d="M162.055 163.968C162.648 165.603 163.17 167.309 163.573 168.991C164.237 171.762 164.616 174.605 164.758 177.472V177.496C165.304 176.453 165.944 175.434 166.679 174.487C167.888 172.947 169.429 171.62 171.231 170.91C170.97 169.891 170.757 168.848 170.567 167.806C168.078 165.887 165.067 164.845 162.055 163.968Z" fill="#F17785"/>
<path d="M161.866 163.731C162.127 164.395 162.411 165.034 162.601 165.721C162.672 165.982 162.743 166.219 162.79 166.479C162.885 166.574 162.956 166.669 163.051 166.764C164.521 168.398 166.394 169.772 168.552 170.151C170.709 170.53 173.175 169.701 174.266 167.782C175.262 166.029 174.906 163.779 174.052 161.931C173.199 160.083 171.919 158.496 170.994 156.695C170.52 155.795 170.164 154.776 170.022 153.781C169.903 152.952 169.927 152.123 170.164 151.341C169.548 152.099 168.765 152.763 167.959 153.307C166.56 154.255 165.019 155.013 163.691 156.079C162.364 157.145 161.249 158.614 161.131 160.32C161.036 161.504 161.439 162.641 161.866 163.731Z" fill="#F68895"/>
<path d="M190.649 217.154C190.554 217.296 187.425 222.2 172.796 221.987C171.421 216.088 168.789 210.354 164.995 205.379C163.905 203.958 162.719 202.584 161.605 201.186C160.135 199.362 158.76 197.49 157.788 195.429C156.057 191.781 155.867 187.209 158.736 184.2C159.993 182.873 161.747 181.997 163.62 181.476C164.403 181.262 165.209 181.096 166.039 181.002C168.789 180.67 171.184 181.239 173.958 181.168C174.716 181.144 175.499 181.191 176.234 181.286C177.514 181.452 179.008 182.257 180.525 183.394C186.405 187.754 189.559 194.884 189.061 202.181C188.752 206.374 188.942 211.776 190.649 217.154Z" fill="url(#paint6_linear)"/>
<path d="M163.597 181.476C165.375 184.484 168.149 186.924 171.373 188.251C172.369 188.678 173.436 188.985 174.527 188.962C175.617 188.938 176.708 188.535 177.419 187.706C178.392 186.522 178.344 184.745 177.704 183.371C177.348 182.589 176.827 181.926 176.258 181.286C175.499 181.191 174.74 181.144 173.982 181.168C171.207 181.239 168.813 180.67 166.062 181.002C165.185 181.096 164.379 181.262 163.597 181.476Z" fill="#F68895"/>
<path d="M301.065 234.59C298.955 234.495 296.062 234.353 294.355 234.258C292.956 234.187 291.486 234.116 289.945 234.021C289.186 233.998 288.404 233.927 287.598 233.879C287.124 233.856 286.65 233.808 286.175 233.785C285.843 233.761 285.511 233.737 285.18 233.713C284.35 233.666 283.52 233.595 282.666 233.548C282.24 233.524 281.813 233.5 281.386 233.453C280.959 233.405 280.532 233.382 280.082 233.334C278.327 233.192 276.549 233.026 274.724 232.884C273.799 232.813 272.874 232.718 271.95 232.624C271.001 232.529 270.053 232.434 269.081 232.339C268.678 231.7 268.251 231.013 267.777 230.278C267.208 229.402 266.615 228.454 265.975 227.483C265.335 226.512 264.671 225.445 263.959 224.356C263.722 224 263.509 223.669 263.272 223.313C262.774 222.531 262.3 221.75 261.778 220.92C261.399 220.328 261.043 219.712 260.64 219.073C260.261 218.457 259.881 217.817 259.478 217.154C259.099 216.49 258.696 215.827 258.317 215.164C258.127 214.832 257.913 214.477 257.724 214.145C257.534 213.79 257.344 213.458 257.131 213.103C256.728 212.416 256.325 211.705 255.922 210.97C255.519 210.236 255.139 209.502 254.736 208.767C254.333 208.033 253.93 207.251 253.527 206.493C253.124 205.711 252.697 204.953 252.318 204.147C251.915 203.366 251.536 202.56 251.132 201.755C250.753 200.949 250.374 200.12 249.971 199.291C248.43 195.951 246.936 192.468 245.561 188.843L243.569 183.631C243.569 183.631 243.545 183.631 243.522 183.655L241.008 184.318C232.852 186.64 206.961 195.311 190.199 215.519C190.175 215.543 190.175 215.543 190.151 215.566C188.515 217.627 184.01 221.489 172.772 222.01C172.772 222.01 168.172 230.42 177.016 235.775C177.04 235.798 188.183 238.096 202.267 240.063C205.231 240.465 208.384 240.892 211.727 241.271C232.497 243.711 259.976 245.44 286.412 242.503C291.486 241.934 296.489 241.2 301.444 240.276C302.796 240.015 303.744 238.854 303.744 237.48V237.409C303.744 235.893 302.559 234.661 301.065 234.59ZM257.25 230.989C255.211 230.705 253.148 230.444 251.061 230.207C248.975 229.899 246.936 229.615 244.897 229.331C244.399 229.26 243.877 229.189 243.379 229.117C242.882 229.046 242.384 228.952 241.886 228.881C240.89 228.738 239.894 228.596 238.922 228.43C237.95 228.288 236.978 228.17 236.006 228.028C235.057 227.886 234.109 227.72 233.161 227.578C232.212 227.435 231.288 227.293 230.387 227.175C229.462 227.033 228.561 226.938 227.66 226.772C225.858 226.488 224.127 226.227 222.42 226.014C221.993 225.967 221.567 225.896 221.14 225.848C220.713 225.777 220.31 225.73 219.883 225.659C219.053 225.54 218.247 225.422 217.441 225.303C216.635 225.185 215.853 225.09 215.07 224.995C214.288 224.901 213.529 224.829 212.77 224.735C211.277 224.545 209.83 224.379 208.455 224.261C207.08 224.142 205.752 224.048 204.496 223.953C204.875 223.692 205.254 223.432 205.634 223.147C206.155 222.792 206.677 222.437 207.199 222.058C207.72 221.679 208.242 221.276 208.787 220.873C209.332 220.47 209.878 220.068 210.447 219.641C211.537 218.765 212.723 217.912 213.885 216.964C214.477 216.49 215.094 216.04 215.687 215.566C216.303 215.093 216.919 214.595 217.56 214.098C218.2 213.624 218.84 213.126 219.504 212.605C219.836 212.344 220.144 212.084 220.476 211.823C220.808 211.563 221.14 211.326 221.495 211.065C224.175 208.98 227.067 206.872 230.126 204.692C230.884 204.147 231.667 203.626 232.449 203.081C233.255 202.56 234.062 202.015 234.868 201.47C235.081 201.328 235.271 201.186 235.484 201.068C235.484 201.068 242.55 216.088 256.135 229.473C256.681 230.018 257.226 230.539 257.795 231.06C257.653 231.036 257.463 231.013 257.25 230.989Z" fill="#1E417A"/>
<path opacity="0.5" d="M269.104 232.339C261.707 231.889 257.866 231.084 257.866 231.084C257.297 230.563 256.752 230.018 256.206 229.497C260.948 228.738 262.75 226.014 263.319 223.313C263.533 223.669 263.77 224.024 264.007 224.356C264.718 225.445 265.358 226.511 266.022 227.483C266.662 228.454 267.255 229.425 267.824 230.278C268.251 230.989 268.678 231.676 269.104 232.339Z" fill="#061F49"/>
<path d="M169.856 164.418C170.757 164.158 171.61 163.731 172.322 163.115C172.488 162.973 172.725 163.068 172.772 163.257C172.914 163.755 172.891 164.276 172.606 164.726C172.251 165.318 171.587 165.698 170.899 165.698C170.354 165.721 169.998 165.295 169.666 164.845C169.571 164.702 169.643 164.466 169.856 164.418Z" fill="#F9DEE4"/>
<path d="M151.813 172.023C151.742 172.9 151.457 174.179 150.58 174.747L149.821 175.032L146.502 175.008C144.297 174.818 142.115 174.25 140.076 173.373C139.65 173.184 139.247 172.994 138.82 172.781L139.982 172.284L146.217 169.701L151.362 170.933L151.813 171.052C151.836 171.052 151.86 171.454 151.813 172.023Z" fill="#311649"/>
<path d="M190.72 284.672C191.621 286.852 191.953 289.268 191.669 291.614C191.55 292.632 191.289 293.651 191.313 294.693C191.313 295.736 191.621 296.826 192.38 297.513C193.139 298.176 194.182 298.365 195.202 298.484C199.208 298.934 203.263 298.721 207.199 297.892C207.839 297.749 208.479 297.607 209.024 297.276C209.57 296.944 210.02 296.375 210.091 295.736C210.186 294.788 209.404 293.935 208.503 293.58C207.625 293.225 206.63 293.225 205.681 293.106C203.097 292.774 200.631 291.495 198.853 289.576C197.075 287.657 196.031 285.099 195.913 282.493C194.324 283.132 192.309 284.009 190.72 284.672Z" fill="url(#paint7_linear)"/>
<path d="M226.071 283.819C226.783 286.07 226.901 288.51 226.403 290.832C226.19 291.85 225.858 292.845 225.763 293.864C225.668 294.907 225.882 296.02 226.569 296.778C227.257 297.513 228.3 297.797 229.296 297.986C233.232 298.792 237.31 298.958 241.293 298.484C241.933 298.413 242.597 298.318 243.166 298.034C243.735 297.749 244.257 297.228 244.375 296.612C244.565 295.665 243.854 294.764 243 294.314C242.147 293.888 241.175 293.793 240.226 293.58C237.666 293.011 235.342 291.519 233.753 289.458C232.165 287.397 231.335 284.743 231.477 282.137C229.818 282.635 227.707 283.298 226.071 283.819Z" fill="url(#paint8_linear)"/>
<path d="M237.191 282.777C237.049 285.809 234.678 288.226 231.667 288.463C229.675 288.605 227.613 288.51 225.621 288.178C222.681 287.681 220.523 285.099 220.642 282.114C220.832 276.191 220.784 270.245 219.575 264.464C218.034 257.167 214.383 250.06 208.218 245.843C203.405 242.55 197.596 241.366 191.693 241.484C192.404 243.285 192.973 245.132 193.494 246.957C197.098 259.205 199.303 269.013 202.812 281.308C203.547 283.867 202.172 286.544 199.683 287.444C196.197 288.723 192.546 289.363 188.847 289.244C186.358 289.15 184.295 287.231 184.034 284.743C182.47 270.268 179.198 258.328 172.18 245.63C164.426 244.848 156.673 244.043 148.92 243.261C145.648 242.929 142.258 242.55 139.46 240.797C136.9 239.186 135.098 236.438 134.623 233.453C134.292 231.416 134.6 229.283 135.453 227.388C138.109 227.672 140.812 227.815 143.586 227.815C154.611 227.815 164.853 225.517 173.412 221.56C173.412 221.537 173.389 221.489 173.389 221.465C186.168 224.261 200.75 227.483 213.292 230.231C218.816 231.439 224.649 232.813 228.608 236.841C232.07 240.371 233.493 245.346 234.536 250.179C236.788 260.792 237.666 271.879 237.191 282.777Z" fill="#0063FF"/>
<path d="M136.496 156.34C134.813 154.61 133.485 152.526 132.608 150.299C132.039 148.83 131.707 147.029 132.679 145.797C133.39 144.921 134.576 144.589 135.666 144.329C137.326 143.926 139.01 143.499 140.669 143.097C138.891 144.66 137.611 146.556 137.16 148.901C136.71 151.223 137.065 153.686 138.132 155.795C137.658 155.984 136.947 156.127 136.496 156.34Z" fill="#1E202F"/>
<path d="M173.389 221.537C164.83 225.493 154.587 227.791 143.562 227.791C140.314 227.791 137.137 227.601 134.054 227.199C133.746 225.682 132.774 220.826 132.395 218.883C131.897 216.23 131.399 213.269 130.972 210.141C130.19 204.503 129.668 198.414 129.929 192.895C129.929 192.8 129.929 192.681 129.953 192.587L129.573 192.729L124.357 194.719C123.527 194.292 122.769 193.818 122.105 193.274C121.962 193.155 121.82 193.06 121.702 192.942C121.631 192.895 121.583 192.823 121.512 192.776C121.441 192.705 121.393 192.658 121.322 192.61C120.753 192.089 120.279 191.52 119.829 190.928C119.781 190.857 119.734 190.81 119.686 190.739C119.544 190.549 119.402 190.336 119.283 190.146C119.236 190.075 119.188 190.004 119.165 189.957C119.117 189.886 119.094 189.815 119.046 189.767C118.88 189.507 118.738 189.222 118.596 188.962C118.548 188.891 118.525 188.82 118.501 188.749C118.43 188.607 118.359 188.464 118.311 188.346C118.287 188.275 118.24 188.204 118.216 188.133C118.145 187.991 118.098 187.848 118.05 187.73C118.003 187.588 117.932 187.469 117.884 187.327C117.79 187.067 117.695 186.782 117.6 186.522C117.576 186.451 117.552 186.38 117.529 186.332C117.41 185.929 117.292 185.527 117.221 185.148C117.197 185.077 117.197 185.029 117.173 184.958C117.102 184.626 117.031 184.318 116.983 184.011C116.96 183.916 116.96 183.821 116.936 183.726C116.936 183.679 116.912 183.655 116.912 183.608C116.889 183.537 116.889 183.442 116.889 183.371C116.889 183.347 116.889 183.347 116.889 183.347C116.865 183.229 116.865 183.134 116.841 183.016C116.794 182.684 116.77 182.4 116.746 182.115C116.746 182.092 116.746 182.068 116.746 182.044C116.746 181.973 116.746 181.878 116.723 181.807C116.723 181.76 116.723 181.713 116.723 181.665C116.723 181.618 116.723 181.57 116.723 181.523C127.463 174.771 136.568 174.771 139.247 174.961C139.555 174.984 139.768 175.008 139.887 175.032C139.934 175.008 139.982 175.008 140.006 174.984C140.053 174.961 140.124 174.937 140.171 174.913C140.29 174.866 140.385 174.842 140.503 174.795C140.527 174.795 140.551 174.771 140.551 174.771C140.669 174.747 140.764 174.7 140.883 174.676C141.072 174.605 141.262 174.558 141.452 174.487C141.57 174.439 141.689 174.416 141.831 174.368C142.068 174.297 142.329 174.226 142.566 174.155C142.803 174.084 143.064 174.037 143.325 173.966C143.704 173.871 144.084 173.8 144.463 173.705C144.747 173.658 145.008 173.61 145.293 173.539C145.53 173.492 145.767 173.468 146.004 173.421C146.36 173.373 146.739 173.326 147.095 173.279C147.19 173.279 147.284 173.255 147.379 173.255C149.039 173.065 150.675 173.018 152.287 173.089C152.287 173.089 153.354 173.231 155.322 175.671C158.784 179.959 165.09 191.355 173.389 221.537Z" fill="#3664AD"/>
<path d="M151.813 172.023C151.742 172.9 151.457 174.179 150.58 174.748L149.821 175.032L146.502 175.008C144.297 174.819 142.116 174.25 140.077 173.373C140.053 173.018 140.029 172.663 140.005 172.307C139.863 170.27 139.673 168.209 139.484 166.172C139.247 163.494 138.986 160.841 138.725 158.164C141.973 158.875 145.056 159.941 148.233 161.315C148.683 163.044 149.181 164.774 149.75 166.479C150.224 167.925 150.746 169.346 151.291 170.744C151.315 170.815 151.339 170.886 151.362 170.933C151.528 171.312 151.671 171.668 151.813 172.023Z" fill="#F68895"/>
<path d="M151.315 170.744C147.616 168.683 143.633 167.143 139.507 166.172C139.27 163.494 139.01 160.841 138.749 158.164C141.997 158.875 145.079 159.941 148.256 161.315C148.707 163.044 149.205 164.774 149.774 166.479C150.248 167.925 150.746 169.346 151.315 170.744Z" fill="#F17785"/>
<path d="M149.11 147.029C150.485 149.043 150.699 151.791 149.632 153.971C148.185 152.644 147.024 150.915 146.289 149.09C146.099 148.593 145.933 148.024 146.194 147.574C146.455 147.124 147 146.958 147.498 146.911C147.996 146.887 148.636 147.266 149.11 147.029Z" fill="#311649"/>
<path d="M147.379 146.887C147.498 149.541 149.252 151.815 150.817 153.971C152.382 156.127 153.923 158.638 153.544 161.267C153.141 164.016 150.532 166.124 147.782 166.385C145.032 166.645 142.258 165.271 140.456 163.186C138.63 161.102 137.682 158.377 137.255 155.629C136.852 152.881 136.971 150.109 137.089 147.337C139.934 144.897 144.036 145.182 147.379 146.887Z" fill="#F68895"/>
<path d="M138.109 156.269C137.706 156.008 137.255 155.748 136.781 155.629C136.307 155.511 135.785 155.534 135.358 155.771C134.813 156.103 134.529 156.743 134.481 157.382C134.386 158.59 135.098 159.822 136.188 160.367C137.279 160.912 138.701 160.699 139.602 159.893C138.939 158.733 138.512 157.548 138.109 156.269Z" fill="#F68895"/>
<path d="M135.738 145.537C137.801 145.608 139.745 143.902 139.958 141.841C140.1 140.443 139.508 139.022 139.863 137.672C140.385 135.658 142.874 134.687 144.89 135.16C146.905 135.634 148.517 137.15 149.869 138.714C151.339 140.42 152.714 142.528 152.382 144.755C151.979 147.408 149.157 149.138 146.478 149.256C143.799 149.375 141.238 148.261 138.773 147.172C140.171 148.498 140.622 150.701 140.503 152.597C140.409 154.516 139.413 156.364 137.895 157.524C135.43 154.326 135.145 149.517 135.738 145.537Z" fill="#1E202F"/>
<path d="M163.193 229.118C163.193 228.975 163.834 228.833 164.972 228.715C166.133 228.596 167.793 228.502 169.879 228.525C170.14 228.525 170.401 228.525 170.686 228.549C170.946 228.549 171.231 228.573 171.515 228.596C171.8 228.62 172.084 228.62 172.393 228.644C172.677 228.667 172.985 228.691 173.294 228.715C173.91 228.762 174.55 228.857 175.19 228.928C175.522 228.975 175.854 229.046 176.186 229.094C176.518 229.165 176.874 229.212 177.206 229.283C177.538 229.354 177.893 229.449 178.249 229.52C178.605 229.615 178.937 229.71 179.292 229.828C179.458 229.876 179.648 229.923 179.838 229.994C180.003 230.065 180.193 230.113 180.359 230.184C180.549 230.255 180.715 230.302 180.904 230.373C181.094 230.444 181.26 230.492 181.45 230.586C181.805 230.752 182.161 230.894 182.517 231.06C182.872 231.226 183.228 231.439 183.584 231.605C183.939 231.795 184.271 232.008 184.627 232.221C184.793 232.339 184.983 232.434 185.148 232.553C185.314 232.647 185.48 232.79 185.646 232.932C185.978 233.192 186.31 233.429 186.618 233.69C186.927 233.974 187.235 234.235 187.519 234.519C187.804 234.803 188.065 235.111 188.349 235.396C188.42 235.467 188.492 235.538 188.539 235.609L188.729 235.846C188.847 235.988 188.966 236.154 189.108 236.296C190.08 237.528 190.863 238.783 191.503 240.039C191.669 240.347 191.811 240.679 191.953 240.963C192.024 241.129 192.095 241.271 192.167 241.413C192.238 241.555 192.285 241.721 192.356 241.863C192.475 242.171 192.617 242.479 192.736 242.763C192.854 243.071 192.949 243.356 193.067 243.64C193.186 243.924 193.281 244.209 193.352 244.493C193.447 244.777 193.542 245.061 193.613 245.322C193.779 245.867 193.921 246.388 194.063 246.909C194.585 248.923 194.869 250.581 195.035 251.718C195.201 252.856 195.201 253.519 195.059 253.543C194.917 253.566 194.632 252.998 194.229 251.908C193.826 250.818 193.305 249.255 192.617 247.336C192.451 246.862 192.261 246.364 192.072 245.843C191.977 245.583 191.858 245.322 191.763 245.061C191.669 244.801 191.55 244.516 191.432 244.256C191.313 243.995 191.194 243.711 191.076 243.427C190.934 243.142 190.815 242.882 190.673 242.598C190.602 242.455 190.531 242.313 190.459 242.171C190.388 242.029 190.317 241.887 190.246 241.745C190.104 241.46 189.962 241.176 189.796 240.892C189.155 239.755 188.397 238.618 187.496 237.528C187.377 237.386 187.259 237.267 187.164 237.125L186.998 236.912C186.95 236.841 186.879 236.793 186.808 236.722C186.571 236.462 186.31 236.201 186.073 235.964C185.812 235.727 185.528 235.49 185.267 235.253C184.983 235.017 184.698 234.803 184.413 234.59C184.271 234.472 184.129 234.353 183.963 234.258C183.821 234.164 183.655 234.069 183.513 233.95C183.204 233.761 182.92 233.548 182.588 233.382C182.28 233.216 181.971 233.026 181.639 232.861C181.308 232.719 180.999 232.553 180.667 232.411C180.501 232.339 180.335 232.268 180.193 232.197C180.027 232.126 179.861 232.079 179.695 232.008C179.529 231.937 179.363 231.889 179.221 231.818C179.055 231.771 178.889 231.723 178.723 231.652C178.391 231.558 178.083 231.439 177.751 231.344C177.419 231.25 177.111 231.179 176.779 231.084C176.471 230.989 176.139 230.918 175.831 230.847C175.522 230.776 175.214 230.705 174.906 230.634C174.289 230.515 173.697 230.397 173.104 230.326C172.819 230.278 172.535 230.231 172.25 230.184C171.966 230.136 171.681 230.113 171.421 230.065C171.136 230.041 170.875 229.994 170.614 229.97C170.354 229.947 170.093 229.923 169.832 229.899C167.817 229.686 166.157 229.544 165.019 229.426C163.81 229.402 163.193 229.26 163.193 229.118Z" fill="#4D91FD"/>
<path d="M136.046 208.507C135.809 208.791 135.406 208.957 134.86 208.957C134.576 208.957 134.268 208.933 133.936 208.862C133.77 208.838 133.58 208.791 133.39 208.744C133.201 208.696 133.011 208.649 132.798 208.601C132.395 208.507 131.944 208.365 131.47 208.199C130.996 208.057 130.474 207.891 129.953 207.701C129.407 207.512 128.838 207.346 128.245 207.133C127.653 206.943 126.989 206.754 126.325 206.54C124.974 206.161 123.504 205.759 121.915 205.474C120.326 205.143 118.619 204.953 116.841 204.835C116.391 204.811 115.94 204.787 115.49 204.764C115.039 204.764 114.565 204.764 114.115 204.764C113.64 204.764 113.19 204.811 112.716 204.811C112.241 204.811 111.767 204.882 111.293 204.906C111.056 204.929 110.819 204.953 110.582 204.977C110.345 205 110.108 205.048 109.871 205.072C109.633 205.095 109.396 205.143 109.159 205.166L108.804 205.214L108.448 205.285C108.211 205.332 107.974 205.38 107.737 205.427L107.381 205.498L107.191 205.545H107.144H107.12C107.12 205.545 107.12 205.545 107.096 205.545H107.025C106.859 205.569 106.67 205.569 106.504 205.593C106.338 205.616 106.172 205.616 105.982 205.593C105.792 205.593 105.626 205.569 105.437 205.545C105.081 205.498 104.702 205.427 104.346 205.332C103.991 205.237 103.635 205.072 103.279 204.906C102.924 204.74 102.615 204.527 102.307 204.313C101.098 203.437 100.244 202.205 99.8176 200.783C99.6042 200.073 99.5094 199.315 99.5331 198.557C99.5568 198.178 99.6042 197.798 99.6754 197.419C99.7702 197.04 99.865 196.661 100.007 196.306C100.15 195.951 100.316 195.619 100.505 195.311C100.6 195.169 100.695 195.003 100.79 194.861L100.956 194.648L101.074 194.505L101.382 194.103C101.596 193.842 101.809 193.558 102.023 193.297C102.236 193.037 102.449 192.752 102.663 192.515C103.113 192.018 103.564 191.52 103.991 191.047C104.441 190.573 104.915 190.123 105.366 189.696C105.484 189.578 105.603 189.483 105.721 189.365L106.077 189.057C106.314 188.843 106.551 188.654 106.788 188.441C107.025 188.227 107.262 188.038 107.5 187.825C107.737 187.635 107.974 187.446 108.211 187.256C108.448 187.067 108.685 186.901 108.922 186.711C109.159 186.522 109.396 186.356 109.633 186.19C110.108 185.858 110.605 185.527 111.056 185.219C112.976 184.01 114.873 182.944 116.699 182.186C116.723 182.163 116.77 182.163 116.794 182.139C116.817 182.376 116.841 182.636 116.865 182.897C116.865 182.992 116.889 183.11 116.912 183.229V183.252C116.912 183.323 116.936 183.395 116.936 183.489C116.936 183.537 116.936 183.56 116.96 183.608C116.983 183.703 116.983 183.797 117.007 183.892C117.055 184.2 117.126 184.532 117.197 184.84C117.22 184.911 117.22 184.958 117.244 185.029C117.339 185.408 117.434 185.811 117.552 186.214C117.576 186.285 117.6 186.356 117.624 186.427C117.695 186.688 117.79 186.972 117.908 187.232C117.955 187.375 118.003 187.517 118.074 187.635C118.121 187.777 118.193 187.919 118.24 188.038C118.264 188.109 118.311 188.18 118.335 188.251C118.406 188.393 118.453 188.535 118.525 188.654C118.548 188.725 118.596 188.796 118.619 188.867C118.762 189.151 118.904 189.412 119.07 189.673C119.117 189.744 119.141 189.815 119.188 189.862C119.236 189.933 119.26 190.004 119.307 190.075C119.425 190.265 119.568 190.478 119.71 190.668C119.757 190.739 119.805 190.81 119.852 190.857C120.279 191.449 120.777 191.994 121.346 192.539C121.417 192.61 121.465 192.658 121.536 192.705C121.607 192.752 121.678 192.823 121.725 192.871C121.868 192.989 121.986 193.108 122.128 193.202C122.342 193.368 122.555 193.51 122.769 193.676C122.508 193.795 122.271 193.913 122.01 194.032C121.654 194.197 121.299 194.363 120.943 194.529C120.587 194.719 120.232 194.885 119.852 195.05C119.663 195.145 119.473 195.216 119.283 195.311C119.094 195.406 118.928 195.5 118.738 195.595C118.453 195.737 118.145 195.903 117.861 196.045C118.003 196.069 118.121 196.116 118.264 196.14C118.525 196.211 118.809 196.259 119.07 196.33C119.331 196.401 119.591 196.472 119.852 196.543C120.113 196.614 120.374 196.685 120.611 196.756C120.872 196.827 121.109 196.898 121.37 196.993C121.868 197.159 122.342 197.325 122.816 197.49C122.935 197.538 123.053 197.562 123.172 197.609C123.29 197.656 123.409 197.704 123.527 197.751C123.764 197.846 123.978 197.941 124.215 198.012C125.116 198.367 125.969 198.77 126.799 199.149C127.202 199.338 127.582 199.552 127.985 199.765C128.364 199.978 128.743 200.168 129.099 200.357C129.455 200.57 129.787 200.784 130.119 200.997C130.284 201.091 130.45 201.21 130.616 201.305C130.782 201.399 130.925 201.518 131.091 201.613C131.399 201.826 131.683 202.039 131.968 202.252C132.252 202.466 132.513 202.655 132.774 202.868C133.272 203.295 133.722 203.697 134.125 204.077C134.529 204.479 134.86 204.858 135.145 205.214C135.287 205.403 135.429 205.569 135.548 205.735C135.667 205.901 135.761 206.09 135.856 206.232C136.046 206.564 136.164 206.848 136.259 207.133C136.307 207.796 136.283 208.222 136.046 208.507Z" fill="#F7929E"/>
<path d="M129.81 201.85C133.272 202.892 136.307 205.261 138.132 208.365C139.057 209.928 139.674 211.966 138.749 213.553C138.085 214.69 136.781 215.282 135.548 215.78C134.41 216.254 133.059 216.704 132.039 216.04C130.806 215.259 130.901 213.482 130.901 212.013C130.901 209.502 130.213 206.99 128.933 204.858C129.289 203.697 129.478 202.987 129.81 201.85Z" fill="#F7929E"/>
<path d="M138.82 172.805C138.156 173.658 136.994 174.321 136.046 174.866C137.089 177.069 139.152 178.68 141.404 179.604C143.657 180.528 146.122 180.812 148.541 180.978C148.612 178.988 149.015 176.927 149.797 175.079C146.028 175.316 142.187 174.534 138.82 172.805Z" fill="#1C427E"/>
<path d="M154.824 171.976L151.836 171.052C151.836 171.052 152.097 174.7 149.797 175.055C149.797 175.055 153.615 176.524 154.444 179.888C154.468 179.888 156.91 176.382 154.824 171.976Z" fill="#1C427E"/>
<path d="M151.173 158.164C151.291 158.164 151.434 158.496 151.363 159.064C151.315 159.349 151.197 159.68 150.983 159.988C150.77 160.296 150.462 160.604 150.058 160.817C149.655 161.031 149.229 161.102 148.826 161.102C148.446 161.102 148.114 161.007 147.853 160.888C147.332 160.628 147.142 160.32 147.213 160.225C147.284 160.13 147.593 160.225 148.019 160.296C148.446 160.367 149.086 160.344 149.632 160.059C150.177 159.775 150.556 159.278 150.746 158.875C150.983 158.472 151.054 158.164 151.173 158.164Z" fill="#ED5D71"/>
<path d="M435.807 145.561H310.335V228.833H435.807V145.561Z" fill="#323658"/>
<path d="M442.991 228.833V145.561H317.52V228.833H377.22V237.48H365.271C362.236 237.48 359.794 239.921 359.794 242.953H400.693C400.693 239.921 398.251 237.48 395.216 237.48H383.266V228.833H442.991Z" fill="#1E202F"/>
<path d="M454.016 242.953H299.453V298.105H454.016V242.953Z" fill="#A1BAE1"/>
<path d="M461.2 242.953H306.637V298.105H461.2V242.953Z" fill="#86A4D4"/>
<mask id="mask3" mask-type="alpha" maskUnits="userSpaceOnUse" x="402" y="213" width="95" height="76">
<path d="M463.571 288.486C457.359 288.486 451.147 288.013 445.03 287.041C438.699 286.046 430.757 284.175 425.635 278.56C420.68 273.135 419.613 265.554 419.589 260.152C419.589 256.314 420.016 252.477 420.443 248.781C420.727 246.27 421.036 243.664 421.178 241.105C421.628 233.548 420.514 227.696 417.787 223.266C414.871 218.528 408.778 214.595 402.779 216.23L402.234 214.263C409.205 212.368 416.199 216.822 419.518 222.2C422.482 227.009 423.691 233.216 423.217 241.223C423.051 243.829 422.766 246.459 422.458 249.018C422.031 252.666 421.605 256.457 421.605 260.152C421.628 265.198 422.577 272.235 427.105 277.186C431.8 282.35 439.316 284.08 445.314 285.027C461.958 287.633 479.338 286.615 495.555 282.066L496.1 284.032C485.573 286.994 474.572 288.486 463.571 288.486Z" fill="url(#paint9_linear)"/>
</mask>
<g mask="url(#mask3)">
<path d="M463.571 288.486C457.359 288.486 451.147 288.013 445.03 287.041C438.699 286.046 430.757 284.175 425.635 278.56C420.68 273.135 419.613 265.554 419.589 260.152C419.589 256.314 420.016 252.477 420.443 248.781C420.727 246.27 421.036 243.664 421.178 241.105C421.628 233.548 420.514 227.696 417.787 223.266C414.871 218.528 408.778 214.595 402.779 216.23L402.234 214.263C409.205 212.368 416.199 216.822 419.518 222.2C422.482 227.009 423.691 233.216 423.217 241.223C423.051 243.829 422.766 246.459 422.458 249.018C422.031 252.666 421.605 256.457 421.605 260.152C421.628 265.198 422.577 272.235 427.105 277.186C431.8 282.35 439.316 284.08 445.314 285.027C461.958 287.633 479.338 286.615 495.555 282.066L496.1 284.032C485.573 286.994 474.572 288.486 463.571 288.486Z" fill="url(#paint10_linear)"/>
</g>
<defs>
<linearGradient id="paint0_linear" x1="57.4963" y1="259.249" x2="60.3663" y2="70.2521" gradientUnits="userSpaceOnUse">
<stop stop-color="#86A4D4"/>
<stop offset="1" stop-color="#A1BAE1"/>
</linearGradient>
<linearGradient id="paint1_linear" x1="51.4504" y1="229.218" x2="43.4143" y2="87.3261" gradientUnits="userSpaceOnUse">
<stop/>
<stop offset="0.0299413" stop-color="#181818"/>
<stop offset="0.0968586" stop-color="#484848"/>
<stop offset="0.1693" stop-color="#747474"/>
<stop offset="0.2458" stop-color="#999999"/>
<stop offset="0.3274" stop-color="#B9B9B9"/>
<stop offset="0.4154" stop-color="#D3D3D3"/>
<stop offset="0.5125" stop-color="#E6E6E6"/>
<stop offset="0.6235" stop-color="#F4F4F4"/>
<stop offset="0.7603" stop-color="#FDFDFD"/>
<stop offset="1" stop-color="white"/>
</linearGradient>
<linearGradient id="paint2_linear" x1="55.8708" y1="231.775" x2="16.5334" y2="170.854" gradientUnits="userSpaceOnUse">
<stop/>
<stop offset="0.1189" stop-color="#393939"/>
<stop offset="0.2439" stop-color="#6D6D6D"/>
<stop offset="0.3711" stop-color="#9A9A9A"/>
<stop offset="0.498" stop-color="#BEBEBE"/>
<stop offset="0.6244" stop-color="#DBDBDB"/>
<stop offset="0.7504" stop-color="#EFEFEF"/>
<stop offset="0.8758" stop-color="#FBFBFB"/>
<stop offset="1" stop-color="white"/>
</linearGradient>
<linearGradient id="paint3_linear" x1="55.7707" y1="223.321" x2="90.5092" y2="155.225" gradientUnits="userSpaceOnUse">
<stop/>
<stop offset="0.1189" stop-color="#393939"/>
<stop offset="0.2439" stop-color="#6D6D6D"/>
<stop offset="0.3711" stop-color="#9A9A9A"/>
<stop offset="0.498" stop-color="#BEBEBE"/>
<stop offset="0.6244" stop-color="#DBDBDB"/>
<stop offset="0.7504" stop-color="#EFEFEF"/>
<stop offset="0.8758" stop-color="#FBFBFB"/>
<stop offset="1" stop-color="white"/>
</linearGradient>
<linearGradient id="paint4_linear" x1="38.1192" y1="302.983" x2="94.3579" y2="247.923" gradientUnits="userSpaceOnUse">
<stop stop-color="#86A4D5"/>
</linearGradient>
<linearGradient id="paint5_linear" x1="304.412" y1="241.405" x2="309.261" y2="225.934" gradientUnits="userSpaceOnUse">
<stop stop-color="#F17785"/>
<stop offset="0.1014" stop-color="#F27B89"/>
<stop offset="0.4999" stop-color="#F58592"/>
<stop offset="1" stop-color="#F68895"/>
</linearGradient>
<linearGradient id="paint6_linear" x1="197.756" y1="225.534" x2="156.623" y2="180.385" gradientUnits="userSpaceOnUse">
<stop stop-color="#C5205C"/>
<stop offset="0.0634786" stop-color="#D0275F"/>
<stop offset="0.2122" stop-color="#E33465"/>
<stop offset="0.3849" stop-color="#F13D69"/>
<stop offset="0.6013" stop-color="#F9426B"/>
<stop offset="1" stop-color="#FB446C"/>
</linearGradient>
<linearGradient id="paint7_linear" x1="190.842" y1="290.74" x2="209.991" y2="290.347" gradientUnits="userSpaceOnUse">
<stop stop-color="#F17785"/>
<stop offset="0.1014" stop-color="#F27B89"/>
<stop offset="0.4999" stop-color="#F58592"/>
<stop offset="1" stop-color="#F68895"/>
</linearGradient>
<linearGradient id="paint8_linear" x1="225.647" y1="289.874" x2="244.753" y2="291.215" gradientUnits="userSpaceOnUse">
<stop stop-color="#F17785"/>
<stop offset="0.1014" stop-color="#F27B89"/>
<stop offset="0.4999" stop-color="#F58592"/>
<stop offset="1" stop-color="#F68895"/>
</linearGradient>
<linearGradient id="paint9_linear" x1="402.258" y1="251.157" x2="496.123" y2="251.157" gradientUnits="userSpaceOnUse">
<stop stop-color="white"/>
<stop offset="0.3193" stop-color="#FDFDFD"/>
<stop offset="0.4343" stop-color="#F6F6F6"/>
<stop offset="0.5163" stop-color="#EBEBEB"/>
<stop offset="0.5827" stop-color="#DADADA"/>
<stop offset="0.6394" stop-color="#C4C4C4"/>
<stop offset="0.6898" stop-color="#A8A8A8"/>
<stop offset="0.7353" stop-color="#888888"/>
<stop offset="0.7771" stop-color="#626262"/>
<stop offset="0.816" stop-color="#373737"/>
<stop offset="0.8505" stop-color="#090909"/>
<stop offset="0.8569"/>
</linearGradient>
<linearGradient id="paint10_linear" x1="402.258" y1="251.157" x2="496.123" y2="251.157" gradientUnits="userSpaceOnUse">
<stop stop-color="#323658"/>
<stop offset="0.916667" stop-color="#D0DBED"/>
</linearGradient>
</defs>
</svg>
