<svg width="92" height="74" viewBox="0 0 92 74" fill="none" xmlns="http://www.w3.org/2000/svg">
<rect x="27" y="13.4706" width="38" height="39" rx="6" fill="#3664AD"/>
<path d="M52.6383 30.6456L53.6605 28.9265V28.9265L52.6383 30.6456ZM42.3608 24.5344L41.3386 26.2534L42.3608 24.5344ZM42.3608 41.4659L43.383 43.185L42.3608 41.4659ZM52.6383 35.3547L51.6161 33.6357V33.6357L52.6383 35.3547ZM53.6605 28.9265L43.383 22.8153L41.3386 26.2534L51.6161 32.3646L53.6605 28.9265ZM43.383 43.185L53.6605 37.0738L51.6161 33.6357L41.3386 39.7469L43.383 43.185ZM51.6161 32.3646C52.128 32.669 52.128 33.3313 51.6161 33.6357L53.6605 37.0738C56.7798 35.219 56.7798 30.7813 53.6605 28.9265L51.6161 32.3646ZM40 26.8889C40 26.6224 40.137 26.3859 40.4157 26.2353C40.6979 26.083 41.0365 26.0738 41.3386 26.2534L43.383 22.8153C40.2465 20.9503 36 23.0567 36 26.8889H40ZM36 39.1114C36 42.9436 40.2465 45.05 43.383 43.185L41.3386 39.7469C41.0365 39.9265 40.6979 39.9173 40.4157 39.765C40.1369 39.6144 40 39.3778 40 39.1114H36ZM40 39.1114V26.8889H36V39.1114H40Z" fill="#D0DBED"/>
<path d="M15.6552 69.7059C14.5506 69.7059 13.6552 70.6013 13.6552 71.7059C13.6552 72.8105 14.5506 73.7059 15.6552 73.7059V69.7059ZM76.3448 73.7059C77.4494 73.7059 78.3448 72.8105 78.3448 71.7059C78.3448 70.6013 77.4494 69.7059 76.3448 69.7059V73.7059ZM15.6552 73.7059H76.3448V69.7059H15.6552V73.7059ZM8.06897 4.58826H83.931V0.588257H8.06897V4.58826ZM88 8.87168V59.1385H92V8.87168H88ZM83.931 63.4219H8.06896V67.4219H83.931V63.4219ZM4 59.1385V8.87168H0V59.1385H4ZM8.06896 63.4219C5.88663 63.4219 4 61.5702 4 59.1385H0C0 63.6473 3.5477 67.4219 8.06896 67.4219V63.4219ZM88 59.1385C88 61.5702 86.1134 63.4219 83.931 63.4219V67.4219C88.4523 67.4219 92 63.6473 92 59.1385H88ZM83.931 4.58826C86.1134 4.58826 88 6.43998 88 8.87168H92C92 4.36291 88.4523 0.588257 83.931 0.588257V4.58826ZM8.06897 0.588257C3.5477 0.588257 0 4.3629 0 8.87168H4C4 6.43998 5.88663 4.58826 8.06897 4.58826V0.588257Z" fill="#1E202F"/>
</svg>
