<svg width="402" height="520" viewBox="0 0 402 520" fill="none" xmlns="http://www.w3.org/2000/svg">
<g clip-path="url(#clip0)">
<path d="M178.4 229.6C133.4 229.6 96.8 266.2 96.8 311.2C96.8 356.2 133.4 392.8 178.4 392.8C223.4 392.8 260 356.2 260 311.2C260 266.2 223.4 229.6 178.4 229.6ZM178.4 389.7C135.1 389.7 99.9 354.5 99.9 311.2C99.9 267.9 135.1 232.7 178.4 232.7C221.7 232.7 256.9 267.9 256.9 311.2C256.9 354.5 221.7 389.7 178.4 389.7Z" fill="#3664AD"/>
<path d="M17.9 490C17.2 489.6 16.2 489.8 15.8 490.6L0.2 517.5C-0.2 518.2 0 519.2 0.8 519.6C1 519.7 1.3 519.8 1.6 519.8C2.1 519.8 2.7 519.5 2.9 519L18.4 492.1C18.9 491.4 18.6 490.4 17.9 490Z" fill="#3664AD"/>
<path d="M104.7 339.5C104 339.1 103 339.3 102.6 340.1L28.8001 467.9C28.4001 468.6 28.6001 469.6 29.4001 470C29.6001 470.1 29.9001 470.2 30.2001 470.2C30.7001 470.2 31.3001 469.9 31.5001 469.4L105.3 341.6C105.7 340.9 105.5 339.9 104.7 339.5Z" fill="#3664AD"/>
<path d="M85.6 428.5C84.9 428.1 83.9 428.3 83.5 429.1L77 440.3C76.6 441 76.8 442 77.6 442.4C77.8 442.5 78.1001 442.6 78.4001 442.6C78.9001 442.6 79.5 442.3 79.7 441.8L86.2 430.6C86.6 429.8 86.3 428.9 85.6 428.5Z" fill="#3664AD"/>
<path d="M121.8 365.7C121.1 365.3 120.1 365.5 119.7 366.3L88.9 419.6C88.5 420.3 88.7 421.3 89.5 421.7C89.7 421.8 90 421.9 90.3 421.9C90.8 421.9 91.3999 421.6 91.5999 421.1L122.4 367.8C122.8 367.1 122.5 366.2 121.8 365.7Z" fill="#3664AD"/>
<path d="M400.3 0.2C399.6 -0.2 398.6 0 398.2 0.8L374.9 41.2C374.5 41.9 374.7 42.9 375.5 43.3C375.7 43.4 376 43.5 376.3 43.5C376.8 43.5 377.4 43.2 377.6 42.7L400.9 2.3C401.3 1.6 401 0.6 400.3 0.2Z" fill="#3664AD"/>
<path d="M357.3 74.7C356.6 74.3 355.6 74.5 355.2 75.3L244.4 267.1C244 267.8 244.2 268.8 245 269.2C245.2 269.3 245.5 269.4 245.8 269.4C246.3 269.4 246.9 269.1 247.1 268.6L357.8 76.8C358.3 76.1 358 75.1 357.3 74.7Z" fill="#3664AD"/>
<path fill-rule="evenodd" clip-rule="evenodd" d="M179.158 359.206C192.473 359.206 204.123 353.522 213 344.995L204.678 336.468C198.021 343.289 189.699 347.269 179.712 347.269C160.295 347.269 144.76 330.783 144.76 310.887C144.76 290.991 160.849 275.075 179.712 275.075C189.699 275.075 198.575 279.054 204.678 285.875L213 277.348C204.123 267.685 192.473 262 179.158 262C153.082 262 132 283.601 132 310.319C132 337.605 153.082 359.206 179.158 359.206Z" fill="#3664AD"/>
<path fill-rule="evenodd" clip-rule="evenodd" d="M179.713 298.381C183.041 298.381 185.815 299.518 188.034 301.791L179.713 310.318L188.034 318.845C185.815 321.119 183.041 322.256 179.713 322.256C173.055 322.256 167.507 316.571 167.507 309.75C167.507 303.497 173.055 298.381 179.713 298.381Z" fill="#3664AD"/>
</g>
<defs>
<clipPath id="clip0">
<rect width="401.1" height="519.8" fill="white"/>
</clipPath>
</defs>
</svg>
