<svg width="104" height="170" viewBox="0 0 104 170" fill="none" xmlns="http://www.w3.org/2000/svg">
<path d="M87.3102 0C78.5621 0 71.272 7.28986 71.272 16.0377C71.272 24.7855 78.5621 32.0754 87.3102 32.0754C96.0583 32.0754 103.348 24.7855 103.348 16.0377C103.348 7.28986 96.0583 0 87.3102 0ZM87.3102 29.7426C79.7285 29.7426 73.6048 23.6192 73.6048 16.0377C73.6048 8.45624 79.7285 2.33276 87.3102 2.33276C94.8919 2.33276 101.016 8.45624 101.016 16.0377C101.016 23.6192 94.8919 29.7426 87.3102 29.7426Z" fill="#3664AD"/>
<path d="M13.8262 146.964C13.243 146.672 12.6597 146.964 12.3681 147.256L0.120787 168.25C-0.170817 168.834 0.120783 169.417 0.412387 169.708C0.703991 169.708 0.703982 170 0.995586 170C1.28719 170 1.87041 169.708 1.87041 169.417L14.1178 148.422C14.701 147.839 14.4094 147.256 13.8262 146.964Z" fill="#3664AD"/>
<path d="M82.0613 28.8681C81.4781 28.5765 80.8948 28.8681 80.6032 29.1597L22.5742 129.468C22.2826 130.052 22.5742 130.635 22.8658 130.926C23.1574 130.926 23.1574 131.218 23.449 131.218C23.7406 131.218 24.3238 130.926 24.3238 130.635L82.3529 30.3261C82.9361 29.7429 82.6445 29.1597 82.0613 28.8681Z" fill="#3664AD"/>
<path d="M37.1544 88.645C36.5712 88.3534 35.988 88.6449 35.6963 88.9365L28.9894 100.6C28.6978 101.184 28.9895 101.767 29.2811 102.058C29.5727 102.058 29.5727 102.35 29.8643 102.35C30.1559 102.35 30.7391 102.058 30.7391 101.767L37.446 90.1029C37.7376 89.5197 37.7376 88.9366 37.1544 88.645Z" fill="#3664AD"/>
<path d="M75.063 22.7443C74.4798 22.4527 73.8966 22.7443 73.605 23.0359L41.237 79.0221C40.9454 79.6053 41.237 80.1885 41.5286 80.4801C41.8202 80.4801 41.8202 80.7717 42.1118 80.7717C42.4034 80.7717 42.9866 80.4801 42.9866 80.1885L75.3546 24.2023C75.9379 23.9107 75.6462 23.0359 75.063 22.7443Z" fill="#3664AD"/>
</svg>
