<svg width="91" height="91" viewBox="0 0 91 91" fill="none" xmlns="http://www.w3.org/2000/svg">
<path d="M56.875 11.9971H62.5625V30.0371H56.875V11.9971Z" fill="#3664AD"/>
<path d="M23.3281 9.95312C23.3281 8.84856 22.4327 7.95312 21.3281 7.95312C20.2236 7.95312 19.3281 8.84856 19.3281 9.95312H23.3281ZM19.3281 28.7485C19.3281 29.8531 20.2236 30.7485 21.3281 30.7485C22.4327 30.7485 23.3281 29.8531 23.3281 28.7485H19.3281ZM17.6406 9.95312C17.6406 8.84856 16.7452 7.95312 15.6406 7.95312C14.5361 7.95312 13.6406 8.84856 13.6406 9.95312H17.6406ZM13.6406 20.3325C13.6406 21.4371 14.5361 22.3325 15.6406 22.3325C16.7452 22.3325 17.6406 21.4371 17.6406 20.3325H13.6406ZM17.6406 27.0156C17.6406 25.9111 16.7452 25.0156 15.6406 25.0156C14.5361 25.0156 13.6406 25.9111 13.6406 27.0156H17.6406ZM13.6406 30.0371C13.6406 31.1417 14.5361 32.0371 15.6406 32.0371C16.7452 32.0371 17.6406 31.1417 17.6406 30.0371H13.6406ZM9.95309 7.32599H7.95309V7.32599L9.95309 7.32599ZM67.5419 15.8572L69.5416 15.8878L69.5419 15.8725V15.8572H67.5419ZM19.3281 9.95312V28.7485H23.3281V9.95312H19.3281ZM13.6406 9.95312V20.3325H17.6406V9.95312H13.6406ZM13.6406 27.0156V30.0371H17.6406V27.0156H13.6406ZM9.95312 32.0371H71.2715V28.0371H9.95312V32.0371ZM74.4258 35.1914V81.5801H78.4258V35.1914H74.4258ZM71.2715 84.7344H9.41992V88.7344H71.2715V84.7344ZM6.26562 81.5801V35.1914H2.26562V81.5801H6.26562ZM9.41992 84.7344C7.67785 84.7344 6.26562 83.3221 6.26562 81.5801H2.26562C2.26562 85.5313 5.46872 88.7344 9.41992 88.7344V84.7344ZM74.4258 81.5801C74.4258 83.3222 73.0136 84.7344 71.2715 84.7344V88.7344C75.2227 88.7344 78.4258 85.5313 78.4258 81.5801H74.4258ZM71.2715 32.0371C73.0136 32.0371 74.4258 33.4493 74.4258 35.1914H78.4258C78.4258 31.2402 75.2227 28.0371 71.2715 28.0371V32.0371ZM9.95312 28.0371C8.00751 28.0371 6.12599 28.8157 4.72491 30.0416C3.31892 31.2718 2.26562 33.0771 2.26562 35.1914H6.26562C6.26562 34.4591 6.63276 33.6873 7.35886 33.052C8.08987 32.4124 9.0521 32.0371 9.95312 32.0371V28.0371ZM13.0135 6.26562H38.4933V2.26562H13.0135V6.26562ZM11.9531 30.0371L11.9531 7.32599L7.95309 7.32599L7.95312 30.0371L11.9531 30.0371ZM39.5537 7.32599V30.0371H43.5537V7.32599H39.5537ZM13.0135 2.26562C10.2187 2.26562 7.95309 4.53123 7.95309 7.32599H11.9531C11.9531 6.74037 12.4278 6.26562 13.0135 6.26562V2.26562ZM38.4933 6.26562C39.079 6.26562 39.5537 6.74036 39.5537 7.32599H43.5537C43.5537 4.53123 41.2881 2.26562 38.4933 2.26562V6.26562ZM64.4815 10.7969H41.8509V14.7969H64.4815V10.7969ZM69.325 30.0677L69.5416 15.8878L65.5421 15.8267L65.3255 30.0066L69.325 30.0677ZM64.4815 14.7969C65.0671 14.7969 65.5419 15.2716 65.5419 15.8572H69.5419C69.5419 13.0625 67.2763 10.7969 64.4815 10.7969V14.7969Z" fill="#1E202F"/>
<path d="M35.2803 8.53125C36.2128 8.53125 36.9688 9.28721 36.9688 10.2197V17.554C36.9688 18.4866 36.2128 19.2425 35.2803 19.2425H31.0063C30.0738 19.2425 29.3179 18.4866 29.3179 17.554L29.3179 10.2197C29.3179 9.28721 30.0738 8.53125 31.0063 8.53125L35.2803 8.53125Z" fill="#3664AD"/>
<path fill-rule="evenodd" clip-rule="evenodd" d="M68.25 48.3438C65.1089 48.3438 62.5625 50.8902 62.5625 54.0313V59.7188C62.5625 62.86 65.1089 65.4063 68.25 65.4063H82.4688C85.6099 65.4063 88.1563 62.86 88.1563 59.7188V54.0313C88.1563 50.8902 85.6099 48.3438 82.4688 48.3438H68.25ZM71.0938 54.0313C69.5232 54.0313 68.25 55.3045 68.25 56.8751C68.25 58.4456 69.5232 59.7188 71.0938 59.7188C72.6643 59.7188 73.9375 58.4456 73.9375 56.8751C73.9375 55.3045 72.6643 54.0313 71.0938 54.0313Z" fill="#3664AD"/>
</svg>
