<svg width="139" height="119" fill="none" xmlns="http://www.w3.org/2000/svg"><path d="M5 14.273C5 9.152 8.983 5 13.897 5h111.206C130.017 5 134 9.152 134 14.273v74.18c0 5.122-3.983 9.273-8.897 9.273H13.897C8.983 97.726 5 93.575 5 88.454V14.273z" fill="#fff"/><path d="M25.017 109a5 5 0 0 0 0 10v-10zm88.966 10a5 5 0 0 0 0-10v10zm-88.966 0h88.966v-10H25.017v10zM13.897 10h111.206V0H13.897v10zM129 14.273v74.18h10v-74.18h-10zm-3.897 78.453H13.897v10h111.206v-10zM10 88.454V14.273H0v74.18h10zm3.896 4.272c-1.958 0-3.896-1.715-3.896-4.272H0c0 7.685 6.029 14.272 13.896 14.272v-10zM129 88.454c0 2.557-1.938 4.272-3.897 4.272v10c7.868 0 13.897-6.587 13.897-14.272h-10zM125.103 10c1.959 0 3.897 1.716 3.897 4.273h10C139 6.587 132.971 0 125.103 0v10zM13.897 0C6.029 0 0 6.587 0 14.273h10C10 11.716 11.938 10 13.897 10V0z" fill="#1E202F"/><path d="M98.203 44H40.797c-1.538 0-3.012.6-4.1 1.667A5.638 5.638 0 0 0 35 49.69v26.618c0 1.51.61 2.957 1.698 4.024A5.852 5.852 0 0 0 40.797 82h57.406c3.188 0 5.797-2.56 5.797-5.69V49.69c0-3.13-2.609-5.69-5.797-5.69zM64.428 71.536c-1.188 0-2.174-.967-2.174-2.134v-3.557h-5.797v3.557c0 1.167-.985 2.134-2.174 2.134-1.188 0-2.173-.967-2.173-2.134V56.598c0-1.167.985-2.134 2.173-2.134 1.189 0 2.174.967 2.174 2.134v4.98h5.797v-4.98c0-1.167.986-2.134 2.174-2.134s2.174.967 2.174 2.134v12.804c0 1.167-.986 2.134-2.174 2.134zm9.42-17.072h10.144c1.594 0 2.898 1.28 2.898 2.845v11.382c0 1.565-1.304 2.845-2.898 2.845H73.848c-.812 0-1.45-.626-1.45-1.422V55.886c0-.796.638-1.422 1.45-1.422zm2.898 12.804h5.797v-8.536h-5.797v8.536z" fill="#3664AD"/></svg>