<svg width="139" height="119" fill="none" xmlns="http://www.w3.org/2000/svg"><path d="M5 14.273C5 9.152 8.983 5 13.897 5h111.206C130.017 5 134 9.152 134 14.273v74.18c0 5.122-3.983 9.273-8.897 9.273H13.897C8.983 97.726 5 93.575 5 88.454V14.273z" fill="#fff"/><path d="M25.017 109a5 5 0 0 0 0 10v-10zm88.966 10a5 5 0 0 0 0-10v10zm-88.966 0h88.966v-10H25.017v10zM13.897 10h111.206V0H13.897v10zM129 14.273v74.18h10v-74.18h-10zm-3.897 78.453H13.897v10h111.206v-10zM10 88.454V14.273H0v74.18h10zm3.896 4.272c-1.958 0-3.896-1.715-3.896-4.272H0c0 7.685 6.029 14.272 13.896 14.272v-10zM129 88.454c0 2.557-1.938 4.272-3.897 4.272v10c7.868 0 13.897-6.587 13.897-14.272h-10zM125.103 10c1.959 0 3.897 1.716 3.897 4.273h10C139 6.587 132.971 0 125.103 0v10zM13.897 0C6.029 0 0 6.587 0 14.273h10C10 11.716 11.938 10 13.897 10V0z" fill="#1E202F"/><path d="M88.5 30.81H77.132l7.283-7.326a3.215 3.215 0 0 0 .931-2.272 3.243 3.243 0 0 0-.931-2.271 3.153 3.153 0 0 0-4.497 0L69.5 29.339l-3.705-6.399a3.167 3.167 0 0 0-3.163-1.584 3.157 3.157 0 0 0-2.11 1.224 3.223 3.223 0 0 0-.633 2.373c.053.418.188.82.396 1.186l2.882 4.672H50.5a9.45 9.45 0 0 0-6.718 2.81A9.649 9.649 0 0 0 41 40.409v25.595c0 2.546 1 4.987 2.782 6.787a9.45 9.45 0 0 0 6.718 2.811v3.2c0 .848.334 1.662.928 2.262.593.6 1.399.937 2.239.937a3.15 3.15 0 0 0 2.239-.937c.594-.6.927-1.414.927-2.262v-3.2h25.334v3.2c0 .848.333 1.662.927 2.262.594.6 1.4.937 2.24.937a3.15 3.15 0 0 0 2.239-.937 3.22 3.22 0 0 0 .927-2.262v-3.2a9.45 9.45 0 0 0 6.718-2.81A9.649 9.649 0 0 0 98 66.002V40.408c0-2.545-1-4.986-2.782-6.786A9.45 9.45 0 0 0 88.5 30.81z" fill="#3664AD"/><rect x="55.5" y="45.5" width="28" height="16" rx="2.5" stroke="#fff" stroke-width="5"/></svg>