<svg width="139" height="119" fill="none" xmlns="http://www.w3.org/2000/svg"><path d="M5 14.273C5 9.152 8.983 5 13.897 5h111.206C130.017 5 134 9.152 134 14.273v74.18c0 5.122-3.983 9.273-8.897 9.273H13.897C8.983 97.726 5 93.575 5 88.454V14.273z" fill="#fff"/><path d="M25.017 109a5 5 0 0 0 0 10v-10zm88.966 10a5 5 0 0 0 0-10v10zm-88.966 0h88.966v-10H25.017v10zM13.897 10h111.206V0H13.897v10zM129 14.273v74.18h10v-74.18h-10zm-3.897 78.453H13.897v10h111.206v-10zM10 88.454V14.273H0v74.18h10zm3.896 4.272c-1.958 0-3.896-1.715-3.896-4.272H0c0 7.685 6.029 14.272 13.896 14.272v-10zM129 88.454c0 2.557-1.938 4.272-3.897 4.272v10c7.868 0 13.897-6.587 13.897-14.272h-10zM125.103 10c1.959 0 3.897 1.716 3.897 4.273h10C139 6.587 132.971 0 125.103 0v10zM13.897 0C6.029 0 0 6.587 0 14.273h10C10 11.716 11.938 10 13.897 10V0z" fill="#1E202F"/><path d="M81.465 43.194c-6.042 0-10.964 4.923-10.964 10.964v8.95c0 3.804-3.133 6.937-6.937 6.937-3.804 0-6.937-3.133-6.937-6.936v-10.07h-6.265v10.07c0 7.384 5.93 13.313 13.202 13.202 7.384 0 13.314-5.93 13.202-13.202v-8.95a4.882 4.882 0 0 1 4.699-4.7 4.882 4.882 0 0 1 4.699 4.7V92.5h6.265V54.158c0-6.041-4.922-10.964-10.964-10.964z" fill="#3664AD"/><path d="M53.495 57.29c-6.265 0-11.3-5.034-11.188-11.187V30.887c0-6.265 5.035-11.3 11.188-11.188 6.265 0 11.3 5.035 11.188 11.188v15.216c0 6.265-4.923 11.188-11.188 11.188z" fill="#3664AD"/><path d="M57.97 35.138a6.329 6.329 0 1 0-8.95-8.95 6.329 6.329 0 0 0 8.95 8.95z" fill="#fff"/></svg>