<svg width="493" height="556" fill="none" xmlns="http://www.w3.org/2000/svg"><path d="M309.157 145.52s89.046-16.806 104.572-47.418c0 0 5.873-10.684-.205-15.41 0 0 8.748 4.48 21.111 47.132 0 0 3.861 15.039 3.081 17.217 0 0-30.723 32.872-98.781 13.149-6.161-1.767-29.778-14.67-29.778-14.67z" fill="url(#paint0_linear)"/><path d="M309.362 143.589s88.841-73.963 104.162-60.855c15.32 13.108-17.539 36.283-42.922 45.693-25.383 9.409-59.884 17.915-59.884 17.915l-1.356-2.753z" fill="url(#paint1_linear)"/><path d="M124.328 61.818s-19.099 13.683-13.472 34.804c5.627 21.121 26.903 34.065 58.776 44.666 31.872 10.601 57.707 20.915 57.707 20.915l-14.375 1.274s-8.872-6.081-48.507-6.328c-39.636-.288-78.738-1.192-90.69-33.859-11.952-32.626 11.09-46.761 11.09-46.761l39.471-14.71z" fill="#FFF0D2"/><path d="M238.84 160.642S167.701 46.368 124.287 61.818c0 0-14.047 7.356-15.772 23.422 0 0 12.527-2.589 18.688 4.397 6.12 6.985 31.503 53.747 55.284 57.897 23.782 4.15 41.197 15.409 41.197 15.409l15.156-2.301z" fill="#F4DCBD"/><path opacity=".56" d="M69.619 86.185L122.85 74.31l1.026 32.051-59.802 6.739 5.545-26.915z" fill="#fff"/><path d="M0 555.977h162.321l4.23-411.032-136.568 9.574-13.595 78.196h23.7L0 555.977z" fill="#FCC23F"/><path d="M493 555.977l-42.141-322.769 31.831.041-24.725-85.674-291.414-2.63-4.23 411.032H493z" fill="url(#paint2_linear)"/><path d="M250.916 144.247s27.067-4.274 44.646-19.149 26.492-29.914 31.133-48.405c4.642-18.49.863-33.037.863-33.037s21.933-21.737 48.302-.493c21.563 17.382 4.805 59.294-8.872 73.881-13.677 14.547-31.585 32.832-102.149 28.887-3.737-.205-13.923-1.684-13.923-1.684z" fill="url(#paint3_linear)"/><path d="M40.087 232.715l410.772.493 4.929 37.968L39.06 241.878l1.027-9.163z" fill="#FF881D"/><path d="M255.146 144.904s12.363.945 28.381-22.148c16.019-23.093 31.134-68.005 49.617-77.826 18.483-9.82 36.226-8.711 42.757-1.726 0 0-23.001-19.929-59.515-31.147 0 0-18.319-4.89-30.271 10.602-11.952 15.491-16.593 39.694-19.51 65.786-2.875 26.093-7.228 51.364-11.459 56.459z" fill="#FFF0D2"/><path d="M257.282 123.208s21.645 2.671 22.672 16.477c.123 1.685.123 6.534.123 6.534l-27.683-.658 4.888-22.353z" fill="#DDC0A2"/><path d="M263.237 145.644s31.873-58.801 6.983-101.207c-.699-1.192-1.684-2.712-2.917-4.725-10.596-17.259-33.967-20.258-49.205-7.438-4.929 4.15-10.186 9.739-14.54 17.258 0 0 14.499 14.136 28.217 34.065 11.624 16.847 19.592 36.201 24.069 56.458l.986 5.219 6.407.37z" fill="#F4DCBD"/><path d="M263.237 145.644s.904-24.696-29.86-37.516c-30.763-12.82-38.691-14.094-46.618-16.683 0 0-1.273 24.326 1.808 38.625 1.684 7.684 6.407 14.341 11.582 15.615l63.088-.041z" fill="url(#paint4_linear)"/><path d="M200.19 145.726s-10.802.411-32.447-37.598c-21.605-37.968-23.166-43.064-23.166-43.064s-9.282-37.351 8.667-53.828c17.99-16.519 37.828-12.82 65.47-1.767 38.609 15.409 44.318 24.819 44.318 24.819s-19.304-17.464-38.321-4.808c-17.374 11.546-27.807 27.284-33.639 46.967-5.791 19.353-7.927 61.759 9.118 69.279z" fill="#FFF0D2"/><path d="M278.722 146.178l37.417.164s-1.109-9.615-15.854-7.067c-14.745 2.547-21.563 6.903-21.563 6.903zm-35.446-.288l30.188.123s-21.686-10.847-30.188-.123z" fill="#DDC0A2"/><g opacity=".47"><path opacity=".47" d="M273.464 146.013s-22.467-8.875-31.01 1.069c-8.584 9.944-.739 39.242.37 79.634s-4.847 48.898-4.847 48.898l-26.821-18.45s-11.171 10.848-33.885 15.82c0 0 16.019-48.282 8.174-91.632-7.845-43.351 3.737-41.584 17.127-43.31 18.524-2.466 54.504-2.301 70.892 7.971z" fill="#FFF0D2"/><path opacity=".47" d="M182.693 143.425l64.402 5.054-3.737 20.792-66.005 6.246 5.34-32.092z" fill="#fff"/></g><path opacity=".47" d="M313.921 150.492L367.234 141l3.779 25.025-61.281 16.559 4.189-32.092z" fill="#fff"/><path opacity=".41" d="M156.817.388l67.976 33.53-30.024 42.405-58.488-46.062L156.817.388z" fill="#fff"/><path opacity=".57" d="M290.387 10.742l61.65 32.339-40.58 39.57-38.978-45.24 17.908-26.669z" fill="#fff"/><path d="M165.237 232.181l-3.696-47.953 5.01-39.283-.78 88.304" fill="#FFD37B"/><path d="M357.418 555.977l2.711-409.224-88.02-.904 30.066 410.128h55.243z" fill="#F4DCBD"/><path d="M278.722 146.178s20.824-10.026 31.38-6.246c10.555 3.78 7.187 27.449 5.996 32.585-1.191 5.136-13.883 79.881 17.251 91.92l14.375-21.655s15.074 8.465 36.432 11.588c0 0-16.758-17.423-18.688-37.023-1.93-19.6 5.011-60.239-3.368-72.731-5.339-7.971-28.299-12.779-50.068-10.19-12.363 1.479-27.067 5.506-33.31 11.752zM99.315 555.977l25.588-408.238-45.632 3.246-2.71 404.992h22.754z" fill="#FFF0D2"/><path d="M162.279 555.977l2.177-306.045-6.859 169.705 4.272 136.34h.41z" fill="#FFD37B"/><circle cx="423" cy="492" r="35.5" stroke="#FFF0D2" stroke-width="5"/><path fill-rule="evenodd" clip-rule="evenodd" d="M423.212 511.602c5.425 0 10.172-2.315 13.788-5.789l-3.39-3.474c-2.713 2.779-6.103 4.4-10.172 4.4-7.911 0-14.239-6.716-14.239-14.822 0-8.106 6.554-14.59 14.239-14.59 4.069 0 7.685 1.621 10.172 4.4l3.39-3.474c-3.616-3.937-8.363-6.253-13.788-6.253-10.623 0-19.212 8.801-19.212 19.685 0 11.117 8.589 19.917 19.212 19.917z" fill="#FFF0D2"/><path fill-rule="evenodd" clip-rule="evenodd" d="M423.438 486.822c1.357 0 2.487.463 3.391 1.389l-3.391 3.474 3.391 3.474c-.904.926-2.034 1.39-3.391 1.39-2.712 0-4.972-2.316-4.972-5.095 0-2.548 2.26-4.632 4.972-4.632z" fill="#FFF0D2"/><defs><linearGradient id="paint0_linear" x1="309.349" y1="125.474" x2="438.019" y2="126.688" gradientUnits="userSpaceOnUse"><stop stop-color="#DDC0A2"/><stop offset=".854" stop-color="#FFF0D2"/></linearGradient><linearGradient id="paint1_linear" x1="309.644" y1="114.236" x2="417.229" y2="115.251" gradientUnits="userSpaceOnUse"><stop stop-color="#DDC0A2"/><stop offset="1" stop-color="#F4DCBD"/></linearGradient><linearGradient id="paint2_linear" x1="156.206" y1="526.569" x2="524.468" y2="153.192" gradientUnits="userSpaceOnUse"><stop stop-color="#FF881D"/><stop offset=".122" stop-color="#FE9324"/><stop offset=".458" stop-color="#FDAD33"/><stop offset=".76" stop-color="#FCBD3C"/><stop offset="1" stop-color="#FCC23F"/></linearGradient><linearGradient id="paint3_linear" x1="403.916" y1="-26.542" x2="319.25" y2="114.507" gradientUnits="userSpaceOnUse"><stop stop-color="#DDC0A2"/><stop offset="1" stop-color="#F4DCBD"/></linearGradient><linearGradient id="paint4_linear" x1="298.079" y1="161.073" x2="203.283" y2="121.371" gradientUnits="userSpaceOnUse"><stop stop-color="#DDC0A2"/><stop offset="1" stop-color="#F4DCBD"/></linearGradient></defs></svg>