<svg width="44" height="53" viewBox="0 0 44 53" fill="none" xmlns="http://www.w3.org/2000/svg">
<rect x="2.5" y="15.5" width="39" height="15" rx="3.5" stroke="#1E202F" stroke-width="3"/>
<path d="M7.5 30.5H36.5V50C36.5 50.8284 35.8284 51.5 35 51.5H9C8.17157 51.5 7.5 50.8284 7.5 50V30.5Z" stroke="#1E202F" stroke-width="3"/>
<mask id="path-3-inside-1" fill="white">
<path d="M14 22.5C14 20.0147 16.0147 18 18.5 18H23V32C23 33.6569 21.6569 35 20 35H17C15.3431 35 14 33.6569 14 32V22.5Z"/>
</mask>
<path d="M14 22.5C14 20.0147 16.0147 18 18.5 18H23V32C23 33.6569 21.6569 35 20 35H17C15.3431 35 14 33.6569 14 32V22.5Z" stroke="#3664AD" stroke-width="7" mask="url(#path-3-inside-1)"/>
<mask id="path-4-inside-2" fill="white">
<path d="M20 17H24.5C26.9853 17 29 19.0147 29 21.5V42C29 43.6569 27.6569 45 26 45H23C21.3431 45 20 43.6569 20 42V17Z"/>
</mask>
<path d="M20 17H24.5C26.9853 17 29 19.0147 29 21.5V42C29 43.6569 27.6569 45 26 45H23C21.3431 45 20 43.6569 20 42V17Z" stroke="#3664AD" stroke-width="7" mask="url(#path-4-inside-2)"/>
<path d="M22.2609 14.4581C23.0067 14.9525 23.0067 16.0475 22.2609 16.5419L10.4406 24.3774C9.60974 24.9281 8.5 24.3324 8.5 23.3355L8.5 7.66452C8.5 6.66764 9.60974 6.07185 10.4406 6.62265L22.2609 14.4581Z" stroke="#3664AD" stroke-width="3.5"/>
<path d="M21.7391 16.5419C20.9933 16.0475 20.9933 14.9525 21.7391 14.4581L33.5594 6.62265C34.3903 6.07185 35.5 6.66764 35.5 7.66453L35.5 23.3355C35.5 24.3324 34.3903 24.9281 33.5594 24.3774L21.7391 16.5419Z" stroke="#3664AD" stroke-width="3.5"/>
</svg>
