<svg width="195" height="48" fill="none" xmlns="http://www.w3.org/2000/svg"><path fill-rule="evenodd" clip-rule="evenodd" d="M0 27.986h4.635L19.699 5.597v22.389h3.641V.848h-4.635L3.642 23.237V.848H0v27.138zm28.472 0h3.476V16.283h15.56v11.703h3.642V.848h-3.642v11.703h-15.56V.848h-3.476v27.138z" fill="#1E202F"/><path d="M70.849 1.866h-3.642v25.102h3.642V1.866z" fill="#1E202F"/><path fill-rule="evenodd" clip-rule="evenodd" d="M100.149 29.003c7.78 0 14.236-6.445 14.236-14.586C114.219 6.445 107.929 0 100.149 0s-14.07 6.445-14.07 14.417c0 8.141 6.29 14.586 14.07 14.586zm0-3.73c-5.794 0-10.43-4.92-10.43-10.856S94.52 3.731 100.15 3.731c5.793 0 10.594 4.92 10.594 10.686 0 5.936-4.801 10.855-10.594 10.855zm18.043 2.713h3.642V16.283h6.124l8.112 11.703h4.469l-9.435-13.569L140.539.848h-4.469l-8.112 11.703h-6.124V.848h-3.642v27.138z" fill="#1E202F"/><path fill-rule="evenodd" clip-rule="evenodd" d="M153.616 29.003c7.78 0 14.236-6.445 14.236-14.586 0-7.972-6.29-14.417-14.236-14.417-7.78 0-14.07 6.445-14.07 14.417 0 8.141 6.29 14.586 14.07 14.586zm0-3.73c-5.793 0-10.428-4.92-10.428-10.856s4.8-10.686 10.428-10.686c5.794 0 10.595 4.92 10.595 10.686 0 5.936-4.635 10.855-10.595 10.855zm-84.588 3.73c7.78 0 14.236-6.445 14.236-14.586C83.264 6.445 76.974 0 69.028 0c-7.78 0-14.07 6.445-14.07 14.417 0 8.141 6.29 14.586 14.07 14.586zm0-3.73c-5.794 0-10.429-4.92-10.429-10.856S63.4 3.731 69.028 3.731c5.794 0 10.594 4.92 10.594 10.686 0 5.936-4.8 10.855-10.594 10.855zm115.874 3.73c3.973 0 7.45-1.696 10.098-4.24l-2.483-2.544c-1.986 2.035-4.469 3.223-7.449 3.223-5.794 0-10.429-4.919-10.429-10.855 0-5.937 4.801-10.686 10.429-10.686 2.98 0 5.628 1.187 7.449 3.223L195 4.58C192.352 1.696 188.875 0 184.902 0c-7.78 0-14.07 6.445-14.07 14.417 0 8.141 6.29 14.586 14.07 14.586z" fill="#1E202F"/><path fill-rule="evenodd" clip-rule="evenodd" d="M185.068 10.855c.993 0 1.821.34 2.483 1.018l-2.483 2.544 2.483 2.544c-.662.679-1.49 1.018-2.483 1.018-1.986 0-3.642-1.696-3.642-3.731 0-1.866 1.656-3.393 3.642-3.393z" fill="#3664AD"/><path fill-rule="evenodd" clip-rule="evenodd" d="M6.621 45.626l-4.8-4.58 4.635-4.24H5.297l-4.304 4.07v-4.07H0v8.82h.828v-4.41l4.635 4.41H6.62zm8.443-8.82v2.035c-.662-1.357-1.987-2.205-3.642-2.205-2.483 0-4.47 2.035-4.47 4.58 0 2.544 1.987 4.58 4.47 4.58 1.655 0 2.98-.849 3.642-2.206v2.035h.827v-8.82h-.827zm-3.642 8.31c-1.987 0-3.642-1.695-3.642-3.73 0-2.036 1.655-3.732 3.642-3.732 1.986 0 3.642 1.696 3.642 3.731 0 2.036-1.49 3.732-3.642 3.732zm11.09.849c2.484 0 4.14-1.696 4.14-4.07 0-2.376-1.656-4.072-3.974-4.072-1.159 0-2.648.51-3.476 1.866.331-1.526.993-2.374 2.649-3.222 1.82-.849 3.641-1.188 3.807-2.884l-.662-.34c-.166 1.527-1.821 1.697-3.642 2.715-2.814 1.357-3.31 2.883-3.31 5.597 0 2.544 1.986 4.41 4.469 4.41zm0-1.018c-1.986 0-3.476-1.357-3.476-3.562.166-1.865 1.821-3.053 3.477-3.053 1.986 0 3.31 1.357 3.31 3.223 0 2.035-1.49 3.392-3.31 3.392zm9.933-8.31c-2.649 0-4.47 2.035-4.47 4.579 0 2.713 1.821 4.58 4.635 4.58 1.656 0 3.145-.849 3.808-2.036l-.828-.509c-.497 1.018-1.655 1.696-2.98 1.696-1.986 0-3.476-1.357-3.641-3.392h7.78v-.509c0-2.205-1.656-4.41-4.304-4.41zm0 .847c1.655 0 3.145 1.188 3.31 3.392h-6.952c.166-2.035 1.655-3.392 3.642-3.392zm13.077-.678h-6.125v5.088c0 2.205-.662 3.053-1.986 2.884v.848c1.655.17 2.98-.679 2.98-3.732v-4.24h4.303v7.971h.828v-8.82zm5.96 3.392h-2.484v-3.392h-.827v8.82h3.476c1.49 0 2.814-1.018 2.814-2.714 0-1.527-1.324-2.714-2.98-2.714zm0 4.58h-2.484v-3.732h2.483c1.16 0 1.987.678 1.987 1.866 0 1.187-.828 1.866-1.987 1.866zm11.09-7.972v4.07H57.11v-4.07h-.827v8.82h.828v-4.071h5.462v4.07h.828v-8.82h-.828zm7.45 9.159c2.482 0 4.469-2.036 4.469-4.58s-1.987-4.58-4.47-4.58c-2.483 0-4.635 2.036-4.635 4.58.166 2.544 2.152 4.58 4.635 4.58zm0-.848c-1.987 0-3.643-1.696-3.643-3.732 0-2.035 1.656-3.731 3.642-3.731 1.987 0 3.642 1.696 3.642 3.731 0 2.036-1.49 3.732-3.642 3.732zm10.593-8.48c-2.648 0-4.469 2.035-4.469 4.579 0 2.713 1.82 4.58 4.635 4.58 1.655 0 3.145-.849 3.807-2.036l-.827-.509c-.497 1.018-1.656 1.696-2.98 1.696-1.986 0-3.476-1.357-3.642-3.392h7.78v-.509c0-2.205-1.655-4.41-4.303-4.41zm0 .847c1.656 0 3.146 1.188 3.311 3.392h-6.952c.165-2.035 1.655-3.392 3.641-3.392zm17.05-.678h-7.118v.848h3.146v7.971h.827v-7.971h3.145v-.848zm4.967-.17c-2.649 0-4.47 2.035-4.47 4.58 0 2.713 1.821 4.58 4.635 4.58 1.655 0 3.145-.849 3.807-2.036l-.827-.509c-.497 1.018-1.656 1.696-2.98 1.696-1.986 0-3.476-1.357-3.642-3.392h7.78v-.509c0-2.205-1.655-4.41-4.303-4.41zm0 .848c1.655 0 3.145 1.188 3.31 3.392H98.99c.33-2.035 1.821-3.392 3.642-3.392zm13.077-.678h-6.125v5.088c0 2.205-.662 3.053-1.986 2.884v.848c1.655.17 2.979-.679 2.979-3.732v-4.24h4.304v7.971h.828v-8.82zm6.621-.17c-2.648 0-4.469 2.035-4.469 4.58 0 2.713 1.821 4.58 4.635 4.58 1.655 0 3.145-.849 3.807-2.036l-.828-.509c-.496 1.018-1.655 1.696-2.979 1.696-1.987 0-3.476-1.357-3.642-3.392h7.78v-.509c-.165-2.205-1.821-4.41-4.304-4.41zm0 .848c1.656 0 3.145 1.188 3.311 3.392h-6.953c.166-2.035 1.656-3.392 3.642-3.392zm11.588 3.562c.662-.34 1.158-1.018 1.158-2.035 0-1.357-.827-2.375-2.648-2.375h-3.807v8.82h4.138c1.821 0 2.648-1.018 2.648-2.375 0-.848-.496-1.696-1.489-2.035zm-1.49-3.392c1.159 0 1.655.509 1.655 1.526 0 1.018-.662 1.527-1.655 1.527h-2.98v-3.053h2.98zm.331 7.123h-3.311v-3.222h3.311c1.159 0 1.821.678 1.821 1.526 0 1.188-.662 1.697-1.821 1.697zm10.925-7.971l-5.462 7.293v-7.293h-.828v8.82h.828l5.462-7.294v7.294h.828v-8.82h-.828zm10.594 7.972v-7.972h-6.124v4.41c0 1.696-.331 2.713-.994 3.562h-.993V48h.828v-2.374h7.449V48h.828v-3.222h-.994zm-5.959 0c.497-.849.662-2.036.662-3.562v-3.562h4.304v7.123h-4.966zm12.581-8.142c-2.649 0-4.47 2.035-4.47 4.58 0 2.713 1.821 4.58 4.635 4.58 1.656 0 3.146-.849 3.808-2.036l-.828-.509c-.497 1.018-1.655 1.696-2.98 1.696-1.986 0-3.476-1.357-3.641-3.392h7.78v-.509c0-2.205-1.656-4.41-4.304-4.41zm0 .848c1.655 0 3.145 1.188 3.311 3.392h-6.953c.331-2.035 1.655-3.392 3.642-3.392zm12.58-.678v4.07h-5.462v-4.07h-.828v8.82h.828v-4.071h5.462v4.07h.828v-8.82h-.828zm9.933 0l-5.463 7.293v-7.293h-.828v8.82h.828l5.463-7.294v7.294h.827v-8.82h-.827zm7.283-.17c-2.648 0-4.469 2.035-4.469 4.58 0 2.713 1.821 4.58 4.635 4.58 1.655 0 3.145-.849 3.807-2.036l-.828-.509c-.496 1.018-1.655 1.696-2.979 1.696-1.987 0-3.477-1.357-3.642-3.392H195v-.509c0-2.205-1.655-4.41-4.304-4.41zm0 .848c1.655 0 3.145 1.188 3.311 3.392h-6.953c.331-2.035 1.821-3.392 3.642-3.392z" fill="#1E202F"/></svg>