<svg width="68" height="103" fill="none" xmlns="http://www.w3.org/2000/svg"><path d="M12.407 78.188C5.447 78.188 0 83.936 0 90.594 0 97.554 5.75 103 12.407 103s12.406-5.75 12.406-12.406c.303-6.657-5.447-12.406-12.406-12.406zm0 22.694c-5.447 0-9.986-4.539-9.986-9.986 0-5.446 4.539-9.985 9.986-9.985 5.447 0 9.985 4.539 9.985 9.985 0 5.447-4.538 9.986-9.985 9.986z" fill="#3664AD"/><path d="M43.574 40.061c-.605-.303-1.513 0-1.815.605l-23.603 40.85c-.303.605 0 1.513.605 1.816.303 0 .303.302.605.302.303 0 .908-.302 1.21-.605L44.18 42.18c.303-.907 0-1.513-.605-2.118zM66.874.119c-.605-.303-1.512 0-1.815.605L52.349 22.51c-.302.605 0 1.512.606 1.815.302 0 .303.303.605.303.303 0 .908-.303 1.21-.606L67.48 2.237c0-.908 0-1.816-.606-2.118z" fill="#3664AD"/></svg>