<svg width="43" height="44" fill="none" xmlns="http://www.w3.org/2000/svg"><path d="M38.969 23.84c2.968 0 4.031-2.407 4.031-5.375s-1.063-5.374-4.031-5.374V23.84zm-18.686 2.698c.747 0 1.352-.607 1.352-1.355V11.748c0-.748-.605-1.355-1.352-1.355H7.369c-2.238 0-4.356 1.083-5.754 2.944-2.153 2.864-2.153 7.393 0 10.257 1.398 1.861 3.516 2.944 5.754 2.944h1.548c.496 0 .953.273 1.19.71l7.925 15.235c.489.936 1.416 1.517 2.423 1.517 2.005 0 3.347-2.197 2.532-4.148l-5.007-11.39a1.355 1.355 0 0 1 1.228-1.924h1.075z" fill="#3664AD"/><path d="M38.453 33.982V3.015c0-1.113-1.266-1.751-2.158-1.087L23.546 10.66A1.356 1.356 0 0 0 23 11.748v13.435c0 .429.203.832.546 1.088l12.749 8.799c.892.663 2.158.025 2.158-1.088z" stroke="#1E202F" stroke-width="3"/></svg>