<svg width="16" height="16" fill="none" xmlns="http://www.w3.org/2000/svg"><mask id="a" maskUnits="userSpaceOnUse" x="0" y="0" width="16" height="16"><path fill-rule="evenodd" clip-rule="evenodd" d="M2.243 2.823a3.14 3.14 0 0 0-1.59 2.742v4.786a3.14 3.14 0 0 0 1.536 2.711l4.294 2.521a3.015 3.015 0 0 0 3.06 0l4.293-2.52a3.14 3.14 0 0 0 1.537-2.712V5.565a3.14 3.14 0 0 0-1.59-2.742L9.489.417a3.013 3.013 0 0 0-2.953 0L2.243 2.823zm11.29 7.528V6.129L9.576 8.116a1.169 1.169 0 0 0-.643 1.045v4.614l3.985-2.34c.38-.223.615-.636.615-1.084zm-6.44 3.424l-3.985-2.34a1.256 1.256 0 0 1-.615-1.084v-4.37l3.982 2.122c.38.203.618.6.618 1.033v4.64zm1.51-11.713l4.187 2.346-3.77 2.01a2.11 2.11 0 0 1-2.042-.028L3.37 4.332l4.052-2.27a1.208 1.208 0 0 1 1.181 0z" fill="#C4C4C4"/></mask><g mask="url(#a)"><path fill="#fff" d="M.506 2.959h27.753v28.922H.506z"/><path d="M16.256-.356H.533V16.61h15.723V-.356z" fill="url(#paint0_linear)"/><path d="M16.256-.356H.533V16.61h15.723V-.356z" fill="url(#paint1_linear)"/><path d="M14.988-1.336H1.07v19.852h13.918V-1.336z" fill="url(#paint2_radial)"/><path d="M-3.05 13.741l-.877-11.92L10.497-8.668l5.356 12.514-8.215 15.566L-3.05 13.74z" fill="url(#paint3_linear)"/></g><defs><linearGradient id="paint0_linear" x1="12.97" y1="13.274" x2="4.444" y2="3.789" gradientUnits="userSpaceOnUse"><stop stop-color="#C319FF"/><stop offset=".277" stop-color="#B213FF" stop-opacity=".723"/><stop offset=".838" stop-color="#8005FF" stop-opacity=".162"/><stop offset="1" stop-color="#7000FF" stop-opacity="0"/></linearGradient><linearGradient id="paint1_linear" x1="14.523" y1="5.024" x2="4.833" y2="9.88" gradientUnits="userSpaceOnUse"><stop stop-color="#00CEFF"/><stop offset="1" stop-color="#00D5FF" stop-opacity="0"/></linearGradient><radialGradient id="paint2_radial" cx="0" cy="0" r="1" gradientUnits="userSpaceOnUse" gradientTransform="matrix(5.54509 0 0 5.57568 8.095 8.98)"><stop stop-color="#9D1EF8"/><stop offset="1" stop-color="#7000FF" stop-opacity="0"/></radialGradient><linearGradient id="paint3_linear" x1="-.559" y1="2.813" x2="9.404" y2="5.438" gradientUnits="userSpaceOnUse"><stop stop-color="#FFCD44"/><stop offset=".5" stop-color="#FFCD44" stop-opacity=".9"/><stop offset="1" stop-color="#FFCD44" stop-opacity="0"/></linearGradient></defs></svg>