<?xml version="1.0" encoding="utf-8"?><svg xmlns="http://www.w3.org/2000/svg" xmlns:xlink="http://www.w3.org/1999/xlink"><symbol viewBox="-2 -2 22 22" id="icon-lk" xmlns="http://www.w3.org/2000/svg"><path d="M9 0C4.121 0 0 4.121 0 9s4.121 9 9 9 9-4.121 9-9-4.121-9-9-9zm0 4.5c1.554 0 2.7 1.145 2.7 2.7 0 1.555-1.146 2.7-2.7 2.7-1.553 0-2.7-1.145-2.7-2.7 0-1.555 1.147-2.7 2.7-2.7zm-4.595 8.795c.807-1.188 2.153-1.98 3.695-1.98h1.8c1.543 0 2.888.792 3.695 1.98A6.272 6.272 0 0 1 9 15.3a6.272 6.272 0 0 1-4.595-2.005z"/></symbol><symbol viewBox="-2.64 -2.64 71.28 71.28" id="icon-slider-next" xmlns="http://www.w3.org/2000/svg"><path d="M33 63c16.569 0 30-13.431 30-30C63 16.431 49.569 3 33 3 16.431 3 3 16.431 3 33c0 16.569 13.431 30 30 30z"/><path d="M33 45l12-12-12-12M21 33h24"/></symbol><symbol viewBox="-2.64 -2.64 71.28 71.28" id="icon-slider-prev" xmlns="http://www.w3.org/2000/svg"><path d="M33 3C16.431 3 3 16.431 3 33c0 16.569 13.431 30 30 30 16.569 0 30-13.431 30-30C63 16.431 49.569 3 33 3z"/><path d="M33 21L21 33l12 12m12-12H21"/></symbol><symbol viewBox="-2 -2 22 22" id="icon-tel" xmlns="http://www.w3.org/2000/svg"><path d="M9 0a9 9 0 1 0 0 18A9 9 0 0 0 9 0zM5.766 3.575c.185-.011.353.1.48.297l1.23 2.333a.677.677 0 0 1-.137.77l-.564.564a.276.276 0 0 0-.058.16c.216.837.872 1.609 1.45 2.14.579.53 1.2 1.248 2.007 1.419.1.028.222.038.294-.029l.655-.667c.226-.171.553-.254.794-.114h.01l2.221 1.31c.326.205.36.6.127.84l-1.53 1.517c-.226.232-.526.31-.817.31-1.29-.039-2.507-.671-3.508-1.322-1.642-1.194-3.149-2.676-4.095-4.467-.362-.75-.789-1.708-.748-2.546.004-.316.09-.624.311-.828l1.53-1.529a.598.598 0 0 1 .348-.158z"/></symbol><symbol viewBox="-2 -2 22 22" id="icon-wallet" xmlns="http://www.w3.org/2000/svg"><path d="M16.305 4.507H2.676a1.124 1.124 0 0 1-1.338-1.104V3.38l14.405-.56V1.48a1.327 1.327 0 0 0-1.48-1.47L1.473 2.09A2.254 2.254 0 0 0 0 4.2v12.113A1.687 1.687 0 0 0 1.687 18h14.618a1.687 1.687 0 0 0 1.687-1.687V6.181l.001-.046a1.63 1.63 0 0 0-1.63-1.63h-.06l.002.002zm-1.686 7.872a1.687 1.687 0 1 1 0-3.374 1.687 1.687 0 0 1 0 3.373z"/></symbol></svg>