<svg width="55" height="51" viewBox="0 0 55 51" fill="none" xmlns="http://www.w3.org/2000/svg">
<path d="M8.6281 29.484H6.0481V27.6H13.5721V29.484H11.0041V36H8.6281V29.484Z" fill="#1E202F"/>
<path d="M22.7781 27.6L19.1781 36H16.8381L13.2501 27.6H15.8181L18.0981 33.072L20.4261 27.6H22.7781Z" fill="#1E202F"/>
<path d="M35.75 11.875H4.5C3.11929 11.875 2 12.9973 2 14.3818V38.3217C2 39.7062 3.11929 40.8285 4.5 40.8285H11.89C12.738 40.8285 13.5282 41.2596 13.9889 41.9735L18.0261 48.2297C19.0113 49.7564 21.2389 49.7564 22.224 48.2297L26.2612 41.9735C26.7219 41.2596 27.5121 40.8285 28.3601 40.8285H35.75C37.1307 40.8285 38.25 39.7062 38.25 38.3217V14.3818C38.25 12.9973 37.1307 11.875 35.75 11.875Z" stroke="#1E202F" stroke-width="3"/>
<path d="M34.9183 4.86816C19.835 -5.78799 9.58955 15.5822 32.0866 30.7721C34.5114 32.4093 37.4886 32.4093 39.9134 30.7721C62.4104 15.5822 52.165 -5.78799 37.0817 4.86816C36.4193 5.33612 35.5807 5.33612 34.9183 4.86816Z" stroke="#3664AD" stroke-width="3.5"/>
</svg>
